<svg xmlns="http://www.w3.org/2000/svg" width="387" height="261" fill="none" viewBox="0 0 387 261"><path stroke="#CCDDE2" stroke-linejoin="round" stroke-width="1.65" d="M178.255 258.343C178.255 258.343 175.478 254.1 175.478 244.539C175.478 234.978 179.786 230.739 179.786 230.739C175.115 244.376 184.748 258.352 184.748 258.352C185.039 257.83 187.815 253.886 188.106 246.879C188.106 246.879 190.733 252.893 188.534 258.352"/><path stroke="#CCDDE2" stroke-linejoin="round" stroke-width="1.65" d="M239.375 258.343C239.375 258.343 241.086 255.734 241.086 249.856C241.086 243.978 238.417 241.365 238.417 241.365C241.292 249.749 235.367 258.343 235.367 258.343C235.187 258.022 233.481 255.597 233.301 251.289C233.301 251.289 231.688 254.985 233.036 258.343"/><path stroke="#CCDDE2" stroke-miterlimit="10" stroke-width="1.65" d="M320.614 196.68L337.472 212.841V102.702"/><path stroke="#CCDDE2" stroke-miterlimit="10" stroke-width="1.65" d="M337.473 197.219L357.886 179.282"/><path stroke="#CCDDE2" stroke-miterlimit="10" stroke-width="1.65" d="M337.473 152.542L323.558 136.962"/><path stroke="#CCDDE2" stroke-miterlimit="10" stroke-width="1.65" d="M337.473 138.523L347.68 132.376"/><path stroke="#CCDDE2" stroke-miterlimit="10" stroke-width="1.65" d="M337.473 109.088C337.473 107.219 330.517 94.0259 330.517 94.0259"/><path stroke="#CCDDE2" stroke-miterlimit="10" stroke-width="1.65" d="M317.127 126.117C320.451 123.807 323.3 121.078 324.49 116.184C326.5 107.907 323.968 99.0044 324.562 90.5815C324.99 84.9049 327.313 77.7482 330.979 73.3721C335.684 67.7383 341.673 71.8278 344.775 77.1408C350.066 86.1497 347.692 97.212 347.662 107.111C347.662 114.764 349.981 121.364 356.179 126.04C361.74 130.245 368.225 134.035 370.535 141.051C373.046 148.704 360.602 146.706 357.06 149.79C350.678 155.351 363.746 168.24 367.391 171.923C376.511 181.167 394.127 197.898 381.722 213.118C373.962 222.657 366.322 220.574 357.877 220.916L353.339 220.856C352.114 220.84 350.898 221.066 349.762 221.523C348.625 221.98 347.591 222.658 346.719 223.518C345.847 224.378 345.154 225.403 344.682 226.533C344.209 227.663 343.966 228.876 343.966 230.101L343.769 259.66"/><path stroke="#CCDDE2" stroke-miterlimit="10" stroke-width="1.65" d="M304.723 136.458C303.816 137.89 303.097 139.433 302.584 141.048C301.604 144.042 302.716 145.497 304.723 146.369C312.115 149.621 331.595 144.539 300.389 177.563C299.671 178.316 299.003 179.043 298.357 179.77C297.929 180.228 297.549 180.677 297.151 181.126"/><path stroke="#CCDDE2" stroke-miterlimit="10" stroke-width="1.65" d="M25.4275 257.805C23.6095 257.441 21.8214 257.005 20.0846 256.496C12.9322 254.404 4.61621 250.837 1.77578 243.338C1.06097 241.397 0.835315 239.311 1.11884 237.263C1.40237 235.215 2.18632 233.268 3.40133 231.595C4.6847 229.807 6.49192 228.462 8.57314 227.745C13.0947 226.312 18.1125 228.601 21.4535 231.959C24.7944 235.317 26.9675 239.659 29.5812 243.633C27.207 238.307 24.7944 232.836 24.4479 227.014C24.1912 222.479 25.4275 217.56 28.5545 214.155C31.4335 211.015 38.1624 208.559 42.1279 210.865C44.7459 212.388 45.7853 215.618 46.2388 218.612C47.4665 226.796 45.888 235.107 44.3138 243.231C45.3704 238.889 46.504 234.504 48.66 230.586C50.816 226.667 54.1141 223.207 58.3448 221.756C61.3051 220.743 64.8256 220.849 67.3067 222.762C69.621 224.545 70.6562 227.557 70.9728 230.462C71.5032 235.33 70.3568 240.271 68.4061 244.754C61.0612 261.492 40.6563 260.859 25.4275 257.805Z"/><path stroke="#CCDDE2" stroke-miterlimit="10" stroke-width="1.65" d="M42.0249 249.522C42.0249 249.522 53.3652 252.671 57.3692 236.912"/><path stroke="#CCDDE2" stroke-miterlimit="10" stroke-width="1.65" d="M36.9776 222.611C33.8249 229.759 36.9776 251.199 36.9776 251.199"/><path stroke="#CCDDE2" stroke-miterlimit="10" stroke-width="1.65" d="M26.4671 249.035C25.9965 248.954 21.4493 248.317 17.5694 246.537C14.5749 245.155 11.9655 243.089 11.9655 240.065"/><path stroke="#CCDDE2" stroke-miterlimit="10" stroke-width="1.65" d="M18.4804 240.065C18.4804 240.065 14.0443 245.232 17.5692 246.537"/><path stroke="#CCDDE2" stroke-miterlimit="10" stroke-width="1.65" d="M15.5455 251.242C16.1743 250.386 19.4597 252.123 21.6028 247.982"/><path stroke="#CCDDE2" stroke-miterlimit="10" stroke-width="1.65" d="M35.5786 232.073C34.4578 231.217 31.5147 232.073 31.0912 225.348"/><path stroke="#CCDDE2" stroke-miterlimit="10" stroke-width="1.65" d="M36.0793 238.382C36.0793 238.382 40.9859 236.611 40.9859 232.766"/><path stroke="#CCDDE2" stroke-miterlimit="10" stroke-width="1.65" d="M46.6115 249.613C46.6115 249.613 49.1782 243.008 50.2219 240.065"/><path stroke="#CCDDE2" stroke-miterlimit="10" stroke-width="1.65" d="M54.5587 243.298C54.5587 243.298 57.3692 245.527 60.7315 241.955"/><path stroke="#CCDDE2" stroke-miterlimit="10" stroke-width="1.65" d="M54.5593 240.063C54.5593 240.063 52.7626 239.293 53.584 234.729"/><path fill="#D7E8F0" d="M162.808 194.078V217.982H87.6649C89.9115 209.064 95.071 201.152 102.325 195.5C109.579 189.847 118.513 186.778 127.709 186.78H155.514C157.449 186.781 159.304 187.551 160.672 188.919C162.04 190.287 162.808 192.143 162.808 194.078Z"/><path fill="#2E2E2E" d="M181.219 151.408C181.219 151.408 182.378 151.134 182.763 155.258C183.148 159.382 186.185 168.519 181.219 168.326C176.252 168.134 116.501 168.219 116.501 168.219C116.501 168.219 107.286 170.872 106.17 163.582C105.053 156.293 105.55 146.792 115.256 143.678C115.256 143.678 128.851 150.056 143.172 150.702C157.494 151.348 181.219 151.408 181.219 151.408Z"/><path fill="#D7E8F0" d="M297.023 187.534C297.023 187.534 293.827 185.327 286.238 188.21C278.65 191.093 264.37 194.665 257.03 217.812H162.838V193.899C162.837 191.964 162.067 190.107 160.698 188.739C159.328 187.37 157.472 186.601 155.536 186.601H122.794C114.344 186.598 106.097 189.187 99.1656 194.021C92.2347 198.854 86.9543 205.698 84.0373 213.628H82.9764V207.883C83.0277 207.28 83.1004 206.685 83.1732 206.104C85.8211 185.896 103.488 171.026 123.863 171.026H176.249V195.118C176.249 197.409 177.04 199.63 178.49 201.404C179.939 203.178 181.956 204.397 184.201 204.855C184.846 204.979 185.503 205.04 186.16 205.038H219.227C227.133 205.06 234.911 203.034 241.801 199.157C256.773 190.712 272.34 173.678 272.712 135.906V123.928L273.088 123.68C273.088 123.68 274.847 115.89 283.013 117.648C284.124 118.354 285.118 119.229 285.96 120.241C287.487 122.097 288.792 124.856 287.393 128.248C287.393 128.248 284.574 133.591 278.149 132.749C278.028 133.152 277.945 133.566 277.901 133.985C277.847 134.501 277.847 135.021 277.901 135.538C278.128 137.36 279.274 139.388 283.291 139.336H283.531C291.081 139.11 296.839 132.56 296.954 126.294C297.048 121.075 294.34 115.171 286.782 110.248C286.77 110.25 286.758 110.25 286.747 110.248C285.867 109.662 284.958 109.12 284.022 108.626C283.252 108.199 282.448 107.801 281.597 107.407C280.149 107.122 278.768 106.568 277.525 105.773H301.681C302.421 105.773 303.13 106.067 303.653 106.59C304.176 107.113 304.47 107.823 304.47 108.562V145.993C304.471 146.359 304.399 146.722 304.259 147.061C304.119 147.4 303.914 147.708 303.655 147.968C303.396 148.227 303.088 148.433 302.749 148.573C302.411 148.714 302.048 148.786 301.681 148.786C301.037 148.782 300.399 148.906 299.803 149.15C299.208 149.395 298.667 149.755 298.212 150.21C297.757 150.666 297.396 151.207 297.152 151.802C296.907 152.398 296.783 153.036 296.787 153.68V173.357C296.777 176.603 297.799 179.767 299.706 182.392C301.613 185.018 304.307 186.968 307.396 187.962C307.554 188.013 307.708 188.064 307.867 188.107C314.887 190.061 321.265 193.839 326.352 199.056C331.439 204.274 335.055 210.745 336.831 217.812H262.959C263.592 215.442 270.954 190.143 297.023 187.534Z"/><path fill="#2E2E2E" d="M130.048 148.953C126.443 148.241 122.91 147.198 119.495 145.839L130.048 148.953Z"/><path fill="#000" d="M97.3025 121.912C91.1083 120.663 83.1517 119.508 79.4044 113.75C78.8739 112.946 78.2066 111.988 78.0612 111.021C78.041 110.908 78.0312 110.794 78.0312 110.679C77.967 108.75 80.2685 108.874 81.7443 109.105C85.2649 109.648 88.7427 110.418 92.1991 111.244C93.2314 111.483 94.2555 111.73 95.2706 111.984C95.5542 115.362 96.2361 118.695 97.3025 121.912Z"/><path fill="#2E2E2E" d="M271.172 119.256C268.404 126.734 262.779 126.764 262.689 126.764C250.682 123.872 249.056 123.547 239.949 120.099C211.972 109.503 196.384 96.8921 188.085 86.5314C180.766 93.9233 178.704 97.5167 176.321 105.2C176.18 105.676 176.008 106.143 175.808 106.598C175.808 106.598 175.808 106.65 175.778 106.671L175.291 107.702C175.287 107.717 175.279 107.729 175.269 107.74C173.768 110.615 169.259 114.469 166.389 115.83L113.9 115.445L92.2037 111.24C88.743 110.418 85.2694 109.648 81.7488 109.101C80.6965 108.934 79.2164 108.831 78.4892 109.486C78.3232 109.633 78.1949 109.817 78.1149 110.024C78.0353 110.231 78.0066 110.454 78.0315 110.675C78.0315 108.164 79.3362 106.444 80.8548 104.626C82.4675 102.667 84.093 100.708 85.7057 98.7615C94.7746 87.943 103.625 76.9449 112.716 66.1521C114.953 63.4956 117.233 60.8948 119.671 58.4265C128.197 49.7641 138.066 42.171 148.867 36.5287C166.367 27.4384 179.945 24.1232 190.96 24.859H191.097C192.025 24.9317 192.928 25.0258 193.826 25.1413L194.203 25.1926C202.647 26.3904 209.538 30.065 215.591 35.2838C216.313 36.1189 216.957 37.018 217.516 37.9703C219.993 42.1668 221.691 46.6541 223.428 51.18C231.761 72.9965 246.956 92.3192 268.866 101.533L268.939 103.18V103.711C268.939 103.587 268.939 103.42 268.939 103.18C268.939 102.795 268.909 102.261 268.879 101.533C268.879 101.461 268.879 101.388 268.879 101.315L270.496 102.171L272.246 103.121C272.242 103.152 272.242 103.183 272.246 103.215C272.725 110.136 272.443 115.813 271.172 119.256Z"/><path stroke="#000" stroke-miterlimit="10" stroke-width="1.65" d="M36.0662 258.788H317.162"/><path stroke="#000" stroke-miterlimit="10" stroke-width="1.65" d="M176.475 105.944H195.524C209.153 105.944 217.34 119.068 215.659 132.466L207.253 193.749H186.348L182.378 151.305"/><path stroke="#000" stroke-miterlimit="10" stroke-width="1.65" d="M181.489 62.9053C181.489 62.9053 172.206 104.9 263.048 126.789C263.048 126.789 274.662 127.119 272.233 103.172"/><path stroke="#000" stroke-miterlimit="10" stroke-width="1.65" d="M187.041 151.407H165.52C133.941 151.407 110.012 149.234 99.5825 126.763C97.4141 122.103 96.0778 117.1 95.6341 111.979"/><path stroke="#000" stroke-miterlimit="10" stroke-width="1.65" d="M271.535 118.464C277.148 118.507 274.496 118.131 279.971 119.632C283 120.488 285.626 122.006 285.635 125.796C285.635 130.733 275.026 131.178 278.23 136.748C281.652 142.706 292.488 137.043 294.631 133.188C304.17 115.996 282.867 107.783 270.06 102.034"/><path stroke="#000" stroke-miterlimit="10" stroke-width="1.65" d="M97.6792 121.913C91.485 120.664 83.5326 119.509 79.781 113.751C79.2506 112.947 78.5833 111.989 78.4378 111.022C78.087 108.742 80.5767 108.883 82.1252 109.106C92.5074 110.688 102.47 114.333 112.925 115.278C115.838 115.539 118.777 115.668 121.703 115.668H162.641C165.796 115.655 168.863 114.632 171.393 112.748C173.923 110.864 175.782 108.219 176.698 105.2C178.717 98.6849 182.165 91.7079 188.034 86.3778"/><path stroke="#000" stroke-miterlimit="10" stroke-width="1.65" d="M228.783 26.5782C228.356 26.5782 205.089 24.127 194.176 25.1494"/><path fill="#3FBDF1" d="M280.489 132.756C284.659 132.756 288.039 129.376 288.039 125.206C288.039 121.036 284.659 117.655 280.489 117.655C276.319 117.655 272.939 121.036 272.939 125.206C272.939 129.376 276.319 132.756 280.489 132.756Z"/><path stroke="#000" stroke-miterlimit="10" stroke-width="1.65" d="M280.489 132.756C284.659 132.756 288.039 129.376 288.039 125.206C288.039 121.036 284.659 117.655 280.489 117.655C276.319 117.655 272.939 121.036 272.939 125.206C272.939 129.376 276.319 132.756 280.489 132.756Z"/><path stroke="#000" stroke-miterlimit="10" stroke-width="1.65" d="M280.489 132.756C284.659 132.756 288.039 129.376 288.039 125.206C288.039 121.036 284.659 117.655 280.489 117.655C276.319 117.655 272.939 121.036 272.939 125.206C272.939 129.376 276.319 132.756 280.489 132.756Z"/><path fill="#3FBDF1" d="M222.093 25.1036C222.729 26.745 223.523 28.3209 224.463 29.8091C224.562 29.9717 225.259 29.6637 225.836 30.4893C227.021 32.1747 229.259 32.3672 229.845 31.6742L229.789 31.6357L229.156 31.2507L230.585 31.5801L231.522 31.6143L232.903 30.2668C232.903 30.2668 226.324 25.326 229.622 21.8867C229.622 21.8867 229.622 21.8867 229.648 21.8611C229.72 21.7862 229.784 21.7045 229.84 21.6172C230.003 21.3606 229.806 21.3734 230.118 21.3263C230.353 21.1 230.634 20.9285 230.943 20.8246C231.251 20.7202 231.579 20.6855 231.902 20.7232C232.267 20.7373 232.618 20.8673 232.903 21.0953C232.946 18.5928 232.719 15.7866 234.251 14.6787C234.867 13.3954 235.885 12.5398 237.51 12.604C237.981 12.6254 238.409 12.6596 238.815 12.7152L243.217 13.7761C244.145 12.4928 244.834 13.5921 246.13 14.0199C246.575 14.1688 247.049 14.2069 247.512 14.1311C248.139 14.0238 248.717 13.7248 249.167 13.2756C249.997 11.2736 250.147 8.76684 249.42 7.26107C249.42 7.26107 245.377 7.11135 242.575 6.36702C239.773 5.62269 238.768 0.570657 230.734 5.67402C230.315 5.93839 229.846 6.11591 229.357 6.19591C228.501 6.31141 227.145 6.36274 226.179 5.81946C226.107 5.78225 226.038 5.73946 225.973 5.69112C225.868 5.63081 225.771 5.55595 225.687 5.46868C225.926 5.70396 225.178 7.90701 224.793 9.00212C224.79 9.01452 224.79 9.02778 224.793 9.04061C224.746 9.19034 224.69 9.31439 224.656 9.41278V9.44272C224.639 9.48892 224.621 9.5347 224.6 9.57962C224.219 10.424 223.724 11.2129 223.129 11.9238L222.838 12.3131C222.448 12.8196 222.11 13.3641 221.828 13.9386C220.168 17.3908 220.66 21.3905 222.093 25.1036Z"/><path stroke="#000" stroke-miterlimit="10" stroke-width="1.65" d="M229.823 31.6905C231.277 31.8402 232.642 31.5921 232.912 30.266L232.959 30.0393C232.959 30.0393 226.683 25.7145 229.631 21.8859C229.631 21.8859 229.631 21.8859 229.656 21.8602C229.682 21.8345 229.742 21.7404 229.785 21.6891C229.827 21.6378 229.832 21.6378 229.849 21.6164C229.951 21.5052 230.028 21.4153 230.127 21.3255C230.841 20.6239 231.41 20.5042 231.911 20.7223C232.036 20.7775 232.15 20.8541 232.249 20.949C233.036 21.6206 233.485 23.2034 233.729 24.3712C233.404 22.0527 232.95 17.3771 234.259 14.6779C234.875 13.3945 235.893 12.539 237.519 12.6031L238.823 12.7144L243.225 13.7752L246.138 14.0191L247.52 14.1303C248.147 14.0229 248.726 13.7239 249.176 13.2748C251.272 11.3027 252.046 6.50305 250.853 4.21445C250.853 4.21445 246.656 4.32567 243.717 3.73107C240.778 3.13646 239.512 -2.40751 230.807 4.24012C229.404 5.09567 227.77 5.80151 226.187 5.04862C226.206 5.30486 226.206 5.56238 226.187 5.81861C226.136 6.2558 226.01 6.68144 225.815 7.07627C225.498 7.72649 225.165 8.3596 224.801 9.00127C224.798 9.01367 224.798 9.02693 224.801 9.03976C224.454 9.65148 224.082 10.2632 223.727 10.8706C223.518 11.23 223.299 11.5765 223.128 11.923C222.399 13.1712 221.865 14.5247 221.546 15.9355C221.215 17.5717 221.127 19.2482 221.285 20.9105C221.415 22.3393 221.702 23.7493 222.14 25.1156C222.932 27.6822 223.702 29.727 226.379 30.8007C227.485 31.2422 228.642 31.5412 229.823 31.6905Z"/><path stroke="#000" stroke-miterlimit="10" stroke-width="1.65" d="M246.323 17.8857C246.323 17.8857 242.083 17.7831 240.98 21.308"/><path stroke="#000" stroke-miterlimit="10" stroke-width="1.65" d="M247.871 14.2074L247.961 22.0442C247.973 22.2829 248.06 22.5118 248.209 22.6987C249.116 24.1104 249.946 25.5776 250.75 27.0577C250.849 27.2383 250.901 27.4402 250.904 27.6455C250.907 27.8513 250.859 28.0545 250.764 28.2371C250.67 28.4202 250.533 28.5768 250.364 28.6944C250.195 28.8116 250 28.8856 249.796 28.91C248.859 28.9853 247.915 28.8912 247.011 28.632"/><path fill="#000" d="M245.16 22.7474C245.77 22.6944 246.213 22.0711 246.151 21.3554C246.088 20.6402 245.543 20.1033 244.934 20.1564C244.324 20.2098 243.881 20.8331 243.943 21.5488C244.006 22.264 244.551 22.8009 245.16 22.7474Z"/><path stroke="#000" stroke-linecap="round" stroke-linejoin="round" stroke-width="1.65" d="M248.256 29.4485C247.161 33.7905 243.174 41.5246 237.562 40.2884C234.927 39.7066 233.126 36.9945 231.385 35.1337"/><path fill="#3FBDF1" d="M304.722 111.968C311.083 115.227 315.417 121.665 315.417 129.079C315.417 136.723 310.827 143.324 304.153 146.481L304.722 111.968Z"/><path stroke="#000" stroke-miterlimit="10" stroke-width="1.65" d="M211.467 193.749H186.271V205.205H218.461V200.748C218.461 198.893 217.724 197.113 216.413 195.801C215.101 194.489 213.322 193.751 211.467 193.749Z"/><path stroke="#000" stroke-miterlimit="10" stroke-width="1.65" d="M234.858 38.8347C229.412 40.024 221.913 47.2833 221.913 47.2833"/><path stroke="#000" stroke-miterlimit="10" stroke-width="1.65" d="M246.322 34.3218C246.322 34.3218 243.858 34.9763 242.827 31.7294"/><path stroke="#000" stroke-miterlimit="10" stroke-width="1.65" d="M114.131 143.045C114.131 143.045 98.0856 153.966 109.854 169.353"/><path stroke="#000" stroke-miterlimit="10" stroke-width="1.65" d="M84.2509 213.821H78.0011V205.205C78.061 204.602 78.1251 204.012 78.2021 203.426C80.8415 183.218 98.5129 168.348 118.892 168.348H176.475V195.298C176.475 196.6 176.73 197.889 177.228 199.092C177.726 200.295 178.456 201.388 179.377 202.309C180.297 203.23 181.39 203.96 182.593 204.459C183.796 204.957 185.084 205.214 186.387 205.214H219.454C227.362 205.234 235.14 203.211 242.036 199.34C256.982 190.879 272.566 173.845 272.938 136.077V125.207"/><path stroke="#000" stroke-miterlimit="10" stroke-width="1.65" d="M78.3859 110.666C78.3825 110.272 78.4171 109.878 78.4886 109.49C78.8008 107.595 79.9344 106.157 81.1964 104.63C82.8219 102.671 84.4346 100.712 86.0602 98.7653C95.1248 87.9469 103.975 76.9487 113.066 66.156C115.294 63.4995 117.587 60.8986 120.021 58.4303C128.551 49.7679 138.416 42.1748 149.217 36.5325C158.525 31.7029 168.416 27.485 178.798 25.6542C182.803 24.9214 186.88 24.6561 190.947 24.8628H191.083C195.14 25.0792 199.139 25.9159 202.941 27.3439C207.711 29.1533 212.305 31.4633 215.595 35.2877C216.317 36.1231 216.961 37.0223 217.52 37.9741C219.997 42.1706 221.695 46.6579 223.432 51.1838C231.765 73.0004 246.959 92.323 268.87 101.537C269.255 101.713 269.64 101.871 270.034 102.025C270.179 102.089 270.329 102.14 270.461 102.192C270.834 102.35 271.219 102.487 271.616 102.62"/><path stroke="#000" stroke-miterlimit="10" stroke-width="1.65" d="M304.722 108.617C308.41 110.14 311.563 112.723 313.782 116.039C316 119.355 317.184 123.255 317.184 127.245C317.184 131.234 316 135.134 313.782 138.45C311.563 141.767 308.41 144.349 304.722 145.872"/><path stroke="#000" stroke-miterlimit="10" stroke-width="1.65" d="M163.065 217.982H82.9764C85.2231 209.064 90.3825 201.152 97.6367 195.5C104.891 189.847 113.824 186.778 123.02 186.78H155.767C157.702 186.78 159.559 187.549 160.927 188.917C162.296 190.286 163.065 192.142 163.065 194.078V217.982Z"/><path stroke="#000" stroke-miterlimit="10" stroke-width="1.65" d="M82.9764 217.983H163.065H256.97"/><path stroke="#000" stroke-miterlimit="10" stroke-width="1.65" d="M278.671 105.94H301.908C302.649 105.94 303.359 106.235 303.883 106.758C304.407 107.282 304.701 107.993 304.701 108.734V146.164C304.701 146.531 304.629 146.893 304.489 147.232C304.348 147.571 304.142 147.879 303.883 148.138C303.623 148.397 303.315 148.602 302.977 148.742C302.638 148.882 302.275 148.954 301.908 148.953C300.611 148.955 299.369 149.472 298.453 150.389C297.537 151.307 297.023 152.55 297.023 153.847V173.525C297.006 176.858 298.08 180.106 300.08 182.772C302.08 185.439 304.897 187.379 308.102 188.296C315.119 190.256 321.493 194.035 326.58 199.251C331.667 204.466 335.286 210.933 337.071 217.996H256.97C259.215 209.075 264.375 201.159 271.631 195.504C278.887 189.849 287.823 186.779 297.023 186.781"/><path stroke="#000" stroke-miterlimit="10" stroke-width="1.65" d="M152.631 217.983C154.103 222.636 154.457 227.57 153.665 232.386C152.874 237.202 150.958 241.763 148.074 245.701C145.19 249.638 141.419 252.84 137.066 255.047C132.713 257.255 127.901 258.405 123.02 258.405C118.14 258.405 113.328 257.255 108.975 255.047C104.622 252.84 100.851 249.638 97.9668 245.701C95.0828 241.763 93.1672 237.202 92.3754 232.386C91.5836 227.57 91.9378 222.636 93.4097 217.983"/><path stroke="#000" stroke-miterlimit="10" stroke-width="1.65" d="M326.629 217.983C328.102 222.637 328.457 227.572 327.666 232.39C326.875 237.207 324.959 241.77 322.075 245.708C319.19 249.646 315.418 252.85 311.064 255.058C306.71 257.266 301.898 258.416 297.016 258.416C292.134 258.416 287.321 257.266 282.967 255.058C278.613 252.85 274.841 249.646 271.957 245.708C269.072 241.77 267.157 237.207 266.366 232.39C265.574 227.572 265.93 222.637 267.403 217.983"/><path fill="#000" d="M297.014 232.588C299.896 232.588 302.232 230.251 302.232 227.369C302.232 224.486 299.896 222.15 297.014 222.15C294.131 222.15 291.795 224.486 291.795 227.369C291.795 230.251 294.131 232.588 297.014 232.588Z"/><path fill="#000" d="M123.02 232.588C125.903 232.588 128.239 230.251 128.239 227.369C128.239 224.486 125.903 222.15 123.02 222.15C120.138 222.15 117.801 224.486 117.801 227.369C117.801 230.251 120.138 232.588 123.02 232.588Z"/><path stroke="#000" stroke-miterlimit="10" stroke-width="1.65" d="M176.475 168.344H183.875"/><path fill="#D7E8F0" d="M262.959 217.807C262.929 217.923 262.916 217.983 262.916 217.983H256.97C256.994 217.926 257.011 217.867 257.021 217.807H262.959Z"/><path stroke="#000" stroke-miterlimit="10" stroke-width="1.65" d="M99.5227 255.871C97.5019 254.202 95.6621 252.325 94.0344 250.271"/><path stroke="#000" stroke-miterlimit="10" stroke-width="1.65" d="M159.955 227.363C159.968 234.481 157.913 241.45 154.039 247.422"/><path stroke="#000" stroke-miterlimit="10" stroke-width="1.65" d="M262.257 238.439C261.524 235.929 261.059 233.347 260.871 230.739"/><path stroke="#000" stroke-miterlimit="10" stroke-width="1.65" d="M333.054 227.363C333.067 234.481 331.012 241.45 327.138 247.422"/><path stroke="#000" stroke-miterlimit="10" stroke-width="1.65" d="M89.7352 243.409C87.3213 238.405 86.0726 232.919 86.082 227.363"/><path stroke="#000" stroke-miterlimit="10" stroke-width="1.65" d="M171.445 22.1465C171.445 22.1465 150.009 25.2521 126.982 44.6902"/></svg>