<svg xmlns="http://www.w3.org/2000/svg" width="370" height="235" fill="none" viewBox="0 0 370 235"><path fill="#353642" d="M350.73 234.232H233.784H241.886L315.851 233.375C329.524 232.186 339.159 218.775 333.965 206.077C333.067 203.883 334.006 203.273 332.895 201.157C321.267 179.263 301.107 161.428 278.262 151.067C278.827 150.96 279.397 150.882 279.979 150.804C275.725 148.674 271.344 146.808 266.859 145.216C264.481 144.367 262.075 143.601 259.672 142.928C247.86 139.599 231.898 141.12 226.872 154.199C222.644 165.179 228.257 178.443 238.815 183.252L257.778 190.501C257.618 190.263 257.474 190.025 257.327 189.775L273.817 196.077C274.144 196.306 274.394 196.63 274.532 197.005C274.67 197.38 274.69 197.788 274.59 198.175C274.489 198.562 274.273 198.908 273.97 199.169C273.667 199.429 273.292 199.591 272.895 199.632L232.845 204.006C227.072 204.589 219.844 207.004 215.588 210.977C212.485 213.847 209.869 217.754 209.893 222.699C207.276 222.896 204.674 223.261 202.103 223.793C198.18 224.638 194.186 226.093 193.903 228.484C193.346 233.281 200.164 234.257 204.461 234.257L177.269 234.15C180.189 234.15 180.549 234.125 182.485 232.198C184.42 230.271 186.585 228.787 186.585 225.868L186.822 216.512C186.822 214.585 187.282 213.027 185.355 213.027H168.134C168.836 213.046 169.527 212.863 170.127 212.499C170.727 212.136 171.209 211.607 171.517 210.977C171.53 210.962 171.539 210.943 171.542 210.923C172.403 209.324 172.599 207.024 172.439 204.847L172.64 204.134L173.157 202.231L184.096 195.794C184.178 195.747 184.257 195.694 184.334 195.638C190.041 192.149 190.754 185.913 188.799 180.337C188.758 180.23 188.733 180.136 188.692 180.046C188.602 179.808 188.52 179.583 188.417 179.357C187.895 178.086 187.248 176.869 186.486 175.724C183.661 171.313 179.561 167.717 175.666 166.778C174.574 166.531 173.457 166.407 172.337 166.409C185.892 153.699 201.509 142.403 219.955 138.648C236.094 135.314 252.785 135.749 268.729 139.919C287.36 144.876 304.137 155.167 317.442 169.066C335.351 187.75 343.727 209.578 350.73 234.232Z"/><path fill="#3FBDF1" d="M168.524 178.057C167.881 179.323 166.829 180.334 165.539 180.927C164.438 181.481 163.271 181.894 162.066 182.157C160.082 182.489 159.381 181.234 158.114 180.004C157.392 179.307 156.561 178.731 155.654 178.299C155.11 178.032 154.515 177.889 153.909 177.88C153.304 177.87 152.704 177.995 152.153 178.246C151.779 178.412 151.462 178.683 151.239 179.025C151.017 179.368 150.898 179.768 150.898 180.177C150.98 181.681 153.055 182.87 154.227 183.494C155.758 184.217 157.349 184.804 158.983 185.248C162.989 186.478 156.318 189.041 154.916 189.201C151.917 189.607 148.873 189.535 145.896 188.988C146.75 190.897 147.406 192.889 147.852 194.933C148.315 196.888 148.856 199.242 148.475 201.21C148.012 203.522 146.449 205.24 144.522 206.405L137.032 175.154C139.794 173.838 142.798 173.108 145.856 173.007C148.914 172.907 151.959 173.44 154.801 174.572C155.749 174.922 156.777 174.991 157.763 174.773C158.75 174.555 159.653 174.059 160.365 173.342L161.132 172.6C162.199 172.368 163.312 172.456 164.33 172.854C166.146 173.539 169.508 175.74 168.524 178.057Z"/><path stroke="#000" stroke-miterlimit="10" d="M176.216 213.001H145.285C144.972 215.919 143.592 218.618 141.409 220.579C139.226 222.54 136.395 223.625 133.46 223.624H29.4752C29.4818 226.437 30.6019 229.132 32.5904 231.12C34.579 233.109 37.2739 234.229 40.0861 234.235H176.208C179.02 234.225 181.714 233.105 183.704 231.117C185.694 229.13 186.818 226.437 186.831 223.624V216.49C186.831 215.565 186.463 214.677 185.809 214.023C185.155 213.369 184.267 213.001 183.342 213.001H176.216Z"/><path stroke="#000" stroke-miterlimit="10" d="M128.45 143.637C129.364 144.896 130.02 146.323 130.381 147.836L145.035 208.926C145.359 210.252 145.443 211.626 145.285 212.981C144.972 215.899 143.592 218.598 141.409 220.559C139.226 222.52 136.395 223.605 133.46 223.604H27.544C24.87 223.603 22.2738 222.701 20.1744 221.045C18.0748 219.389 16.5938 217.074 15.9696 214.474L1.33246 153.383C0.909708 151.633 0.889865 149.81 1.27445 148.051C1.65899 146.292 2.43796 144.644 3.55255 143.23C4.66715 141.816 6.08827 140.674 7.70868 139.889C9.3291 139.105 11.1065 138.698 12.9069 138.701H118.807C120.547 138.698 122.265 139.079 123.84 139.817C125.416 140.555 126.809 141.631 127.921 142.969L128.45 143.637Z"/><path fill="#D7E8F0" d="M77.0656 197.903C83.0972 196.001 86.2542 188.964 84.1169 182.185C81.9795 175.406 75.3571 171.452 69.3252 173.354C63.2936 175.256 60.1366 182.293 62.2739 189.072C64.4113 195.851 71.0337 199.804 77.0656 197.903Z"/><path fill="#353642" d="M280.558 150.447C271.214 152.009 264.03 156.282 259.209 165.125C254.891 173.039 254.387 182.694 258.991 190.546L240.193 183.338C229.307 178.352 225.478 167.274 229.84 155.896C235.027 142.341 251.484 140.767 263.665 144.219C266.146 144.916 268.622 145.712 271.074 146.589C274.278 147.737 277.439 149.023 280.558 150.447Z"/><path stroke="#9F9F9F" stroke-miterlimit="10" d="M61.6277 138.709C69.0857 129.072 79.3698 122.008 91.0414 118.504C89.4866 114.328 88.2534 110.039 87.3513 105.675C77.667 58.5739 107.954 12.5263 155.043 2.81333C202.132 -6.89967 248.196 23.3751 257.905 70.464C258.99 75.7408 259.594 81.1053 259.709 86.4911C263.073 85.2976 266.516 84.3386 270.012 83.6211C311.164 75.1135 351.427 101.592 359.922 142.752C362.32 154.325 361.984 166.298 358.943 177.719C355.902 189.139 350.238 199.693 342.403 208.541"/><path stroke="#000" stroke-miterlimit="10" d="M164.272 213.006H167.179C168.015 213.027 168.844 212.851 169.6 212.496C170.357 212.14 171.02 211.613 171.537 210.956C171.551 210.941 171.561 210.923 171.566 210.903C172.609 209.477 173.084 207.715 172.899 205.958L172.661 204.109L172.464 202.617L173.178 202.207L184.354 195.614L185.109 195.179C190.566 191.969 190.959 185.983 188.819 180.312C188.782 180.21 188.754 180.116 188.717 180.021C188.622 179.783 188.528 179.562 188.438 179.337C187.891 178.077 187.245 176.863 186.507 175.704C183.682 171.288 179.586 167.697 175.687 166.758C174.594 166.509 173.478 166.385 172.358 166.389C170.02 166.389 167.437 166.836 166.08 168.184C180.578 153.92 197.515 140.534 217.888 136.38C234.035 133.052 250.732 133.495 266.679 137.676C285.31 142.633 302.103 152.937 315.408 166.836C316.109 167.566 316.794 168.303 317.458 169.058C334.133 187.385 344.768 210.534 351.488 234.224"/><path stroke="#000" stroke-miterlimit="10" d="M169.385 234.237H370"/><path stroke="#000" stroke-miterlimit="10" d="M219.889 234.232H242.653"/><path stroke="#000" stroke-miterlimit="10" d="M238.918 183.144C228.356 178.335 222.747 165.071 226.97 154.095C232.005 141.012 247.966 139.491 259.77 142.82C262.181 143.496 264.577 144.258 266.958 145.108C293.497 154.538 317.614 174.116 330.783 198.921C331.894 201.02 332.78 203.177 333.678 205.375C334.888 208.327 335.387 211.523 335.135 214.703C334.882 217.885 333.886 220.961 332.225 223.686C330.564 226.41 328.285 228.706 325.573 230.388C322.861 232.069 319.792 233.089 316.613 233.366L242.653 234.231H219.889C217.878 234.231 215.918 233.602 214.282 232.431C212.647 231.261 211.419 229.608 210.771 227.703C208.274 220.323 211.501 214.756 215.58 210.963C219.836 207.011 225.387 204.751 231.16 204.169L272.71 199.971C273.108 199.93 273.484 199.769 273.788 199.508C274.091 199.248 274.308 198.901 274.409 198.514C274.51 198.127 274.491 197.719 274.354 197.343C274.216 196.968 273.968 196.642 273.641 196.412L238.918 183.144Z"/><path stroke="#000" stroke-miterlimit="10" d="M226.531 212.231C222.739 214.412 218.84 217.827 217.536 222.153C216.035 227.134 219.557 231.661 223.559 234.252"/><path stroke="#000" stroke-miterlimit="10" d="M230.599 217.947C227.06 221.313 223.993 225.581 226.039 230.657C226.624 232.05 227.535 233.282 228.696 234.248"/><path stroke="#000" stroke-miterlimit="10" d="M237.54 224.531C237.54 224.531 229.393 230.587 234.567 234.219"/><path stroke="#000" stroke-miterlimit="10" d="M216.63 233.653L216.773 234.235H203.629C199.332 234.235 193.378 233.575 193.94 228.778C194.502 223.981 209.889 222.673 209.889 222.673"/><path fill="#3FBDF1" d="M193.05 82.8084L165.076 86.9946L169.951 90.4304L179.069 97.7326C180.496 98.7371 180.139 101.107 180.931 102.546C181.231 104.718 180.89 106.931 179.949 108.911C179.008 110.892 177.508 112.554 175.634 113.693C173.76 114.832 171.594 115.398 169.403 115.322C167.212 115.246 165.091 114.53 163.3 113.264L141.304 97.79C138.876 96.1135 136.927 93.8326 135.65 91.1725C133.85 82.2139 139.373 72.2508 150 70.6723L180.578 66.0802L176.068 62.5788L162.181 51.7711C160.992 50.8502 159.999 49.6998 159.262 48.3886C158.953 46.1688 159.314 43.9072 160.299 41.8937C161.284 39.8806 162.848 38.2073 164.791 37.0889C166.733 35.9704 168.965 35.4574 171.201 35.6161C173.437 35.7744 175.574 36.5973 177.339 37.9786L202.111 57.2488C204.137 58.8047 205.775 60.8084 206.896 63.1036C208.585 71.7629 203.182 81.2873 193.05 82.8084Z"/><path stroke="#000" stroke-miterlimit="10" d="M172.468 202.612C172.468 202.612 171.615 195.109 168.725 192.464"/><path stroke="#000" stroke-miterlimit="10" d="M136.745 175.68C139.536 174.309 142.583 173.538 145.691 173.418C148.798 173.298 151.896 173.831 154.785 174.983C155.734 175.333 156.763 175.403 157.751 175.185C158.739 174.967 159.643 174.47 160.357 173.753L166.068 168.16"/><path stroke="#000" stroke-miterlimit="10" d="M154.9 207.552L159.668 209.696C159.774 209.74 159.888 209.761 160.003 209.758C160.118 209.755 160.23 209.728 160.334 209.678C160.437 209.629 160.53 209.558 160.604 209.471C160.679 209.383 160.734 209.282 160.767 209.171L161.517 207.474"/><path stroke="#000" stroke-miterlimit="10" d="M155.679 198.081C156.078 198.998 156.217 200.008 156.08 200.999C155.942 201.99 155.534 202.924 154.9 203.698"/><path stroke="#000" stroke-miterlimit="10" d="M166.494 213.001C167.245 211.89 167.241 209.204 167.048 208.126C166.925 207.441 165.773 207.196 165.65 207.884C165.314 209.807 163.145 212.763 161.14 213.001"/><path stroke="#000" stroke-miterlimit="10" d="M156.868 205.753C160.248 205.753 162.989 203.012 162.989 199.631C162.989 196.25 160.248 193.51 156.868 193.51C153.487 193.51 150.746 196.25 150.746 199.631C150.746 203.012 153.487 205.753 156.868 205.753Z"/><path stroke="#000" stroke-miterlimit="10" d="M154.818 205.395L153.727 208.462C152.97 208.192 152.167 208.074 151.364 208.115C150.561 208.155 149.774 208.354 149.048 208.699C148.321 209.044 147.67 209.528 147.132 210.125C146.593 210.722 146.177 211.419 145.908 212.177"/><path fill="#fff" d="M156.868 204.813C159.73 204.813 162.05 202.493 162.05 199.631C162.05 196.769 159.73 194.448 156.868 194.448C154.005 194.448 151.685 196.769 151.685 199.631C151.685 202.493 154.005 204.813 156.868 204.813Z" opacity=".53"/><path stroke="#000" stroke-miterlimit="10" d="M144.498 206.807C146.425 205.642 147.983 203.937 148.446 201.616C148.832 199.644 148.29 197.295 147.827 195.339C147.382 193.295 146.727 191.303 145.871 189.394C148.848 189.94 151.893 190.011 154.891 189.603C156.29 189.447 162.964 186.897 158.959 185.655C157.325 185.212 155.735 184.623 154.207 183.896C153.026 183.285 150.955 182.096 150.882 180.587C150.877 180.18 150.99 179.779 151.208 179.435C151.427 179.091 151.741 178.817 152.112 178.648C152.663 178.399 153.264 178.275 153.869 178.286C154.474 178.296 155.07 178.441 155.613 178.709C156.522 179.137 157.354 179.713 158.073 180.415C159.344 181.645 160.037 182.875 162.03 182.559C163.233 182.3 164.397 181.886 165.494 181.329C166.787 180.738 167.842 179.726 168.487 178.459C169.479 176.151 166.109 173.949 164.281 173.289C163.265 172.89 162.154 172.799 161.087 173.027"/><path stroke="#000" stroke-miterlimit="10" d="M193.05 82.8084L165.076 86.9946L169.951 90.4304L176.257 94.8585C177.495 95.6969 178.553 96.7736 179.37 98.0253C180.187 99.2771 180.747 100.679 181.016 102.15C181.285 103.62 181.259 105.129 180.939 106.59C180.618 108.05 180.01 109.432 179.15 110.654C178.29 111.877 177.194 112.916 175.928 113.71C174.661 114.505 173.25 115.039 171.775 115.282C170.299 115.525 168.791 115.472 167.337 115.125C165.882 114.779 164.512 114.146 163.305 113.264L141.308 97.79C138.88 96.1135 136.931 93.8326 135.654 91.1725C130.976 81.4595 136.445 68.5239 148.668 66.6994L172.927 63.0667L176.068 62.5788L162.181 51.7711C161.015 50.8638 160.039 49.7354 159.31 48.4509C158.58 47.1664 158.11 45.7502 157.927 44.284C157.745 42.8183 157.852 41.3304 158.244 39.9056C158.637 38.4812 159.306 37.1479 160.213 35.9819C161.121 34.8162 162.249 33.8404 163.534 33.1102C164.818 32.3804 166.234 31.9105 167.7 31.7281C169.167 31.5452 170.654 31.653 172.079 32.0454C173.503 32.4374 174.836 33.1065 176.003 34.0138L200.775 53.284C203.946 55.6957 206.119 59.1893 206.88 63.0995C208.586 71.7629 203.182 81.2873 193.05 82.8084Z"/><path fill="#D7E8F0" d="M131.648 130.365L131.378 123.219L128.208 126.466C127.671 127.016 126.937 127.329 126.168 127.339C125.4 127.348 124.659 127.052 124.108 126.515C123.559 125.978 123.245 125.244 123.236 124.476C123.227 123.707 123.523 122.966 124.059 122.415L129.738 116.618C130.323 116.019 131.071 115.605 131.889 115.427C132.707 115.249 133.56 115.314 134.341 115.616C135.122 115.918 135.797 116.442 136.284 117.123C136.77 117.805 137.045 118.614 137.077 119.451L137.343 126.741L139.68 124.105C139.933 123.818 140.239 123.585 140.583 123.418C140.925 123.251 141.298 123.153 141.679 123.13C142.06 123.107 142.441 123.16 142.802 123.285C143.163 123.41 143.495 123.605 143.78 123.859C144.066 124.111 144.299 124.418 144.467 124.761C144.634 125.103 144.732 125.476 144.755 125.857C144.778 126.237 144.726 126.619 144.602 126.98C144.478 127.34 144.283 127.673 144.03 127.959L139.426 133.153C138.838 133.824 138.063 134.302 137.2 134.525C136.337 134.749 135.427 134.708 134.588 134.407C133.749 134.106 133.02 133.56 132.496 132.839C131.971 132.118 131.676 131.256 131.648 130.365Z"/><path fill="#D7E8F0" d="M155.404 143.256L158.778 142.502L156.954 141.272C156.645 141.063 156.43 140.741 156.358 140.376C156.286 140.01 156.362 139.63 156.568 139.32C156.777 139.011 157.099 138.797 157.465 138.725C157.831 138.654 158.21 138.731 158.52 138.939L161.775 141.116C162.113 141.341 162.376 141.66 162.534 142.034C162.691 142.408 162.736 142.82 162.661 143.219C162.586 143.618 162.396 143.986 162.114 144.278C161.832 144.569 161.47 144.771 161.074 144.859L157.618 145.638L159.082 146.52C159.239 146.615 159.377 146.74 159.486 146.888C159.596 147.037 159.675 147.205 159.719 147.385C159.763 147.564 159.772 147.749 159.744 147.932C159.716 148.114 159.653 148.289 159.557 148.447C159.365 148.765 159.054 148.995 158.693 149.085C158.332 149.175 157.95 149.118 157.63 148.927L154.76 147.192C154.391 146.972 154.097 146.645 153.916 146.255C153.734 145.865 153.674 145.43 153.744 145.005C153.813 144.581 154.009 144.187 154.305 143.875C154.601 143.563 154.984 143.348 155.404 143.256Z"/><path fill="#D7E8F0" d="M146.872 162.965L147.146 160.71L145.986 161.571C145.889 161.643 145.779 161.696 145.661 161.725C145.543 161.755 145.421 161.761 145.301 161.744C145.181 161.726 145.066 161.685 144.962 161.623C144.858 161.561 144.767 161.479 144.695 161.382C144.549 161.185 144.487 160.939 144.523 160.697C144.558 160.455 144.688 160.237 144.883 160.091L146.933 158.553C147.147 158.394 147.402 158.301 147.668 158.285C147.934 158.27 148.199 158.333 148.429 158.467C148.66 158.6 148.846 158.799 148.965 159.037C149.084 159.275 149.13 159.543 149.098 159.808L148.819 162.112L149.684 161.398C149.778 161.321 149.886 161.264 150.002 161.228C150.118 161.193 150.24 161.181 150.36 161.192C150.481 161.204 150.599 161.24 150.706 161.297C150.812 161.354 150.907 161.432 150.984 161.526C151.061 161.619 151.119 161.727 151.154 161.843C151.19 161.959 151.202 162.081 151.19 162.202C151.178 162.323 151.143 162.439 151.086 162.546C151.028 162.653 150.951 162.748 150.857 162.825L149.151 164.227C148.933 164.401 148.668 164.506 148.39 164.529C148.112 164.553 147.834 164.493 147.59 164.357C147.346 164.223 147.147 164.018 147.019 163.77C146.892 163.522 146.84 163.242 146.872 162.965Z"/><path fill="#353642" d="M280.558 150.73L280.385 151.021C280.255 150.939 280.118 150.868 279.975 150.808L280.558 150.73Z"/></svg>