<svg width="424" height="322" viewBox="0 0 424 322" fill="none" xmlns="http://www.w3.org/2000/svg">
<path d="M289.829 289.837L280.574 298.573C280.333 298.801 280.141 299.075 280.01 299.38C279.878 299.684 279.811 300.012 279.81 300.344V314.26C279.81 314.865 280.035 315.449 280.442 315.897C280.849 316.344 281.409 316.625 282.012 316.682L300.228 318.452L310.271 308.972C310.514 308.745 310.707 308.471 310.839 308.166C310.971 307.862 311.039 307.533 311.039 307.201V293.2C311.04 292.593 310.813 292.008 310.404 291.558C309.995 291.11 309.433 290.83 308.828 290.774L291.726 289.186C291.382 289.154 291.035 289.196 290.708 289.308C290.381 289.42 290.081 289.601 289.829 289.837Z" fill="#3FBDF1"/>
<path d="M288.86 287.41L277.997 297.663C277.714 297.931 277.489 298.253 277.335 298.611C277.181 298.968 277.102 299.354 277.103 299.743V316.072C277.102 316.782 277.366 317.467 277.843 317.993C278.32 318.518 278.977 318.847 279.683 318.915L301.062 320.995L312.852 309.865C313.135 309.598 313.36 309.276 313.514 308.918C313.668 308.56 313.747 308.175 313.746 307.786V291.354C313.746 290.642 313.479 289.956 313 289.43C312.52 288.904 311.861 288.576 311.151 288.511L291.085 286.637C290.68 286.6 290.272 286.65 289.889 286.783C289.505 286.916 289.154 287.13 288.86 287.41Z" fill="#3FBDF1"/>
<path d="M345.917 196.688V210.684C345.917 211.016 345.849 211.344 345.717 211.648C345.586 211.953 345.394 212.227 345.153 212.455L335.101 221.936L316.875 220.165C316.349 220.118 315.853 219.893 315.47 219.528C318.482 219.163 321.016 217.762 321.794 216.249C322.988 213.907 322.67 209.823 317.578 209.111C316.593 208.979 315.617 208.778 314.66 208.511V203.822C314.659 203.491 314.727 203.164 314.858 202.86C314.989 202.556 315.182 202.283 315.423 202.056L324.675 193.311C324.926 193.081 325.222 192.904 325.544 192.793C325.866 192.681 326.208 192.638 326.548 192.665L343.65 194.257C344.266 194.299 344.843 194.573 345.264 195.025C345.685 195.476 345.918 196.071 345.917 196.688Z" fill="#3FBDF1"/>
<path d="M348.629 194.842V211.269C348.628 211.661 348.548 212.048 348.392 212.407C348.237 212.767 348.01 213.09 347.725 213.359L335.945 224.479L314.566 222.404C313.859 222.335 313.203 222.005 312.725 221.478C312.248 220.952 311.984 220.266 311.985 219.556V219.49C313.148 219.676 314.332 219.688 315.498 219.528C318.51 219.162 321.044 217.762 321.822 216.249C323.016 213.907 322.698 209.822 317.606 209.11C316.621 208.978 315.645 208.778 314.688 208.51C312.402 207.813 312.262 207.049 312.262 207.049L311.981 207.227V203.246C311.977 202.857 312.055 202.472 312.208 202.115C312.361 201.757 312.587 201.436 312.871 201.17L323.738 190.912C324.033 190.634 324.384 190.421 324.767 190.288C325.151 190.154 325.558 190.104 325.963 190.139L346.029 192.013C346.736 192.08 347.392 192.407 347.872 192.929C348.352 193.451 348.622 194.133 348.629 194.842Z" fill="#3FBDF1"/>
<path d="M349.304 239.094L338.366 249.399C338.081 249.668 337.854 249.992 337.698 250.352C337.543 250.713 337.462 251.1 337.462 251.492V267.938C337.461 268.654 337.727 269.345 338.208 269.874C338.688 270.405 339.349 270.736 340.062 270.805L361.609 272.899L373.483 261.694C373.768 261.426 373.995 261.101 374.151 260.741C374.306 260.381 374.387 259.993 374.387 259.601V243.066C374.388 242.348 374.12 241.656 373.636 241.126C373.153 240.595 372.488 240.265 371.773 240.199L351.566 238.325C351.156 238.284 350.742 238.331 350.351 238.464C349.961 238.596 349.603 238.811 349.304 239.094Z" fill="#3FBDF1"/>
<path d="M348.156 236.227L335.317 248.345C334.983 248.66 334.717 249.041 334.535 249.463C334.353 249.885 334.259 250.339 334.258 250.799V270.098C334.259 270.937 334.572 271.747 335.137 272.368C335.701 272.99 336.477 273.379 337.312 273.461L362.578 275.915L376.509 262.762C376.844 262.448 377.111 262.067 377.294 261.645C377.475 261.223 377.569 260.767 377.568 260.308V240.888C377.562 240.048 377.243 239.241 376.674 238.623C376.105 238.005 375.326 237.622 374.49 237.548L350.774 235.342C350.3 235.297 349.822 235.353 349.371 235.505C348.92 235.658 348.506 235.904 348.156 236.227Z" fill="#3FBDF1"/>
<path d="M378.954 249.136L367.572 259.881C367.276 260.161 367.04 260.499 366.879 260.874C366.718 261.248 366.635 261.652 366.635 262.059V279.17C366.635 279.915 366.912 280.633 367.413 281.185C367.913 281.736 368.601 282.082 369.342 282.154L391.747 284.332L404.099 272.678C404.395 272.398 404.63 272.06 404.791 271.686C404.952 271.311 405.035 270.908 405.035 270.5V253.267C405.034 252.521 404.754 251.801 404.251 251.249C403.748 250.698 403.057 250.353 402.314 250.283L381.287 248.321C380.863 248.282 380.434 248.335 380.032 248.475C379.63 248.616 379.262 248.841 378.954 249.136Z" fill="#3FBDF1"/>
<path d="M377.769 246.153L364.41 258.763C364.062 259.092 363.785 259.489 363.596 259.928C363.407 260.368 363.309 260.842 363.309 261.321V281.406C363.309 282.279 363.633 283.12 364.219 283.766C364.806 284.412 365.612 284.817 366.48 284.9L392.758 287.458L407.279 273.771C407.627 273.442 407.904 273.045 408.093 272.606C408.282 272.166 408.38 271.692 408.38 271.214V251.002C408.379 250.126 408.051 249.282 407.462 248.635C406.872 247.988 406.061 247.584 405.19 247.503L380.509 245.207C380.011 245.161 379.51 245.222 379.037 245.385C378.565 245.548 378.132 245.81 377.769 246.153Z" fill="#3FBDF1"/>
<path d="M346.081 261.553L330.122 276.618C329.706 277.01 329.374 277.483 329.148 278.008C328.921 278.533 328.805 279.1 328.806 279.672V303.664C328.81 304.705 329.2 305.708 329.899 306.48C330.599 307.251 331.559 307.736 332.596 307.842L364.007 310.896L381.339 294.544C381.754 294.151 382.084 293.677 382.31 293.152C382.537 292.627 382.654 292.062 382.655 291.49V267.348C382.65 266.303 382.258 265.296 381.553 264.524C380.849 263.752 379.882 263.269 378.842 263.169L349.36 260.425C348.765 260.369 348.165 260.441 347.599 260.636C347.034 260.831 346.516 261.144 346.081 261.553Z" fill="#3FBDF1"/>
<path d="M344.409 257.371L325.672 275.049C325.184 275.51 324.795 276.065 324.529 276.682C324.264 277.298 324.126 277.962 324.126 278.633V306.789C324.126 308.013 324.581 309.194 325.403 310.101C326.226 311.008 327.358 311.576 328.576 311.693L365.436 315.276L385.765 296.072C386.253 295.611 386.642 295.056 386.908 294.44C387.173 293.823 387.31 293.16 387.31 292.488V264.173C387.311 262.946 386.853 261.762 386.027 260.855C385.2 259.948 384.064 259.382 382.842 259.269L348.259 256.051C347.56 255.984 346.855 256.066 346.191 256.295C345.527 256.522 344.919 256.889 344.409 257.371Z" fill="#3FBDF1"/>
<path d="M233.498 55.0959C246.614 45.1469 266.479 36.2142 293.057 40.8468" stroke="#CCDDE2" stroke-width="1.5" stroke-miterlimit="10"/>
<path d="M240.159 62.872C251.832 54.7638 267.73 48.5386 288.462 49.8736" stroke="white" stroke-width="1.5" stroke-linecap="round" stroke-linejoin="round"/>
<path d="M331.771 58.675C344.587 70.5118 351.322 87.1966 353.786 104.2C355.419 115.509 355.433 126.992 353.829 138.305C353.706 138.969 353.623 139.64 353.58 140.314C354.41 139.941 355.268 139.635 356.147 139.401C366.743 136.68 378.013 136.239 388.266 140.427C396.796 143.907 404.056 150.011 409.602 157.29C417.017 167.082 421.501 178.776 422.535 191.015C424.409 214.436 413.209 233.322 396.412 246.644L396.22 246.798" stroke="#CCDDE2" stroke-width="1.5" stroke-linejoin="round"/>
<path d="M329.724 69.946C346.334 89.4647 347.388 115.71 345.922 140.723C345.889 141.271 345.683 142.723 345.491 144.199" stroke="white" stroke-width="1.5" stroke-linecap="round" stroke-linejoin="round"/>
<path d="M352.255 147.023C364.508 145.805 378.111 145.444 388.533 151.533C398.838 157.557 406.511 167.295 410.928 178.322C415.945 190.838 416.75 205.49 411.143 217.959C404.853 231.917 394.435 241.909 382.645 251.263C382.612 251.286 384.05 251.605 385.549 251.942" stroke="white" stroke-width="1.5" stroke-linecap="round" stroke-linejoin="round"/>
<path d="M139.02 290.91C136.396 291.855 133.649 292.412 130.864 292.564C91.3165 294.995 54.2043 273.359 28.0669 249.137C26.8724 248.032 25.7248 246.898 24.6194 245.751" stroke="black" stroke-width="1.5" stroke-miterlimit="10"/>
<path d="M177.064 275.372C179.35 278.866 184.713 277.471 184.713 277.471C214.626 271.334 205.899 231.73 180.596 213.35" stroke="black" stroke-width="1.5" stroke-miterlimit="10"/>
<path d="M211.904 180.87C201.06 191.269 191.378 197.579 182.305 201.317L186.053 175.118C145.184 150.677 134.307 177.929 134.307 177.929C132.743 180.486 132.017 210.83 131.811 221.187C131.759 221.187 130.461 221.187 130.405 221.187C104.643 219.81 81.3579 196.244 81.3579 196.244C94.3751 163.558 140.846 123.172 140.846 123.172C173.101 100.552 197.721 108.159 197.721 108.159C190.137 108.707 200.47 129.706 200.47 129.706C215.698 142.929 221.319 123.181 221.319 123.181C236.055 158.452 211.904 180.87 211.904 180.87Z" fill="#353642"/>
<path d="M238.552 165.614C238.552 165.614 235.878 199.977 212.63 198.838C212.63 198.838 203.913 189.409 204.133 182.238C204.354 175.066 223.807 130.282 223.807 130.282C223.807 130.282 236.416 161.731 238.552 165.614Z" fill="#353642"/>
<path d="M26.7556 247.774V247.891L28.7417 249.764C28.7417 249.764 27.9173 250.528 26.7556 251.638C25.2427 253.043 23.1582 254.983 21.6031 256.463C18.9098 259.02 5.13846 272.787 1.46143 260.266C2.18746 255.887 4.96983 246.879 15.6356 235.937C30.8027 220.348 28.6902 222.283 32.4984 222.54C34.2549 222.653 36.5314 223.683 38.48 224.765C33.5523 226.817 26.0811 232.508 26.7556 247.774Z" fill="#3FBDF1"/>
<path d="M42.5973 227.355C42.5973 227.355 27.6878 228.76 26.7556 247.773V247.89C26.6948 249.061 26.6948 250.293 26.7556 251.605C25.2427 253.01 23.1582 254.949 21.6031 256.429C18.9098 258.987 5.13846 272.754 1.46143 260.233C2.18746 255.853 4.96983 246.846 15.6356 235.904C30.8027 220.315 28.6902 222.25 32.4984 222.507C34.2549 222.62 36.5314 223.65 38.48 224.732C39.8965 225.535 41.2708 226.411 42.5973 227.355Z" fill="#3FBDF1"/>
<path d="M182.207 202.108C199.07 191.536 226.125 177.999 226.06 147.608C226.06 140.39 225.315 134.493 223.718 128.909L223.563 128.375C223.005 126.568 222.253 124.826 221.319 123.18" stroke="black" stroke-width="1.5" stroke-miterlimit="10"/>
<path d="M100.867 254.714C96.9656 251.393 93.4431 248.189 91.101 245.978L91.0636 245.941C89.218 244.222 88.1126 243.13 88.1126 243.13C86.5434 240.99 85.1475 238.915 83.8969 236.919C83.8725 236.889 83.8547 236.854 83.8453 236.816C74.7488 222.108 74.2007 210.388 82.6743 193.146C82.7235 193.022 82.7797 192.899 82.8429 192.781C83.7798 190.907 84.815 188.949 85.9579 186.926C102.919 156.947 152.683 101.089 195.613 108.153" stroke="black" stroke-width="1.5" stroke-miterlimit="10"/>
<path d="M28.081 249.123C19.1812 260.168 12.9373 264.088 8.71691 264.955C4.49652 265.822 0.608706 262.079 1.22232 257.751C3.18028 244.073 19.0969 227.712 26.9287 220.395C28.1283 219.267 29.6676 218.567 31.3065 218.406C32.9455 218.245 34.5915 218.631 35.9878 219.505L39.9084 221.945C51.4923 229.168 63.5819 236.213 75.7372 242.705C86.8807 248.664 99.125 256.322 112.315 254.589" stroke="black" stroke-width="1.5" stroke-miterlimit="10"/>
<path d="M187.716 146.544C187.867 151.981 187.728 157.423 187.299 162.845C185.814 182.467 181.804 201.822 179.598 221.364C178.193 233.87 177.331 246.433 177.162 259.019C177.022 269.587 176.994 277.648 177.307 288.215C177.509 295.017 181.355 299.359 187.21 302.268C192.142 304.713 195.58 304.216 198.653 309.149C204.972 319.313 192.564 320.035 187.514 318.695C173.349 314.948 152.51 312.891 144.42 298.806C137.97 287.564 137.151 280.215 135.52 267.652C133.741 254.04 132.242 240.372 131.923 226.638C131.431 204.524 133.146 168.953 141.071 148.039" stroke="black" stroke-width="1.5" stroke-miterlimit="10"/>
<path d="M364.653 251.427L364.578 251.502L362.822 251.324L362.887 251.263L364.653 251.427Z" fill="#3FBDF1"/>
<path d="M336.788 249.033L351.219 250.462L336.788 249.15V249.033Z" fill="#3FBDF1"/>
<path d="M364.653 251.426L364.579 251.501L362.822 251.323L362.63 251.501L361.792 251.426L361.984 251.248L362.044 251.183L362.888 251.262L364.653 251.426Z" fill="#3FBDF1"/>
<path d="M364.653 251.426L364.578 251.501L362.822 251.323L361.983 251.248L362.044 251.183L362.887 251.262L364.653 251.426Z" fill="#3FBDF1"/>
<path d="M327.803 276.486L349.14 278.571L327.803 276.655V276.486Z" fill="#3FBDF1"/>
<path d="M369.014 279.992L368.902 280.104L366.302 279.842L366.021 280.104L364.78 279.992L365.061 279.729L365.155 279.636L366.4 279.748L369.014 279.992Z" fill="#3FBDF1"/>
<path d="M369.014 279.992L368.902 280.104L366.302 279.842L365.061 279.729L365.155 279.636L366.401 279.748L369.014 279.992Z" fill="#3FBDF1"/>
<path d="M223.554 128.371C223.554 128.371 237.335 174.341 253.453 185.049C268.639 195.134 289.028 190.759 305.043 185.251C309.465 183.728 313.911 182.243 318.627 182.314C325.265 182.407 338.793 183.878 340.549 191.602" stroke="black" stroke-width="1.5" stroke-miterlimit="10"/>
<path d="M205.44 186.701C229.222 234.859 271.388 225.252 293.094 216.548C295.061 215.748 297.193 215.443 299.305 215.658C301.404 215.888 303.053 216.778 305.006 217.532C308.327 218.844 312.079 219.785 315.681 219.542C319.283 219.298 323.672 216.553 322.155 212.305C320.946 208.918 317.18 209.162 314.295 208.511C311.409 207.859 310.716 203.653 313.414 202.29C313.447 202.28 313.478 202.262 313.503 202.238" stroke="black" stroke-width="1.5" stroke-miterlimit="10"/>
<path d="M313.746 288.758L301.062 300.745L277.103 298.515L289.801 286.533L313.746 288.758Z" stroke="black" stroke-width="1.5" stroke-linecap="square" stroke-linejoin="round"/>
<path d="M301.062 300.746V321L277.103 318.672V298.516L301.062 300.746Z" stroke="black" stroke-width="1.5" stroke-linecap="square" stroke-linejoin="round"/>
<path d="M313.747 288.758V309.026L301.062 320.999V300.745L313.747 288.758Z" stroke="black" stroke-width="1.5" stroke-linecap="square" stroke-linejoin="round"/>
<path d="M387.507 259.877L365.801 280.389L324.815 276.571L334.408 267.512V272.622L362.63 275.372L377.567 261.263V258.945L387.507 259.877Z" stroke="black" stroke-width="1.5" stroke-linecap="square" stroke-linejoin="round"/>
<path d="M365.801 280.384V315.032L324.815 311.051V276.576L365.801 280.384Z" stroke="black" stroke-width="1.5" stroke-linecap="square" stroke-linejoin="round"/>
<path d="M387.503 259.882V294.553L365.801 315.032V280.384L387.503 259.882Z" stroke="black" stroke-width="1.5" stroke-linecap="square" stroke-linejoin="round"/>
<path d="M377.568 237.393L362.63 251.502L334.408 248.883L349.36 234.77L377.568 237.393Z" stroke="black" stroke-width="1.5" stroke-linecap="square" stroke-linejoin="round"/>
<path d="M362.63 256.682V251.501L334.408 248.883V270.664" stroke="black" stroke-width="1.5" stroke-linecap="square" stroke-linejoin="round"/>
<path d="M377.568 237.394V261.264L362.63 275.373V251.503L377.568 237.394Z" stroke="black" stroke-width="1.5" stroke-linecap="square" stroke-linejoin="round"/>
<path d="M377.984 245.797L378.626 245.192L408.436 247.965L392.646 262.894L388.219 262.477" stroke="black" stroke-width="1.5" stroke-linecap="square" stroke-linejoin="round"/>
<path d="M387.957 262.449L392.646 262.894V288.099L387.507 287.602" stroke="black" stroke-width="1.5" stroke-linecap="square" stroke-linejoin="round"/>
<path d="M408.431 247.964V273.193L392.641 288.098V262.883L408.431 247.964Z" stroke="black" stroke-width="1.5" stroke-linecap="square" stroke-linejoin="round"/>
<path d="M348.625 192.345L335.94 204.332L311.981 202.102L324.679 190.116L348.625 192.345Z" stroke="black" stroke-width="1.5" stroke-linecap="square" stroke-linejoin="round"/>
<path d="M311.976 219.425V222.264L335.935 224.592V204.337L313.503 202.248L311.976 202.108V203.864V205.686" stroke="black" stroke-width="1.5" stroke-linecap="square" stroke-linejoin="round"/>
<path d="M348.625 192.346V212.614L335.94 224.587V204.333L348.625 192.346Z" stroke="black" stroke-width="1.5" stroke-linecap="square" stroke-linejoin="round"/>
<path d="M226.06 105.498C228.238 108.416 232.06 108.997 234.594 106.987" stroke="black" stroke-width="1.5" stroke-miterlimit="10"/>
<path d="M260.689 76.4147C259.751 78.7502 258.101 80.7307 255.974 82.076C253.847 83.4208 251.351 84.0625 248.839 83.9093C248.783 82.8826 248.479 81.8844 247.953 81.0005C245.7 77.3281 243.583 83.2535 235.423 77.5249C224.121 69.5619 218.945 72.3723 218.945 72.3723C218.476 72.6159 218.106 75.4358 217.98 75.9276C217.207 78.7849 216.439 81.6282 215.638 84.4808C215.169 86.2233 214.701 87.9517 214.232 89.6802C214.112 89.3602 213.973 89.0473 213.816 88.7433C213.3 84.626 212.031 79.6702 207.422 81.0192C206.488 81.3101 205.635 81.8169 204.934 82.4994C201.52 85.8064 203.131 89.7457 205.698 92.87C206.317 93.8134 207.036 94.6865 207.843 95.4744C207.202 96.4112 204.588 100.159 204.588 100.159C204.316 100.533 198.531 91.5585 198.138 90.6123C197.682 88.3822 197.605 86.0907 197.908 83.8344C199.206 74.5598 204.611 64.3625 212.897 60.1983C214.958 59.1678 214.556 57.8094 214.949 56.0388C214.961 55.9358 215.007 55.8393 215.08 55.7653C215.153 55.6908 215.248 55.643 215.351 55.629C215.454 55.6149 215.559 55.636 215.649 55.688C215.739 55.7405 215.809 55.821 215.848 55.917C217.816 58.9242 223.662 59.5519 223.662 59.5519C243.733 57.5331 249.968 67.5758 253.855 69.7867C255.424 70.6547 257.241 70.9634 259.008 70.6626C259.02 71.2346 259.188 71.7924 259.495 72.2749C259.803 72.7574 260.237 73.1462 260.75 73.3982L260.507 74.335C260.33 75.0292 260.394 75.7622 260.689 76.4147Z" fill="#3FBDF1"/>
<path d="M248.825 83.9098C251.333 84.0625 253.825 83.4236 255.95 82.083C258.074 80.7424 259.724 78.7676 260.666 76.4386C261.033 75.5482 261.319 74.6263 261.519 73.6843L261.369 73.6422C261.153 73.5897 260.945 73.5092 260.75 73.4033C260.237 73.1508 259.803 72.762 259.496 72.2796C259.188 71.7971 259.02 71.2397 259.008 70.6678C258.993 70.3521 259.028 70.0359 259.111 69.731L260.324 65.2436C260.324 65.2436 256.263 67.3983 252.455 65.1967C248.647 62.9952 243.213 52.9806 222.261 54.9619C222.261 54.9619 217.657 54.5357 215.703 51.4723C215.663 51.3781 215.592 51.2999 215.502 51.2493C215.413 51.1992 215.309 51.18 215.208 51.194C215.106 51.2086 215.012 51.2559 214.94 51.3289C214.868 51.402 214.822 51.4966 214.809 51.5987C214.415 53.3693 213.553 54.531 211.497 55.5615C203.192 59.7304 197.782 69.9277 196.508 79.1975C196.029 83.068 196.588 86.9966 198.129 90.58C198.522 91.5168 204.307 100.501 204.579 100.126C204.579 100.126 207.192 96.3789 207.834 95.4421L207.989 95.236L207.787 95.0533C207.039 94.3628 206.337 93.6228 205.689 92.8377C203.122 89.7134 201.51 85.774 204.925 82.4671C205.626 81.7846 206.478 81.2773 207.412 80.9869C212.022 79.6379 213.291 84.5937 213.806 88.711C213.906 89.497 213.92 90.2919 213.848 91.0812L214.223 89.6759C214.692 87.9475 215.16 86.219 215.628 84.4766C216.411 81.6239 217.179 78.7807 217.97 75.9234C218.097 75.4315 218.486 72.6117 218.935 72.3681C218.935 72.3681 224.111 69.5857 235.414 77.5206C243.574 83.2493 245.691 77.3239 247.944 80.9963C248.471 81.8797 248.774 82.8779 248.829 83.9051C248.841 84.2349 248.832 84.5651 248.801 84.8934C248.808 84.937 248.808 84.981 248.801 85.0246C248.736 85.7413 248.642 86.4579 248.548 87.1559C247.612 93.8916 245.785 100.801 242.192 106.642C237.836 113.719 228.205 119.893 219.914 115.017C217.333 113.495 215.123 111.331 213.146 109.092" stroke="black" stroke-width="1.5" stroke-miterlimit="10"/>
<path d="M242.731 98.3102C243.248 97.3021 242.992 96.1381 242.159 95.7109C241.326 95.2833 240.231 95.7536 239.714 96.7616C239.196 97.7696 239.452 98.9336 240.286 99.3613C241.118 99.7889 242.214 99.3182 242.731 98.3102Z" fill="black"/>
<path d="M229.662 95.8894C230.179 94.8814 229.924 93.7179 229.09 93.2902C228.258 92.8625 227.162 93.3328 226.645 94.3408C226.128 95.3489 226.384 96.5129 227.217 96.9405C228.05 97.3682 229.145 96.8974 229.662 95.8894Z" fill="black"/>
<path d="M231.887 99.9796C231.887 99.9796 235.883 103.127 236.538 100.593C236.744 99.8109 238.997 92.204 238.997 92.204C238.997 92.204 243.101 89 248.094 92.588" stroke="black" stroke-width="1.5" stroke-miterlimit="10"/>
<path d="M234.524 89.2914C234.524 89.2914 228.004 84.6915 222.57 89.0665" stroke="black" stroke-width="1.5" stroke-miterlimit="10"/>
<path d="M202.887 97.994L199.505 108.899L195.641 108.173C193.21 112.229 196.344 125.34 200.489 129.719C212.317 142.254 219.591 127.785 219.591 127.785L221.319 123.166L223.825 116.487" stroke="black" stroke-width="1.5" stroke-miterlimit="10"/>
<path d="M305.329 64.5812C306.211 65.3729 306.916 66.3406 307.4 67.4217C307.884 68.5028 308.136 69.6733 308.14 70.8579V72.1976C308.143 73.1447 308.345 74.0806 308.732 74.9448C309.119 75.8091 309.682 76.5833 310.385 77.2171C311.089 77.8509 311.917 78.3305 312.817 78.6251C313.717 78.9202 314.668 79.0233 315.611 78.9287C319.11 78.5727 321.667 75.3922 321.667 71.8557V70.8533C321.664 69.6775 321.908 68.5145 322.381 67.4386C322.855 66.3621 323.548 65.3972 324.417 64.6047" stroke="#CCDDE2" stroke-width="1.5" stroke-linejoin="round"/>
<path d="M305.329 64.5812C306.211 65.3729 306.916 66.3406 307.4 67.4217C307.884 68.5028 308.136 69.6733 308.14 70.8579V72.1976C308.143 73.1447 308.345 74.0806 308.732 74.9448C309.119 75.8091 309.682 76.5833 310.385 77.2171C311.089 77.8509 311.917 78.3305 312.817 78.6251C313.717 78.9202 314.668 79.0233 315.611 78.9287C319.11 78.5727 321.667 75.3922 321.667 71.8557V70.8533C321.664 69.6775 321.908 68.5145 322.381 67.4386C322.855 66.3621 323.548 65.3972 324.417 64.6047" stroke="#CCDDE2" stroke-width="1.5" stroke-linejoin="round"/>
<path d="M305.329 64.5826C304.88 64.192 304.394 63.8468 303.877 63.5521C299.915 61.2785 296.755 57.8342 294.829 53.6925C292.903 49.5513 292.306 44.915 293.119 40.4206C293.933 35.9262 296.118 31.7938 299.373 28.5899C302.628 25.3864 306.795 23.2687 311.303 22.5272C315.81 21.7862 320.435 22.4579 324.545 24.4501C328.655 26.4422 332.048 29.6579 334.258 33.6548C336.468 37.6522 337.387 42.2352 336.889 46.7755C336.391 51.3158 334.5 55.5905 331.476 59.0132C331.428 59.0587 331.386 59.1088 331.349 59.1631C329.751 60.9182 327.888 62.412 325.827 63.5896C325.318 63.8721 324.847 64.2149 324.421 64.6107" stroke="#CCDDE2" stroke-width="1.5" stroke-linejoin="round"/>
<path d="M312.533 63.1404C311.105 60.5454 308.697 57.1073 307.001 54.6575C305.157 52.0592 303.651 49.237 302.519 46.2589C302.369 45.9375 302.311 45.5806 302.35 45.2283C302.374 45.0536 302.463 44.8944 302.602 44.7843C302.739 44.6747 302.915 44.6222 303.09 44.6381C303.404 44.699 303.559 45.0269 303.723 45.3127C304.396 46.6509 305.355 47.8247 306.533 48.7508C307.193 49.2614 308.13 49.6876 308.819 49.2192C309.028 49.0361 309.196 48.8108 309.311 48.5578C309.427 48.3053 309.487 48.0309 309.489 47.7531C309.696 45.7806 309.18 43.7997 308.037 42.179C307.568 41.5419 306.753 40.9237 306.093 41.3405C305.432 41.7574 305.624 42.7879 306.018 43.4812C306.717 44.766 307.671 45.8954 308.821 46.7994C309.971 47.7039 311.293 48.3648 312.707 48.7414C313.4 48.9738 314.149 48.9817 314.847 48.7648C315.235 48.5883 315.574 48.3199 315.834 47.9826C316.094 47.6454 316.268 47.25 316.342 46.8303C316.481 45.9872 316.409 45.1229 316.131 44.3149C315.747 43.0549 315.002 41.7668 313.751 41.3452C313.36 41.193 312.925 41.193 312.533 41.3452C312.273 41.4843 312.058 41.6942 311.911 41.9499C311.765 42.2057 311.693 42.498 311.704 42.7926C311.735 43.3823 311.916 43.9547 312.229 44.4555C312.955 45.7221 313.977 46.7938 315.208 47.5788C316.439 48.3634 317.842 48.8379 319.297 48.9616C320.269 49.0998 321.257 48.8637 322.061 48.3011C322.396 47.9901 322.667 47.6154 322.855 47.1985C323.045 46.7821 323.149 46.3319 323.162 45.8748C323.268 44.5037 322.881 43.1397 322.07 42.0291C321.906 41.8089 321.658 41.5607 321.391 41.6497C321.124 41.7387 321.049 42.0385 321.016 42.3055C320.895 43.3547 320.982 44.4175 321.275 45.4326C321.568 46.4472 322.059 47.3938 322.721 48.2168C323.452 49.1115 324.562 49.889 325.686 49.622C326.112 49.4923 326.493 49.2492 326.791 48.919C327.089 48.5892 327.292 48.1845 327.377 47.7484C327.539 46.8739 327.452 45.9713 327.124 45.144C326.722 45.3914 326.377 45.7225 326.114 46.1155C325.851 46.5085 325.677 46.9535 325.602 47.4205C325.396 48.3573 325.41 49.2942 325.251 50.231C324.37 55.4866 318.581 57.8333 317.456 62.8781" stroke="#CCDDE2" stroke-width="1.5" stroke-linejoin="round"/>
<path d="M314.875 14.3123L314.655 1" stroke="#CCDDE2" stroke-width="1.5" stroke-linejoin="round"/>
<path d="M289.483 26.698L280.269 17.0909" stroke="#CCDDE2" stroke-width="1.5" stroke-linejoin="round"/>
<path d="M340.357 27.2971L349.777 17.8867" stroke="#CCDDE2" stroke-width="1.5" stroke-linejoin="round"/>
<path d="M345.388 153.065C348.052 153.065 350.212 150.905 350.212 148.24C350.212 145.576 348.052 143.415 345.388 143.415C342.723 143.415 340.563 145.576 340.563 148.24C340.563 150.905 342.723 153.065 345.388 153.065Z" fill="#3FBDF1"/>
</svg>
