<svg width="352" height="262" viewBox="0 0 352 262" fill="none" xmlns="http://www.w3.org/2000/svg">
<path d="M211.276 61.5379L236.863 30.685L262.451 61.5379V181.014" stroke="#CCDDE2" stroke-width="1.01" stroke-miterlimit="10"/>
<g opacity="0.81">
<path opacity="0.81" d="M252.99 66.6945H246.114V73.5702H252.99V66.6945Z" stroke="#CCDDE2" stroke-width="1.01" stroke-miterlimit="10"/>
<path opacity="0.81" d="M239.987 66.6945H233.112V73.5702H239.987V66.6945Z" stroke="#CCDDE2" stroke-width="1.01" stroke-miterlimit="10"/>
<path opacity="0.81" d="M226.989 66.6945H220.113V73.5702H226.989V66.6945Z" stroke="#CCDDE2" stroke-width="1.01" stroke-miterlimit="10"/>
</g>
<g opacity="0.46">
<path opacity="0.46" d="M252.99 82.665H246.114V89.5407H252.99V82.665Z" stroke="#CCDDE2" stroke-width="1.01" stroke-miterlimit="10"/>
<path opacity="0.46" d="M239.987 82.665H233.112V89.5407H239.987V82.665Z" stroke="#CCDDE2" stroke-width="1.01" stroke-miterlimit="10"/>
<path opacity="0.46" d="M226.989 82.665H220.113V89.5407H226.989V82.665Z" stroke="#CCDDE2" stroke-width="1.01" stroke-miterlimit="10"/>
</g>
<g opacity="0.25">
<path opacity="0.25" d="M252.99 99.3098H246.114V106.186H252.99V99.3098Z" stroke="#CCDDE2" stroke-width="1.01" stroke-miterlimit="10"/>
<path opacity="0.25" d="M239.987 99.3098H233.112V106.186H239.987V99.3098Z" stroke="#CCDDE2" stroke-width="1.01" stroke-miterlimit="10"/>
<path opacity="0.25" d="M226.989 99.3098H220.113V106.186H226.989V99.3098Z" stroke="#CCDDE2" stroke-width="1.01" stroke-miterlimit="10"/>
</g>
<g opacity="0.25">
<path opacity="0.25" d="M252.99 113.61H246.114V120.486H252.99V113.61Z" stroke="#CCDDE2" stroke-width="1.01" stroke-miterlimit="10"/>
<path opacity="0.25" d="M239.987 113.61H233.112V120.486H239.987V113.61Z" stroke="#CCDDE2" stroke-width="1.01" stroke-miterlimit="10"/>
<path opacity="0.25" d="M226.989 113.61H220.113V120.486H226.989V113.61Z" stroke="#CCDDE2" stroke-width="1.01" stroke-miterlimit="10"/>
</g>
<path d="M271.971 162.287V17.3322H338.376V181.292" stroke="#CCDDE2" stroke-width="1.01" stroke-miterlimit="10"/>
<path d="M278.57 30.6858V39.1683H287.053V23.5995H278.57V30.6858ZM279.962 24.9918H285.656V30.6858H279.962V24.9918ZM279.962 32.082H285.656V37.7604H279.962V32.082Z" fill="#D7E8F0"/>
<path d="M293.53 30.6858V39.1683H302.009V23.5995H293.53V30.6858ZM294.923 24.9918H300.617V30.6858H294.923V24.9918ZM294.923 32.082H300.617V37.7604H294.923V32.082Z" fill="#D7E8F0"/>
<path d="M308.077 30.6858V39.1683H316.556V23.5995H308.077V30.6858ZM309.47 24.9918H315.164V30.6858H309.47V24.9918ZM309.47 32.082H315.164V37.7604H309.47V32.082Z" fill="#D7E8F0"/>
<path d="M321.77 23.5995V39.1683H330.249V23.5995H321.77ZM328.857 37.7604H323.163V32.082H328.857V37.7604ZM328.857 30.6741H323.163V24.9801H328.857V30.6741Z" fill="#D7E8F0"/>
<path d="M278.57 51.6288V60.1113H287.053V44.5425H278.57V51.6288ZM279.962 45.9348H285.656V51.6288H279.962V45.9348ZM279.962 53.0211H285.656V58.719H279.962V53.0211Z" fill="#D7E8F0"/>
<path d="M293.53 51.6288V60.1113H302.009V44.5425H293.53V51.6288ZM294.923 45.9348H300.617V51.6288H294.923V45.9348ZM294.923 53.0211H300.617V58.719H294.923V53.0211Z" fill="#D7E8F0"/>
<path d="M308.077 51.6288V60.1113H316.556V44.5425H308.077V51.6288ZM309.47 45.9348H315.164V51.6288H309.47V45.9348ZM309.47 53.0211H315.164V58.719H309.47V53.0211Z" fill="#D7E8F0"/>
<path d="M321.77 51.6288V60.1113H330.249V44.5425H321.77V51.6288ZM323.163 45.9348H328.857V51.6288H323.163V45.9348ZM323.163 53.0211H328.857V58.719H323.163V53.0211Z" fill="#D7E8F0"/>
<path d="M278.57 72.5714V81.05H287.053V65.4851H278.57V72.5714ZM279.962 66.8774H285.656V72.5714H279.962V66.8774ZM279.962 73.9676H285.656V79.6616H279.962V73.9676Z" fill="#D7E8F0"/>
<path d="M293.53 72.5714V81.05H302.009V65.4851H293.53V72.5714ZM294.923 66.8774H300.617V72.5714H294.923V66.8774ZM294.923 73.9676H300.617V79.6616H294.923V73.9676Z" fill="#D7E8F0"/>
<path d="M308.077 72.5714V81.05H316.556V65.4851H308.077V72.5714ZM309.47 66.8774H315.164V72.5714H309.47V66.8774ZM309.47 73.9676H315.164V79.6616H309.47V73.9676Z" fill="#D7E8F0"/>
<path d="M321.77 72.5714V81.05H330.249V65.4851H321.77V72.5714ZM323.163 66.8774H328.857V72.5714H323.163V66.8774ZM323.163 73.9676H328.857V79.6616H323.163V73.9676Z" fill="#D7E8F0"/>
<path d="M278.57 93.5296V102.008H287.053V86.4277H278.57V93.5296ZM279.962 87.8356H285.656V93.5296H279.962V87.8356ZM279.962 94.9219H285.656V100.616H279.962V94.9219Z" fill="#D7E8F0"/>
<path d="M293.53 93.5296V102.008H302.009V86.4277H293.53V93.5296ZM294.923 87.8356H300.617V93.5296H294.923V87.8356ZM294.923 94.9219H300.617V100.616H294.923V94.9219Z" fill="#D7E8F0"/>
<path d="M308.077 93.5296V102.008H316.556V86.4277H308.077V93.5296ZM309.47 87.8356H315.164V93.5296H309.47V87.8356ZM309.47 94.9219H315.164V100.616H309.47V94.9219Z" fill="#D7E8F0"/>
<path d="M321.77 93.5296V102.008H330.249V86.4277H321.77V93.5296ZM323.163 87.8356H328.857V93.5296H323.163V87.8356ZM323.163 94.9219H328.857V100.616H323.163V94.9219Z" fill="#D7E8F0"/>
<path d="M278.57 114.457V122.939H287.053V107.37H278.57V114.457ZM279.962 108.767H285.656V114.457H279.962V108.767ZM279.962 115.853H285.656V121.547H279.962V115.853Z" fill="#D7E8F0"/>
<path d="M293.53 114.457V122.939H302.009V107.37H293.53V114.457ZM294.923 108.767H300.617V114.457H294.923V108.767ZM294.923 115.853H300.617V121.547H294.923V115.853Z" fill="#D7E8F0"/>
<path d="M308.077 114.457V122.939H316.556V107.37H308.077V114.457ZM309.47 108.767H315.164V114.457H309.47V108.767ZM309.47 115.853H315.164V121.547H309.47V115.853Z" fill="#D7E8F0"/>
<path d="M321.77 114.457V122.939H330.249V107.37H321.77V114.457ZM323.163 108.767H328.857V114.457H323.163V108.767ZM323.163 115.853H328.857V121.547H323.163V115.853Z" fill="#D7E8F0"/>
<path d="M119.977 181.335V115.701C119.976 106.552 116.779 97.6897 110.936 90.6479C109.906 89.4061 108.615 88.4066 107.155 87.7206C105.694 87.0346 104.1 86.6793 102.487 86.6793C100.874 86.6793 99.28 87.0346 97.8195 87.7206C96.3589 88.4066 95.0676 89.4061 94.0376 90.6479C88.1954 97.6897 84.9978 106.552 84.9974 115.701V181.456" stroke="#CCDDE2" stroke-width="1.01" stroke-miterlimit="10"/>
<g opacity="0.81">
<path opacity="0.81" d="M91.4675 109.762H96.167V105.063H91.4675V109.762Z" stroke="#CCDDE2" stroke-width="1.01" stroke-miterlimit="10"/>
<path opacity="0.81" d="M100.348 109.762H105.047V105.063H100.348V109.762Z" stroke="#CCDDE2" stroke-width="1.01" stroke-miterlimit="10"/>
<path opacity="0.81" d="M109.232 109.762H113.932V105.063H109.232V109.762Z" stroke="#CCDDE2" stroke-width="1.01" stroke-miterlimit="10"/>
</g>
<g opacity="0.46">
<path opacity="0.46" d="M91.4675 120.678H96.167V115.978H91.4675V120.678Z" stroke="#CCDDE2" stroke-width="1.01" stroke-miterlimit="10"/>
<path opacity="0.46" d="M100.348 120.678H105.047V115.978H100.348V120.678Z" stroke="#CCDDE2" stroke-width="1.01" stroke-miterlimit="10"/>
<path opacity="0.46" d="M109.232 120.678H113.932V115.978H109.232V120.678Z" stroke="#CCDDE2" stroke-width="1.01" stroke-miterlimit="10"/>
</g>
<g opacity="0.25">
<path opacity="0.25" d="M91.4675 132.055H96.167V127.355H91.4675V132.055Z" stroke="#CCDDE2" stroke-width="1.01" stroke-miterlimit="10"/>
<path opacity="0.25" d="M100.348 132.055H105.047V127.355H100.348V132.055Z" stroke="#CCDDE2" stroke-width="1.01" stroke-miterlimit="10"/>
<path opacity="0.25" d="M109.232 132.055H113.932V127.355H109.232V132.055Z" stroke="#CCDDE2" stroke-width="1.01" stroke-miterlimit="10"/>
</g>
<g opacity="0.25">
<path opacity="0.25" d="M91.4675 141.828H96.167V137.128H91.4675V141.828Z" stroke="#CCDDE2" stroke-width="1.01" stroke-miterlimit="10"/>
<path opacity="0.25" d="M100.348 141.828H105.047V137.128H100.348V141.828Z" stroke="#CCDDE2" stroke-width="1.01" stroke-miterlimit="10"/>
<path opacity="0.25" d="M109.232 141.828H113.932V137.128H109.232V141.828Z" stroke="#CCDDE2" stroke-width="1.01" stroke-miterlimit="10"/>
</g>
<path d="M33.1079 181.635V71.3273H78.4961V181.479" stroke="#CCDDE2" stroke-width="1.01" stroke-miterlimit="10"/>
<path d="M73.9838 80.4537V86.2491H68.1884V75.6099H73.9838V80.4537ZM73.0283 76.5537H69.14V80.4537H73.04L73.0283 76.5537ZM73.0283 81.3975H69.14V85.2975H73.04L73.0283 81.3975Z" fill="#D7E8F0"/>
<path d="M63.758 80.4537V86.2491H57.9626V75.6099H63.758V80.4537ZM62.8064 76.5537H58.9064V80.4537H62.8064V76.5537ZM62.8064 81.3975H58.9064V85.2975H62.8064V81.3975Z" fill="#D7E8F0"/>
<path d="M53.8169 80.4537V86.2491H48.0215V75.6099H53.8169V80.4537ZM52.8653 76.5537H48.9653V80.4537H52.8653V76.5537ZM52.8653 81.3975H48.9653V85.2975H52.8653V81.3975Z" fill="#D7E8F0"/>
<path d="M44.4569 75.6099V86.2491H38.6615V75.6099H44.4569ZM39.6131 85.2975H43.5131V81.3975H39.6131V85.2975ZM39.6131 80.4537H43.5131V76.5537H39.6131V80.4537Z" fill="#D7E8F0"/>
<path d="M73.9838 94.7671V100.551H68.1884V89.9272H73.9838V94.7671ZM73.0283 90.8671H69.14V94.7671H73.04L73.0283 90.8671ZM73.0283 95.7109H69.14V99.6109H73.04L73.0283 95.7109Z" fill="#D7E8F0"/>
<path d="M63.758 94.7671V100.551H57.9626V89.9272H63.758V94.7671ZM62.8064 90.8671H58.9064V94.7671H62.8064V90.8671ZM62.8064 95.7109H58.9064V99.6109H62.8064V95.7109Z" fill="#D7E8F0"/>
<path d="M53.8169 94.7671V100.551H48.0215V89.9272H53.8169V94.7671ZM52.8653 90.8671H48.9653V94.7671H52.8653V90.8671ZM52.8653 95.7109H48.9653V99.6109H52.8653V95.7109Z" fill="#D7E8F0"/>
<path d="M44.4569 94.7671V100.551H38.6615V89.9272H44.4569V94.7671ZM43.5053 90.8671H39.6053V94.7671H43.5053V90.8671ZM43.5053 95.7109H39.6053V99.6109H43.5053V95.7109Z" fill="#D7E8F0"/>
<path d="M73.9838 109.084V114.879H68.1884V104.24H73.9838V109.084ZM73.0283 105.184H69.14V109.084H73.04L73.0283 105.184ZM73.0283 110.027H69.14V113.927H73.04L73.0283 110.027Z" fill="#D7E8F0"/>
<path d="M63.758 109.084V114.879H57.9626V104.24H63.758V109.084ZM62.8064 105.184H58.9064V109.084H62.8064V105.184ZM62.8064 110.027H58.9064V113.927H62.8064V110.027Z" fill="#D7E8F0"/>
<path d="M53.8169 109.084V114.879H48.0215V104.24H53.8169V109.084ZM52.8653 105.184H48.9653V109.084H52.8653V105.184ZM52.8653 110.027H48.9653V113.927H52.8653V110.027Z" fill="#D7E8F0"/>
<path d="M44.4569 109.084V114.879H38.6615V104.24H44.4569V109.084ZM43.5053 105.184H39.6053V109.084H43.5053V105.184ZM43.5053 110.027H39.6053V113.927H43.5053V110.027Z" fill="#D7E8F0"/>
<path d="M73.9838 123.396V129.192H68.1884V118.552H73.9838V123.396ZM73.0283 119.496H69.14V123.396H73.04L73.0283 119.496ZM73.04 124.34H69.14V128.24H73.04V124.34Z" fill="#D7E8F0"/>
<path d="M63.758 123.396V129.192H57.9626V118.552H63.758V123.396ZM62.8064 119.496H58.9064V123.396H62.8064V119.496ZM62.8064 124.34H58.9064V128.24H62.8064V124.34Z" fill="#D7E8F0"/>
<path d="M53.8169 123.396V129.192H48.0215V118.552H53.8169V123.396ZM52.8653 119.496H48.9653V123.396H52.8653V119.496ZM52.8653 124.34H48.9653V128.24H52.8653V124.34Z" fill="#D7E8F0"/>
<path d="M44.4569 123.396V129.192H38.6615V118.552H44.4569V123.396ZM43.5053 119.496H39.6053V123.396H43.5053V119.496ZM43.5053 124.34H39.6053V128.24H43.5053V124.34Z" fill="#D7E8F0"/>
<path d="M73.9838 137.709V143.504H68.1884V132.865H73.9838V137.709ZM73.0283 133.809H69.14V137.709H73.04L73.0283 133.809ZM73.0283 138.653H69.14V142.553H73.04L73.0283 138.653Z" fill="#D7E8F0"/>
<path d="M63.758 137.709V143.504H57.9626V132.865H63.758V137.709ZM62.8064 133.809H58.9064V137.709H62.8064V133.809ZM62.8064 138.653H58.9064V142.553H62.8064V138.653Z" fill="#D7E8F0"/>
<path d="M53.8169 137.709V143.504H48.0215V132.865H53.8169V137.709ZM52.8653 133.809H48.9653V137.709H52.8653V133.809ZM52.8653 138.653H48.9653V142.553H52.8653V138.653Z" fill="#D7E8F0"/>
<path d="M44.4569 137.709V143.504H38.6615V132.865H44.4569V137.709ZM43.5053 133.809H39.6053V137.709H43.5053V133.809ZM43.5053 138.653H39.6053V142.553H43.5053V138.653Z" fill="#D7E8F0"/>
<path d="M151.063 61.1799C151.063 61.1799 149.96 76.1949 133.326 74.8065C133.326 74.8065 139.153 89.7474 143.334 92.3916L164.339 105.687L169.37 82.1658L151.063 61.1799Z" fill="#2E2E2E"/>
<path d="M133.256 117.71L89.2406 181.448L40.7012 181.616V180.727C40.7023 178.651 41.4913 176.653 42.909 175.138C44.3266 173.622 46.2669 172.7 48.3374 172.56L61.73 171.667L100.785 101.163C102.629 97.7291 105.165 94.716 108.234 92.3132C111.302 89.9104 114.836 88.1702 118.612 87.2034C122.387 86.2366 126.323 86.0635 130.168 86.6953C134.014 87.3275 137.687 88.7502 140.955 90.8745L141.29 91.0929L163.77 105.304L147.819 143.743L127.566 125.974" fill="white"/>
<path d="M282.115 154.835C278.063 166.114 270.649 167.943 261.979 167.362C257.444 161.418 252.069 153.322 247.725 147.273C242.676 140.214 237.619 133.165 232.554 126.127C231.263 124.317 229.972 122.52 228.654 120.71V147.827C228.659 149.226 228.566 150.624 228.377 152.011C203.674 173.122 168.391 146.633 163.578 142.807C163.216 142.53 163.036 142.374 163.036 142.374C160.732 125.671 163.22 113.039 163.75 103.487C164.475 90.7267 166.839 86.6707 168.937 82.7473L169.807 80.5477C171.437 77.5096 171.367 76.753 171.585 76.6087L171.519 76.051C171.519 76.051 172.365 75.0994 172.365 75.076C177.131 67.2097 180.801 60.646 188.691 55.9153C185.961 57.9277 184.073 62.8027 186.967 65.4664C190.332 68.5669 194.915 64.9009 197.676 62.7364C201.205 60.0723 204.302 56.8794 206.857 53.2711C207.664 52.1011 208.678 50.857 208.522 49.3711C214.239 49.2892 219.075 51.3211 224.972 54.7297C232.429 59.047 238.373 65.56 242.429 73.1728L282.115 154.835Z" fill="#2E2E2E"/>
<path d="M210.866 33.961V34.0702C210.866 36.3459 209.962 38.5279 208.353 40.1371C206.744 41.7462 204.562 42.6502 202.286 42.6502C200.828 42.6569 199.393 42.2817 198.125 41.5621C197.76 41.3726 197.413 41.1507 197.087 40.8991C196.954 40.7903 196.849 40.6507 196.782 40.4927C196.714 40.3344 196.685 40.1624 196.698 39.9908C196.711 39.8196 196.765 39.6535 196.856 39.5076C196.947 39.3613 197.072 39.2393 197.22 39.1519C198.979 38.0911 200.632 36.5467 201.225 34.6279C201.406 34.039 201.467 33.4197 201.405 32.8066C201.353 32.0235 201.096 31.2681 200.66 30.6156C200.224 29.9631 199.624 29.437 198.92 29.0899C198.699 29.0061 198.469 28.9495 198.234 28.9222C197.571 28.813 196.674 28.8247 196.471 29.3122C197.517 26.9878 197.768 24.3834 197.185 21.9022C196.822 20.3625 196.112 18.9261 195.11 17.7019C195.124 18.1434 195.041 18.5822 194.867 18.9878C194.692 19.3934 194.43 19.7553 194.099 20.0478C193.768 20.3403 193.377 20.5559 192.953 20.6796C192.529 20.8032 192.083 20.8321 191.647 20.7634C188.258 20.3734 187.883 17.074 187.883 17.074C187.883 17.074 187.86 17.1091 187.86 17.1325C186.074 20.7049 181.745 20.4514 178.789 18.556C177.741 17.9051 176.845 17.0381 176.16 16.0132C175.591 12.1522 179.019 8.75142 182.661 8.52132C182.938 6.12282 184.904 3.68532 187.291 3.68532C188.12 3.68298 188.935 3.90334 189.65 4.32298C190.366 4.74262 190.956 5.34672 191.358 6.07212C191.421 6.18561 191.477 6.303 191.526 6.42312C192.61 5.09712 194.326 3.69312 196.027 3.69312C197.218 3.69468 198.379 4.06752 199.349 4.75938C200.32 5.45124 201.05 6.4282 201.44 7.55413C201.44 7.38253 203 6.82873 203.152 6.77413C203.785 6.59005 204.442 6.50073 205.102 6.50892C206.252 6.53895 207.375 6.85719 208.37 7.43439C209.365 8.01159 210.199 8.82903 210.796 9.81222C210.856 10.1546 210.884 10.5017 210.882 10.8496C210.882 11.889 210.638 12.9139 210.168 13.8409C210.703 14.0398 211.196 14.3389 211.619 14.7223C212.528 15.5171 213.089 16.6376 213.179 17.8423C213.179 17.9632 213.179 18.0841 213.179 18.205C213.181 19.1153 212.909 20.0053 212.399 20.7595C212.96 20.9717 213.491 21.2564 213.978 21.6058C215.431 22.653 216.412 24.2309 216.708 25.9972C216.774 26.3837 216.806 26.7753 216.806 27.1672C216.805 28.8267 216.204 30.4296 215.111 31.6791C214.019 32.9283 212.511 33.7391 210.866 33.961Z" fill="#3FBDF1"/>
<path d="M210.866 33.961V34.0702C210.866 36.3459 209.962 38.5279 208.353 40.1371C206.744 41.7462 204.562 42.6502 202.286 42.6502C200.828 42.6569 199.393 42.2817 198.125 41.5621C199.884 40.5013 201.537 38.9569 202.13 37.042C202.341 36.3275 202.386 35.5741 202.26 34.8397C202.135 34.1053 201.842 33.41 201.405 32.8066C201.353 32.0235 201.096 31.2681 200.66 30.6156C200.224 29.9631 199.624 29.437 198.92 29.0899C198.699 29.0061 198.469 28.9495 198.234 28.9222C198.657 26.5303 198.289 24.0659 197.185 21.9022C196.822 20.3625 196.112 18.9261 195.11 17.7019C195.124 18.1434 195.041 18.5822 194.867 18.9878C194.692 19.3934 194.43 19.7553 194.099 20.0478C193.768 20.3403 193.377 20.5559 192.953 20.6796C192.529 20.8032 192.083 20.8321 191.647 20.7634C188.258 20.3734 187.883 17.074 187.883 17.074C187.883 17.074 187.86 17.1091 187.86 17.1325C186.074 20.7049 181.745 20.4514 178.789 18.556C177.741 17.9051 176.845 17.0381 176.16 16.0132C175.591 12.1522 179.019 8.75142 182.661 8.52132C182.938 6.12282 184.904 3.68532 187.291 3.68532C188.12 3.68298 188.935 3.90334 189.65 4.32298C190.366 4.74262 190.956 5.34672 191.358 6.07212C191.421 6.18561 191.477 6.303 191.526 6.42312C192.61 5.09712 194.326 3.69312 196.027 3.69312C197.218 3.69468 198.379 4.06752 199.349 4.75938C200.32 5.45124 201.05 6.4282 201.44 7.55413C201.44 7.38253 203 6.82873 203.152 6.77413C203.785 6.59005 204.442 6.50073 205.102 6.50892C206.252 6.53895 207.375 6.85719 208.37 7.43439C209.365 8.01159 210.199 8.82903 210.796 9.81222C210.856 10.1546 210.884 10.5017 210.882 10.8496C210.882 11.889 210.638 12.9139 210.168 13.8409C210.703 14.0398 211.196 14.3389 211.619 14.7223C211.504 15.2547 211.32 15.7699 211.073 16.255C211.911 16.5729 212.644 17.1204 213.187 17.8345C213.187 17.9554 213.187 18.0763 213.187 18.1972C213.188 19.1075 212.917 19.9975 212.407 20.7517C212.967 20.9639 213.499 21.2486 213.986 21.598C213.855 22.1538 213.626 22.6818 213.311 23.158C214.738 23.6861 215.945 24.6814 216.736 25.9816C216.801 26.3681 216.833 26.7597 216.833 27.1516C216.836 28.8177 216.232 30.428 215.133 31.6815C214.035 32.9345 212.518 33.745 210.866 33.961Z" fill="#3FBDF1"/>
<path d="M188.714 261.285H133.256V260.212C133.254 258.092 134.075 256.053 135.546 254.526C137.017 252.998 139.023 252.101 141.142 252.022L154.23 251.48H185.134L188.714 261.285Z" fill="#3FBDF1"/>
<path d="M89.2406 181.448L40.7012 181.327V180.254C40.6996 178.133 41.5213 176.094 42.9928 174.567C44.4643 173.039 46.4712 172.142 48.5909 172.064L61.6793 171.53L95.7224 172.072L89.2406 181.448Z" fill="#3FBDF1"/>
<path d="M169.573 181.171H195.313C203.422 181.149 211.246 178.181 217.331 172.821C223.415 167.46 227.345 160.072 228.389 152.03C228.577 150.642 228.67 149.243 228.666 147.842V120.717" stroke="black" stroke-width="1.01" stroke-miterlimit="10"/>
<path d="M178.921 142.28L163.832 142.799H163.578L154.051 142.99C151.952 143.032 149.862 143.279 147.811 143.727C130.803 147.405 119.934 164.448 123.564 181.311C124.1 183.824 124.938 186.262 126.061 188.573L154.23 251.48L141.142 252.01C139.023 252.089 137.017 252.987 135.546 254.514C134.075 256.041 133.254 258.08 133.256 260.2V261.273H188.714L185.134 251.48L159.363 181.073" stroke="black" stroke-width="1.01" stroke-miterlimit="10"/>
<path d="M133.256 117.725L89.2406 181.447" stroke="black" stroke-width="1.01" stroke-miterlimit="10"/>
<path d="M147.803 143.743L127.55 125.974" stroke="black" stroke-width="1.01" stroke-miterlimit="10"/>
<path d="M190.442 181.148L190.309 181.027" stroke="black" stroke-width="1.01" stroke-miterlimit="10"/>
<path d="M141.274 91.0929L128.128 64.1595" stroke="black" stroke-width="1.01" stroke-miterlimit="10"/>
<path d="M301.073 181.073C301.073 181.096 301.096 181.108 301.108 181.135H289.978" stroke="black" stroke-width="1.01" stroke-miterlimit="10"/>
<path d="M172.564 181.195C172.564 181.136 172.529 181.074 172.517 181.027" stroke="black" stroke-width="1.01" stroke-miterlimit="10"/>
<path d="M208.526 49.7256C212.658 49.6152 216.761 50.4588 220.515 52.1904C229.268 56.2659 236.555 62.9384 241.383 71.3004C246.703 80.5785 251.009 90.5898 255.735 100.16C261.658 112.188 267.589 124.21 273.527 136.228C276.387 142.028 279.247 147.83 282.107 153.633L288.176 165.922C289.423 167.975 291.18 169.671 293.277 170.844C295.372 172.012 297.73 172.627 300.129 172.63C302.532 172.63 304.886 173.317 306.912 174.609C308.938 175.902 310.552 177.747 311.564 179.927L312.094 181.074H297.458" stroke="black" stroke-width="1.01" stroke-miterlimit="10"/>
<path d="M163.836 142.807C162.116 131.778 162.479 120.674 163.348 109.583C164.908 89.7591 170.938 69.8964 187.103 57.0732C187.521 56.7417 187.942 56.4141 188.379 56.1099" stroke="black" stroke-width="1.01" stroke-miterlimit="10"/>
<path d="M203.842 76.0502C203.538 87.7268 213.502 99.5594 213.502 99.5594C213.502 99.5594 213.526 99.5828 213.526 99.5945C218.58 106.614 223.627 113.655 228.666 120.717C229.968 122.527 231.259 124.324 232.566 126.13C237.633 133.176 242.69 140.225 247.737 147.276C252.05 153.344 256.118 159.713 260.653 165.68C261.823 167.209 263.017 168.706 264.273 170.165C265.875 172.037 267.529 174.17 269.483 175.68C271.437 177.189 273.703 178.597 275.723 180.188C277.416 181.608 278.865 183.296 280.013 185.184C281.269 187.329 281.401 189.755 282.474 191.9C284.354 195.69 288.999 195.063 290.59 191.443C292.797 186.424 287.973 175.57 287.973 175.57" stroke="black" stroke-width="1.01" stroke-miterlimit="10"/>
<path d="M351.5 181.135H289.978" stroke="black" stroke-width="1.01" stroke-miterlimit="10"/>
<path d="M163.754 105.304L141.29 91.0929L140.955 90.8745C137.687 88.7502 134.014 87.3275 130.168 86.6953C126.323 86.0635 122.388 86.2366 118.612 87.2034C114.836 88.1702 111.303 89.9104 108.234 92.3132C105.165 94.716 102.629 97.7291 100.785 101.163L61.73 171.667L48.3296 172.56C46.2591 172.7 44.3189 173.622 42.9012 175.138C41.4836 176.653 40.6946 178.651 40.6934 180.727V181.616" stroke="black" stroke-width="1.01" stroke-miterlimit="10"/>
<path d="M122.543 43.002C124.399 43.3647 125.101 43.2438 126.443 43.509C126.545 43.525 126.651 43.507 126.742 43.4583C126.833 43.4095 126.907 43.3323 126.951 43.2379C126.995 43.1439 127.007 43.0383 126.986 42.9365C126.965 42.8347 126.911 42.743 126.833 42.6744L122.394 38.3844C121.179 37.3489 120.34 35.941 120.008 34.3791L119.969 34.2231C120.122 33.6923 120.414 33.2126 120.815 32.8331C121.216 32.454 121.712 32.1892 122.25 32.0664C123.194 31.9135 124.161 32.0383 125.035 32.4252C126.482 32.9946 128.424 33.5016 130.272 34.1373C132.829 35.0386 134.977 36.8279 136.325 39.18L136.497 39.4842C141.81 48.7174 147.89 57.4881 154.671 65.7039L169.101 83.4372" stroke="black" stroke-width="1.01" stroke-miterlimit="10"/>
<path d="M124.848 65.9773C124.02 65.9773 123.215 65.7121 122.55 65.2207C121.884 64.7293 121.394 64.0378 121.15 63.2473L117.438 51.8008L114.162 40.9861L109.891 27.0631C109.726 26.5229 109.691 25.9516 109.791 25.3958C109.891 24.8401 110.123 24.3159 110.466 23.8678C110.81 23.4197 111.255 23.0597 111.765 22.8183C112.276 22.5769 112.837 22.4611 113.401 22.4806C114.131 22.5017 114.836 22.7481 115.42 23.1861C116.005 23.6237 116.44 24.2313 116.665 24.9259L122.55 43.0024L128.537 60.9073C128.726 61.4888 128.775 62.1073 128.679 62.7114C128.583 63.3155 128.345 63.8885 127.986 64.383C127.626 64.8779 127.154 65.28 126.608 65.5573C126.063 65.8342 125.459 65.9781 124.848 65.9773Z" fill="#3FBDF1"/>
<path d="M124.848 65.9773C124.02 65.9773 123.215 65.7121 122.55 65.2207C121.884 64.7293 121.394 64.0378 121.15 63.2473L117.438 51.8008L114.162 40.9861L109.891 27.0631C109.726 26.5229 109.691 25.9516 109.791 25.3958C109.891 24.8401 110.123 24.3159 110.466 23.8678C110.81 23.4197 111.255 23.0597 111.765 22.8183C112.276 22.5769 112.837 22.4611 113.401 22.4806C114.131 22.5017 114.836 22.7481 115.42 23.1861C116.005 23.6237 116.44 24.2313 116.665 24.9259L122.55 43.0024L128.537 60.9073C128.726 61.4888 128.775 62.1073 128.679 62.7114C128.583 63.3155 128.345 63.8885 127.986 64.383C127.626 64.8779 127.154 65.28 126.608 65.5573C126.063 65.8342 125.459 65.9781 124.848 65.9773Z" stroke="black" stroke-width="1.01" stroke-miterlimit="10"/>
<path d="M109.673 48.4542C108.745 48.4167 107.846 48.1192 107.079 47.5962C106.66 47.285 106.308 46.893 106.044 46.4437C105.779 45.9941 105.607 45.496 105.539 44.9789C105.47 44.4618 105.506 43.936 105.644 43.4333C105.782 42.9302 106.019 42.4599 106.342 42.0504C106.923 41.3343 107.706 40.8098 108.588 40.545C109.718 40.1741 110.94 40.1905 112.059 40.5918C113.251 41.1081 114.227 42.0219 114.821 43.1775" stroke="black" stroke-width="1.01" stroke-miterlimit="10"/>
<path d="M111.978 55.8942C111.045 55.886 110.135 55.6158 109.349 55.1142C108.923 54.8139 108.561 54.4305 108.285 53.9879C108.01 53.5449 107.826 53.0511 107.744 52.5359C107.663 52.0207 107.685 51.4942 107.811 50.988C107.937 50.4814 108.163 50.0056 108.475 49.5879C109.04 48.8571 109.812 48.3134 110.691 48.0279C111.808 47.6293 113.027 47.6157 114.154 47.9889C115.273 48.3789 116.377 49.0731 116.919 50.1066" stroke="black" stroke-width="1.01" stroke-miterlimit="10"/>
<path d="M119.06 56.831C118.39 55.943 117.439 55.3092 116.362 55.0327C115.285 54.7566 114.146 54.8541 113.132 55.31C112.359 55.6423 111.703 56.1977 111.248 56.9051C110.998 57.3072 110.83 57.7557 110.756 58.2237C110.682 58.6921 110.702 59.1702 110.815 59.6304C110.929 60.0906 111.133 60.5235 111.416 60.9034C111.7 61.2833 112.056 61.6027 112.465 61.8425L112.996 62.1272C112.996 62.1272 116.178 63.4064 121.486 64.0187" stroke="black" stroke-width="1.01" stroke-miterlimit="10"/>
<path d="M154.488 181.207C155.958 181.207 171.082 181.207 172.564 181.207C178.5 181.183 184.471 181.172 190.442 181.16C220.004 181.086 249.675 181.039 276.632 181.027" stroke="black" stroke-width="1.01" stroke-miterlimit="10"/>
<path d="M289.938 181.015C298.94 181.015 303.943 181.015 312.075 181.015C325.335 181.038 337.284 181.073 347.417 181.124" stroke="black" stroke-width="1.01" stroke-miterlimit="10"/>
<path d="M0.5 181.776C1.2098 181.776 55.7318 181.534 123.557 181.327" stroke="black" stroke-width="1.01" stroke-miterlimit="10"/>
<path d="M208.526 49.3746C208.682 50.8722 207.668 52.128 206.861 53.2746C204.306 56.8833 201.209 60.0758 197.68 62.7399C194.919 64.8888 190.336 68.5548 186.971 65.4699C184.077 62.8062 185.945 57.9312 188.695 55.9188L188.73 55.8954" stroke="black" stroke-width="1.01" stroke-miterlimit="10"/>
<path d="M181.503 23.7598C181.503 23.7598 186.394 24.2317 187.174 28.4398" stroke="black" stroke-width="1.01" stroke-miterlimit="10"/>
<path d="M179.225 36.028C178.088 36.2101 176.927 36.1719 175.805 35.9149C175.593 35.8631 175.398 35.7601 175.235 35.6158C175.072 35.4711 174.946 35.289 174.869 35.085C174.793 34.881 174.767 34.6615 174.794 34.4454C174.821 34.2289 174.9 34.0226 175.025 33.844C176.195 32.2021 177.365 30.5797 178.656 29.0353C178.855 28.8407 178.991 28.5907 179.046 28.3177C179.046 28.3177 178.995 23.1736 180.348 19.3477" stroke="black" stroke-width="1.01" stroke-miterlimit="10"/>
<path d="M183.74 28.3224C183.911 27.5065 183.488 26.7269 182.795 26.5814C182.101 26.4356 181.4 26.9784 181.228 27.7943C181.057 28.6102 181.48 29.3894 182.173 29.5353C182.867 29.6811 183.568 29.1379 183.74 28.3224Z" fill="black"/>
<path d="M208.526 49.7252C206.728 44.5109 205.901 41.8472 205.901 41.8472" stroke="black" stroke-width="1.01" stroke-linecap="round" stroke-linejoin="round"/>
<path d="M188.733 47.9823L188.706 65.9769" stroke="black" stroke-width="1.01" stroke-miterlimit="10"/>
<path d="M177.431 36.1423C177.431 36.1423 178.687 46.4929 183.71 48.4546C188.733 50.4163 193.722 44.3635 193.722 44.3635" stroke="black" stroke-width="1.01" stroke-linecap="round" stroke-linejoin="round"/>
<path d="M178.461 40.8496C179.112 41.3051 179.866 41.591 180.655 41.6814C181.444 41.7719 182.244 41.6643 182.981 41.3683" stroke="black" stroke-width="1.01" stroke-linecap="round" stroke-linejoin="round"/>
<path d="M191.058 5.9278C191.059 5.13298 190.852 4.35181 190.457 3.6619C189.945 2.77543 189.157 2.08124 188.212 1.68578C187.268 1.29032 186.22 1.21543 185.229 1.47244C184.238 1.72945 183.359 2.30471 182.726 3.10928C182.093 3.91424 181.742 4.90405 181.725 5.9278" stroke="black" stroke-width="1.01" stroke-miterlimit="10" stroke-linecap="round"/>
<path d="M188.48 12.7996C188.475 11.6737 188.196 10.5665 187.666 9.57314C187.136 8.5802 186.371 7.73194 185.438 7.1017C180.758 3.9505 174.015 8.7631 175.353 14.188C175.821 16.0795 177.182 17.5342 178.785 18.5599C181.737 20.4553 186.07 20.7166 187.848 17.1403L187.876 17.0818C187.876 17.0818 188.266 20.3734 191.639 20.7712C192.075 20.8383 192.521 20.8086 192.944 20.6842C193.368 20.5602 193.759 20.3442 194.089 20.052C194.42 19.7599 194.683 19.3988 194.858 18.994C195.034 18.5891 195.119 18.1508 195.106 17.7097C197.785 20.9584 198.183 25.5097 196.475 29.3122C196.783 28.6258 198.468 28.8949 198.924 29.0977C200.96 29.9986 201.873 32.5609 201.233 34.6279C200.636 36.5545 198.983 38.0872 197.232 39.1597C197.083 39.2463 196.958 39.3676 196.867 39.5134C196.776 39.6589 196.721 39.8243 196.708 39.9955C196.694 40.1667 196.723 40.3387 196.79 40.497C196.858 40.655 196.962 40.7942 197.095 40.903C198.367 41.8694 199.884 42.4614 201.474 42.6128C203.064 42.7641 204.665 42.4685 206.096 41.759C207.527 41.0496 208.732 39.9549 209.575 38.5977C210.418 37.2405 210.865 35.6754 210.866 34.078V33.9688C212.384 33.7789 213.795 33.0858 214.872 32.0005C215.95 30.9151 216.633 29.4998 216.813 27.9807C216.993 26.4617 216.658 24.9263 215.863 23.6194C215.068 22.3125 213.858 21.3098 212.426 20.7712C212.936 20.0169 213.208 19.127 213.206 18.2167C213.206 16.9753 212.713 15.785 211.835 14.9075C210.958 14.0297 209.767 13.5367 208.526 13.5367" stroke="black" stroke-width="1.01" stroke-linecap="round" stroke-linejoin="round"/>
<path d="M191.058 3.5223C192.107 2.0754 193.207 1.272 195.126 1.272C196.319 1.27317 197.482 1.64679 198.453 2.34099C199.423 3.03558 200.153 4.01565 200.539 5.1447C200.488 4.9887 202.099 4.4115 202.259 4.3647C202.892 4.18179 203.549 4.09248 204.209 4.0995C205.977 4.14864 207.659 4.87755 208.903 6.1353C210.147 7.39266 210.859 9.08175 210.889 10.8504C210.889 11.8898 210.644 12.9143 210.176 13.8417" stroke="black" stroke-width="1.01" stroke-linecap="square" stroke-linejoin="round"/>
<path d="M210.866 33.961V34.0702C210.866 36.3459 209.962 38.5279 208.353 40.1371C206.744 41.7462 204.562 42.6502 202.286 42.6502C200.828 42.6569 199.393 42.2817 198.125 41.5621C197.76 41.3726 197.413 41.1507 197.087 40.8991C196.954 40.7903 196.849 40.6507 196.782 40.4927C196.714 40.3344 196.685 40.1624 196.698 39.9908C196.711 39.8196 196.765 39.6535 196.856 39.5076C196.947 39.3613 197.072 39.2393 197.22 39.1519C198.979 38.0911 200.632 36.5467 201.225 34.6279C201.406 34.039 201.467 33.4197 201.405 32.8066C201.353 32.0235 201.096 31.2681 200.66 30.6156C200.224 29.9631 199.624 29.437 198.92 29.0899C198.699 29.0061 198.469 28.9495 198.234 28.9222C197.571 28.813 196.674 28.8247 196.471 29.3122C197.517 26.9878 197.768 24.3834 197.185 21.9022C196.822 20.3625 196.112 18.9261 195.11 17.7019C195.124 18.1434 195.041 18.5822 194.867 18.9878C194.692 19.3934 194.43 19.7553 194.099 20.0478C193.768 20.3403 193.377 20.5559 192.953 20.6796C192.529 20.8032 192.083 20.8321 191.647 20.7634C188.258 20.3734 187.883 17.074 187.883 17.074C187.883 17.074 187.86 17.1091 187.86 17.1325C186.074 20.7049 181.745 20.4514 178.789 18.556C177.741 17.9051 176.845 17.0381 176.16 16.0132C175.591 12.1522 179.019 8.75142 182.661 8.52132C182.938 6.12282 184.904 3.68532 187.291 3.68532C188.12 3.68298 188.935 3.90334 189.65 4.32298C190.366 4.74262 190.956 5.34672 191.358 6.07212C191.421 6.18561 191.477 6.303 191.526 6.42312C192.61 5.09712 194.326 3.69312 196.027 3.69312C197.218 3.69468 198.379 4.06752 199.349 4.75938C200.32 5.45124 201.05 6.4282 201.44 7.55413C201.44 7.38253 203 6.82873 203.152 6.77413C203.785 6.59005 204.442 6.50073 205.102 6.50892C206.252 6.53895 207.375 6.85719 208.37 7.43439C209.365 8.01159 210.199 8.82903 210.796 9.81222C210.856 10.1546 210.884 10.5017 210.882 10.8496C210.882 11.889 210.638 12.9139 210.168 13.8409C210.703 14.0398 211.196 14.3389 211.619 14.7223C212.528 15.5171 213.089 16.6376 213.179 17.8423C213.179 17.9632 213.179 18.0841 213.179 18.205C213.181 19.1153 212.909 20.0053 212.399 20.7595C212.96 20.9717 213.491 21.2564 213.978 21.6058C215.431 22.653 216.412 24.2309 216.708 25.9972C216.774 26.3837 216.806 26.7753 216.806 27.1672C216.805 28.8267 216.204 30.4296 215.111 31.6791C214.019 32.9283 212.511 33.7391 210.866 33.961Z" fill="#3FBDF1"/>
<path d="M210.866 33.961V34.0702C210.866 36.3459 209.962 38.5279 208.353 40.1371C206.744 41.7462 204.562 42.6502 202.286 42.6502C200.828 42.6569 199.393 42.2817 198.125 41.5621C199.884 40.5013 201.537 38.9569 202.13 37.042C202.341 36.3275 202.386 35.5741 202.26 34.8397C202.135 34.1053 201.842 33.41 201.405 32.8066C201.353 32.0235 201.096 31.2681 200.66 30.6156C200.224 29.9631 199.624 29.437 198.92 29.0899C198.699 29.0061 198.469 28.9495 198.234 28.9222C198.657 26.5303 198.289 24.0659 197.185 21.9022C196.822 20.3625 196.112 18.9261 195.11 17.7019C195.124 18.1434 195.041 18.5822 194.867 18.9878C194.692 19.3934 194.43 19.7553 194.099 20.0478C193.768 20.3403 193.377 20.5559 192.953 20.6796C192.529 20.8032 192.083 20.8321 191.647 20.7634C188.258 20.3734 187.883 17.074 187.883 17.074C187.883 17.074 187.86 17.1091 187.86 17.1325C186.074 20.7049 181.745 20.4514 178.789 18.556C177.741 17.9051 176.845 17.0381 176.16 16.0132C175.591 12.1522 179.019 8.75142 182.661 8.52132C182.938 6.12282 184.904 3.68532 187.291 3.68532C188.12 3.68298 188.935 3.90334 189.65 4.32298C190.366 4.74262 190.956 5.34672 191.358 6.07212C191.421 6.18561 191.477 6.303 191.526 6.42312C192.61 5.09712 194.326 3.69312 196.027 3.69312C197.218 3.69468 198.379 4.06752 199.349 4.75938C200.32 5.45124 201.05 6.4282 201.44 7.55413C201.44 7.38253 203 6.82873 203.152 6.77413C203.785 6.59005 204.442 6.50073 205.102 6.50892C206.252 6.53895 207.375 6.85719 208.37 7.43439C209.365 8.01159 210.199 8.82903 210.796 9.81222C210.856 10.1546 210.884 10.5017 210.882 10.8496C210.882 11.889 210.638 12.9139 210.168 13.8409C210.703 14.0398 211.196 14.3389 211.619 14.7223C211.504 15.2547 211.32 15.7699 211.073 16.255C211.911 16.5729 212.644 17.1204 213.187 17.8345C213.187 17.9554 213.187 18.0763 213.187 18.1972C213.188 19.1075 212.917 19.9975 212.407 20.7517C212.967 20.9639 213.499 21.2486 213.986 21.598C213.855 22.1538 213.626 22.6818 213.311 23.158C214.738 23.6861 215.945 24.6814 216.736 25.9816C216.801 26.3681 216.833 26.7597 216.833 27.1516C216.836 28.8177 216.232 30.428 215.133 31.6815C214.035 32.9345 212.518 33.745 210.866 33.961Z" fill="#3FBDF1"/>
<path d="M181.503 23.7598C181.503 23.7598 186.394 24.2317 187.174 28.4398" stroke="black" stroke-width="1.01" stroke-miterlimit="10"/>
<path d="M179.225 36.028C178.088 36.2101 176.927 36.1719 175.805 35.9149C175.593 35.8631 175.398 35.7601 175.235 35.6158C175.072 35.4711 174.946 35.289 174.869 35.085C174.793 34.881 174.767 34.6615 174.794 34.4454C174.821 34.2289 174.9 34.0226 175.025 33.844C176.195 32.2021 177.365 30.5797 178.656 29.0353C178.855 28.8407 178.991 28.5907 179.046 28.3177C179.046 28.3177 178.995 23.1736 180.348 19.3477" stroke="black" stroke-width="1.01" stroke-miterlimit="10"/>
<path d="M183.74 28.3224C183.911 27.5065 183.488 26.7269 182.795 26.5814C182.101 26.4356 181.4 26.9784 181.228 27.7943C181.057 28.6102 181.48 29.3894 182.173 29.5353C182.867 29.6811 183.568 29.1379 183.74 28.3224Z" fill="black"/>
<path d="M208.526 49.7252C206.728 44.5109 205.901 41.8472 205.901 41.8472" stroke="black" stroke-width="1.01" stroke-linecap="round" stroke-linejoin="round"/>
<path d="M188.733 47.9823L188.706 65.9769" stroke="black" stroke-width="1.01" stroke-miterlimit="10"/>
<path d="M177.431 36.1423C177.431 36.1423 178.687 46.4929 183.71 48.4546C188.733 50.4163 193.722 44.3635 193.722 44.3635" stroke="black" stroke-width="1.01" stroke-linecap="round" stroke-linejoin="round"/>
<path d="M178.461 40.8496C179.112 41.3051 179.866 41.591 180.655 41.6814C181.444 41.7719 182.244 41.6643 182.981 41.3683" stroke="black" stroke-width="1.01" stroke-linecap="round" stroke-linejoin="round"/>
<path d="M191.058 5.9278C191.059 5.13298 190.852 4.35181 190.457 3.6619C189.945 2.77543 189.157 2.08124 188.212 1.68578C187.268 1.29032 186.22 1.21543 185.229 1.47244C184.238 1.72945 183.359 2.30471 182.726 3.10928C182.093 3.91424 181.742 4.90405 181.725 5.9278" stroke="black" stroke-width="1.01" stroke-miterlimit="10" stroke-linecap="round"/>
<path d="M188.48 12.7996C188.475 11.6737 188.196 10.5665 187.666 9.57314C187.136 8.5802 186.371 7.73194 185.438 7.1017C180.758 3.9505 174.015 8.7631 175.353 14.188C175.821 16.0795 177.182 17.5342 178.785 18.5599C181.737 20.4553 186.07 20.7166 187.848 17.1403L187.876 17.0818C187.876 17.0818 188.266 20.3734 191.639 20.7712C192.075 20.8383 192.521 20.8086 192.944 20.6842C193.368 20.5602 193.759 20.3442 194.089 20.052C194.42 19.7599 194.683 19.3988 194.858 18.994C195.034 18.5891 195.119 18.1508 195.106 17.7097C197.785 20.9584 198.183 25.5097 196.475 29.3122C196.783 28.6258 198.468 28.8949 198.924 29.0977C200.96 29.9986 201.873 32.5609 201.233 34.6279C200.636 36.5545 198.983 38.0872 197.232 39.1597C197.083 39.2463 196.958 39.3676 196.867 39.5134C196.776 39.6589 196.721 39.8243 196.708 39.9955C196.694 40.1667 196.723 40.3387 196.79 40.497C196.858 40.655 196.962 40.7942 197.095 40.903C198.367 41.8694 199.884 42.4614 201.474 42.6128C203.064 42.7641 204.665 42.4685 206.096 41.759C207.527 41.0496 208.732 39.9549 209.575 38.5977C210.418 37.2405 210.865 35.6754 210.866 34.078V33.9688C212.384 33.7789 213.795 33.0858 214.872 32.0005C215.95 30.9151 216.633 29.4998 216.813 27.9807C216.993 26.4617 216.658 24.9263 215.863 23.6194C215.068 22.3125 213.858 21.3098 212.426 20.7712C212.936 20.0169 213.208 19.127 213.206 18.2167C213.206 16.9753 212.713 15.785 211.835 14.9075C210.958 14.0297 209.767 13.5367 208.526 13.5367" stroke="black" stroke-width="1.01" stroke-linecap="round" stroke-linejoin="round"/>
<path d="M191.058 3.5223C192.107 2.0754 193.207 1.272 195.126 1.272C196.319 1.27317 197.482 1.64679 198.453 2.34099C199.423 3.03558 200.153 4.01565 200.539 5.1447C200.488 4.9887 202.099 4.4115 202.259 4.3647C202.892 4.18179 203.549 4.09248 204.209 4.0995C205.977 4.14864 207.659 4.87755 208.903 6.1353C210.147 7.39266 210.859 9.08175 210.889 10.8504C210.889 11.8898 210.644 12.9143 210.176 13.8417" stroke="black" stroke-width="1.01" stroke-linecap="square" stroke-linejoin="round"/>
</svg>
