<svg xmlns="http://www.w3.org/2000/svg" width="208" height="214" fill="none" viewBox="0 0 208 214"><g clip-path="url(#clip0_5_462)"><mask id="mask0_5_462" style="mask-type:luminance" width="208" height="214" x="0" y="0" maskUnits="userSpaceOnUse"><path fill="#fff" d="M207.97 0H0V213.758H207.97V0Z"/></mask><g mask="url(#mask0_5_462)"><path fill="#ECF2FA" d="M79.571 142.899H114.65C114.65 143.853 114.462 144.797 114.097 145.679C113.731 146.56 113.195 147.361 112.52 148.035C111.844 148.71 111.042 149.245 110.16 149.61C109.277 149.975 108.331 150.163 107.376 150.163H86.8455C85.8903 150.163 84.9444 149.975 84.0618 149.61C83.1791 149.245 82.3771 148.71 81.7017 148.035C81.0262 147.361 80.4903 146.56 80.1249 145.679C79.7592 144.797 79.571 143.853 79.571 142.899Z"/><path fill="#8BBACC" d="M114.799 143.509C114.722 144.746 114.329 145.943 113.657 146.985C112.986 148.028 112.059 148.881 110.964 149.465C110.531 149.672 110.078 149.834 109.613 149.948L109.637 149.882C109.794 149.437 109.843 148.961 109.781 148.493C109.718 148.025 109.546 147.579 109.278 147.191C109.009 146.802 108.653 146.482 108.237 146.257C107.822 146.032 107.359 145.909 106.886 145.896L80.4129 145.141C80.2401 144.606 80.1312 144.053 80.0883 143.493C80.2825 143.52 80.4784 143.534 80.6743 143.534H89.9242V144.179H91.8639V143.534H96.8163C96.764 143.646 96.7062 143.759 96.654 143.872L104 143.866V143.542H114.268C114.446 143.543 114.623 143.532 114.799 143.509Z"/><path fill="#274B5B" d="M84.9058 143.869H84.2593V149.679H84.9058V143.869Z"/><path fill="#274B5B" d="M85.3901 143.869H84.7435V148.872H85.3901V143.869Z" opacity=".2"/><path fill="#274B5B" d="M89.4317 143.869H88.7852V148.872H89.4317V143.869Z" opacity=".2"/><path fill="#274B5B" d="M97.5152 143.869H96.8687V148.872H97.5152V143.869Z" opacity=".2"/><path fill="#274B5B" d="M101.557 143.869H100.91V148.872H101.557V143.869Z" opacity=".2"/><path fill="#274B5B" d="M105.599 143.869H104.952V148.872H105.599V143.869Z" opacity=".2"/><path fill="#fff" d="M104.305 143.869H103.659V148.872H104.305V143.869Z" opacity=".3"/><path fill="#fff" d="M100.426 143.869H99.7795V148.872H100.426V143.869Z" opacity=".3"/><path fill="#fff" d="M96.3844 143.869H95.7378V148.872H96.3844V143.869Z" opacity=".3"/><path fill="#fff" d="M92.3427 143.869H91.6962V148.872H92.3427V143.869Z" opacity=".3"/><path fill="#fff" d="M88.301 143.869H87.6544V148.872H88.301V143.869Z" opacity=".3"/><path fill="#fff" d="M84.2594 143.869H83.6128V148.872H84.2594V143.869Z" opacity=".3"/><path fill="#274B5B" d="M93.4735 143.869H92.8269V148.872H93.4735V143.869Z" opacity=".2"/><path fill="#274B5B" d="M88.92 143.869H88.2734V149.679H88.92V143.869Z"/><path fill="#274B5B" d="M92.937 143.869H92.2904V149.679H92.937V143.869Z"/><path fill="#274B5B" d="M96.9511 143.869H96.3046V149.679H96.9511V143.869Z"/><path fill="#274B5B" d="M104.979 143.869H104.333V149.679H104.979V143.869Z"/><path fill="#274B5B" d="M108.994 143.869H108.347V149.679H108.994V143.869Z"/><path fill="#274B5B" d="M100.963 143.869H100.316V149.679H100.963V143.869Z"/><path fill="url(#paint0_linear_5_462)" d="M205.141 89.1493H165.553C165.501 88.3966 165.439 87.643 165.366 86.8884H180.886C181.636 86.8884 182.355 86.5909 182.886 86.0612C183.416 85.5316 183.714 84.8135 183.714 84.0644C183.714 83.3155 183.416 82.5971 182.886 82.0675C182.355 81.5379 181.636 81.2403 180.886 81.2403H164.529C163.729 77.3559 162.457 73.7188 160.504 70.6447C156.677 64.6231 150.704 61.6287 144.821 61.0024C138.939 60.376 133.046 61.8677 127.257 63.4748C119.553 65.6258 110.488 67.5625 104.68 60.4529C101.243 56.2389 99.873 49.3354 101.103 43.3192C101.429 41.8443 101.831 40.3875 102.308 38.9541H122.709C123.459 38.9541 124.179 38.6565 124.709 38.1269C125.239 37.5973 125.537 36.8789 125.537 36.13C125.537 35.3812 125.239 34.6628 124.709 34.1331C124.179 33.6035 123.459 33.306 122.709 33.306H103.799C103.942 32.436 104.012 31.5558 104.008 30.6743C103.97 28.5518 103.466 26.4635 102.531 24.5568C101.597 22.65 100.255 20.9713 98.5992 19.6391C95.6305 17.3068 92.1556 16.4827 88.7384 15.8948C81.1063 14.5597 73.2347 14.1559 65.8007 16.7574C58.7655 9.17811 48.858 6.61506 40.2134 10.2C37.7454 11.1835 35.5471 12.7391 33.8 14.7383H50.6656C51.3953 14.7383 52.0952 15.0277 52.6111 15.5429C53.1272 16.0581 53.417 16.7568 53.417 17.4854C53.417 18.214 53.1272 18.9127 52.6111 19.4279C52.0952 19.9431 51.3953 20.2325 50.6656 20.2325H30.8561C29.585 24.3532 29.596 29.1661 29.6593 33.7126C29.6593 34.2235 29.673 34.7345 29.6813 35.2455H37.6656C38.4159 35.2455 39.1351 35.543 39.6656 36.0726C40.196 36.6023 40.494 37.3206 40.494 38.0695C40.494 38.8183 40.196 39.5367 39.6656 40.0664C39.1351 40.596 38.4159 40.8935 37.6656 40.8935H29.7831L29.8271 43.9593H48.3353C49.0856 43.9593 49.8048 44.2568 50.3352 44.7864C50.8657 45.3161 51.1636 46.0345 51.1636 46.7833C51.1636 47.5322 50.8657 48.2506 50.3352 48.7802C49.8048 49.3098 49.0856 49.6074 48.3353 49.6074H29.9014C29.9014 50.2529 29.9179 50.9095 29.9289 51.5633C29.9949 56.151 30.0445 60.865 28.8504 65.1615C25.1664 78.3943 12.1059 81.5892 5.04601 92.0557H34.7602C35.5105 92.0557 36.2297 92.3532 36.7602 92.8829C37.2906 93.4125 37.5886 94.1309 37.5886 94.8798C37.5886 95.6289 37.2906 96.347 36.7602 96.8766C36.2297 97.4063 35.5105 97.7038 34.7602 97.7038H2.16537C1.90858 98.3886 1.67472 99.0883 1.46379 99.8026H22.4701C23.2203 99.8026 23.9397 100.1 24.4701 100.63C25.0005 101.159 25.2985 101.878 25.2985 102.627C25.2985 103.375 25.0005 104.094 24.4701 104.623C23.9397 105.153 23.2203 105.451 22.4701 105.451H0.275214C-0.480582 111.543 0.251951 117.729 2.41024 123.477C7.20855 135.963 18.3679 142.292 28.8449 142.094C39.3219 141.897 49.3202 136.284 58.7215 130.057C65.8254 125.345 73.2622 120.085 81.1695 120.829C89.2337 121.587 96.1367 128.427 103.433 133.087C115.316 140.674 129.158 142.611 141.952 138.479C147.608 136.652 153.216 133.534 157.359 128.062C161.379 122.735 163.662 115.7 164.788 108.209H175.62C176.349 108.209 177.049 107.919 177.565 107.404C178.081 106.889 178.371 106.19 178.371 105.462C178.371 104.733 178.081 104.034 177.565 103.519C177.049 103.004 176.349 102.715 175.62 102.715H165.437C165.641 100.187 165.734 97.6433 165.74 95.127V94.8028H205.141C205.892 94.8028 206.611 94.5053 207.141 93.9757C207.672 93.446 207.97 92.728 207.97 91.9788C207.97 91.2299 207.672 90.5116 207.141 89.9819C206.611 89.4523 205.892 89.1548 205.141 89.1548V89.1493Z" opacity=".4"/><path fill="#26C8BC" d="M73.4329 135.957C73.4329 135.957 60.2265 152.38 58.4354 175.409C58.4183 175.642 58.3204 175.863 58.1586 176.032C57.9966 176.202 57.7806 176.31 57.5475 176.339C57.3145 176.367 57.079 176.313 56.8812 176.187C56.6831 176.061 56.5353 175.87 56.4627 175.648C51.9368 161.893 42.3264 122.126 72.3048 97.8659"/><path fill="#F6DF9E" d="M58.24 176.776C58.3074 176.993 58.4461 177.179 58.6334 177.307C58.5036 177.394 58.355 177.449 58.1998 177.469C58.0444 177.489 57.8867 177.473 57.739 177.421C57.5909 177.37 57.4572 177.285 57.348 177.173C57.2388 177.061 57.1571 176.925 57.1092 176.776C52.5833 163.022 42.9729 123.254 72.9513 98.9947L72.9788 99.9094C44.343 124.243 53.7718 163.195 58.24 176.776Z"/><path fill="#1B5A6E" d="M55.2851 171.458C55.2081 165.074 56.8396 158.385 58.9774 152.393C60.0779 149.327 61.2995 146.446 62.5018 143.877C66.2675 135.857 68.0221 127.043 67.6138 118.194C67.3772 113.074 67.1846 107.33 67.1846 102.215C69.5534 99.2861 68.7473 99.0224 71.9829 96.4044L73.1137 134.496C73.1137 134.496 59.9073 150.918 58.1162 173.947C58.1085 174.089 58.07 174.227 58.0037 174.352C57.9371 174.477 57.8441 174.586 57.731 174.672" opacity=".8"/><path fill="#274B5B" d="M55.2411 149.838C55.1291 149.838 55.0196 149.805 54.9263 149.743C54.833 149.681 54.7604 149.593 54.7175 149.489C54.6746 149.386 54.6633 149.272 54.6853 149.162C54.707 149.053 54.761 148.952 54.8405 148.873C54.9197 148.793 55.0207 148.739 55.1305 148.718C55.2405 148.696 55.3544 148.707 55.4581 148.75C55.5616 148.793 55.6502 148.865 55.7124 148.958C55.7745 149.051 55.8078 149.161 55.8078 149.273C55.8078 149.423 55.7481 149.567 55.6419 149.673C55.5357 149.779 55.3916 149.838 55.2411 149.838ZM55.2411 149.031C55.1932 149.031 55.1464 149.045 55.1065 149.072C55.0669 149.098 55.0358 149.136 55.0174 149.18C54.9992 149.224 54.9943 149.273 55.0036 149.32C55.013 149.367 55.0361 149.41 55.0699 149.444C55.1038 149.477 55.147 149.5 55.194 149.51C55.2408 149.519 55.2895 149.514 55.3338 149.496C55.3781 149.478 55.4158 149.447 55.4425 149.407C55.4691 149.367 55.4832 149.32 55.4832 149.273C55.4826 149.209 55.4568 149.148 55.4114 149.104C55.366 149.059 55.3049 149.034 55.2411 149.034V149.031Z"/><path fill="#274B5B" d="M55.2411 150.325C55.0331 150.325 54.83 150.263 54.6572 150.148C54.4842 150.033 54.3497 149.869 54.2701 149.677C54.1906 149.485 54.1697 149.274 54.2102 149.071C54.2509 148.867 54.351 148.68 54.4979 148.533C54.6449 148.387 54.8322 148.287 55.0361 148.246C55.24 148.206 55.4513 148.226 55.6433 148.306C55.8354 148.385 55.9993 148.52 56.1149 148.692C56.2305 148.865 56.2921 149.068 56.2921 149.275C56.2921 149.554 56.1815 149.821 55.9842 150.017C55.7872 150.214 55.5198 150.325 55.2411 150.325ZM55.2411 148.871C55.161 148.871 55.0829 148.895 55.0163 148.94C54.95 148.984 54.898 149.047 54.8674 149.121C54.8369 149.195 54.8287 149.276 54.8443 149.354C54.86 149.432 54.8985 149.504 54.9552 149.561C55.0116 149.617 55.0837 149.656 55.1621 149.671C55.2405 149.687 55.322 149.679 55.396 149.648C55.4697 149.618 55.533 149.566 55.5773 149.5C55.6219 149.433 55.6455 149.355 55.6455 149.275C55.6455 149.222 55.6351 149.17 55.6147 149.121C55.5943 149.072 55.5646 149.027 55.5269 148.99C55.4895 148.952 55.445 148.923 55.396 148.902C55.3467 148.882 55.2942 148.871 55.2411 148.871Z" opacity=".2"/><path fill="#274B5B" d="M57.5027 129.018C57.3907 129.018 57.2812 128.985 57.1879 128.923C57.0946 128.861 57.022 128.773 56.9791 128.669C56.9362 128.566 56.9252 128.452 56.9469 128.342C56.9689 128.232 57.0228 128.132 57.1021 128.052C57.1813 127.973 57.2823 127.919 57.3923 127.898C57.5021 127.876 57.616 127.887 57.7197 127.93C57.8232 127.973 57.9118 128.045 57.974 128.138C58.0364 128.231 58.0694 128.341 58.0694 128.452C58.0694 128.603 58.0097 128.747 57.9035 128.853C57.7973 128.959 57.6532 129.018 57.5027 129.018ZM57.5027 128.211C57.4548 128.211 57.408 128.225 57.3684 128.252C57.3285 128.278 57.2974 128.316 57.279 128.36C57.2608 128.404 57.2559 128.453 57.2652 128.5C57.2746 128.547 57.2977 128.59 57.3315 128.624C57.3654 128.657 57.4086 128.68 57.4556 128.69C57.5024 128.699 57.5511 128.694 57.5954 128.676C57.6397 128.658 57.6774 128.627 57.7041 128.587C57.7307 128.547 57.7448 128.5 57.7448 128.452C57.7448 128.388 57.7195 128.327 57.6741 128.282C57.6287 128.236 57.567 128.211 57.5027 128.211Z"/><path fill="#274B5B" d="M57.5027 129.502C57.295 129.502 57.0917 129.44 56.9189 129.325C56.7461 129.209 56.6113 129.045 56.5318 128.854C56.4523 128.662 56.4314 128.451 56.4721 128.247C56.5125 128.044 56.6127 127.857 56.7596 127.71C56.9065 127.563 57.0939 127.463 57.2977 127.423C57.5016 127.382 57.7129 127.403 57.905 127.482C58.097 127.562 58.2613 127.696 58.3765 127.869C58.4921 128.042 58.5537 128.245 58.5537 128.452C58.5537 128.73 58.4431 128.997 58.2459 129.194C58.0489 129.391 57.7814 129.502 57.5027 129.502ZM57.5027 128.048C57.4227 128.048 57.3445 128.072 57.2779 128.116C57.2116 128.161 57.1596 128.224 57.1291 128.298C57.0985 128.371 57.0906 128.452 57.106 128.531C57.1217 128.609 57.1602 128.681 57.2169 128.738C57.2733 128.794 57.3453 128.833 57.4238 128.848C57.5024 128.864 57.5836 128.856 57.6576 128.825C57.7314 128.794 57.7946 128.743 57.8389 128.676C57.8835 128.61 57.9072 128.532 57.9072 128.452C57.9072 128.399 57.8967 128.346 57.8763 128.298C57.856 128.249 57.8263 128.204 57.7889 128.166C57.7512 128.129 57.7066 128.099 57.6576 128.079C57.6084 128.059 57.5558 128.048 57.5027 128.048Z" opacity=".2"/><path fill="#274B5B" d="M136.878 129.018C136.766 129.018 136.657 128.985 136.564 128.923C136.47 128.861 136.398 128.773 136.355 128.669C136.312 128.566 136.301 128.452 136.323 128.342C136.345 128.232 136.399 128.132 136.478 128.052C136.557 127.973 136.658 127.919 136.768 127.898C136.878 127.876 136.992 127.887 137.095 127.93C137.199 127.973 137.288 128.045 137.35 128.138C137.412 128.231 137.445 128.341 137.445 128.452C137.445 128.603 137.385 128.747 137.279 128.853C137.173 128.959 137.029 129.018 136.878 129.018ZM136.878 128.211C136.831 128.211 136.784 128.225 136.744 128.252C136.704 128.278 136.673 128.316 136.655 128.36C136.637 128.404 136.632 128.453 136.641 128.5C136.65 128.547 136.673 128.59 136.707 128.624C136.741 128.657 136.784 128.68 136.831 128.69C136.878 128.699 136.927 128.694 136.971 128.676C137.015 128.658 137.053 128.627 137.08 128.587C137.106 128.547 137.121 128.5 137.121 128.452C137.121 128.388 137.095 128.327 137.05 128.282C137.004 128.236 136.943 128.211 136.878 128.211Z"/><path fill="#274B5B" d="M136.878 129.502C136.671 129.502 136.467 129.44 136.294 129.325C136.122 129.209 135.987 129.045 135.907 128.854C135.828 128.662 135.807 128.451 135.848 128.247C135.888 128.044 135.988 127.857 136.135 127.71C136.282 127.563 136.469 127.463 136.673 127.423C136.877 127.382 137.089 127.403 137.281 127.482C137.473 127.562 137.637 127.696 137.752 127.869C137.868 128.042 137.929 128.245 137.929 128.452C137.929 128.73 137.819 128.997 137.621 129.194C137.424 129.391 137.157 129.502 136.878 129.502ZM136.878 128.048C136.798 128.048 136.72 128.072 136.654 128.116C136.587 128.161 136.535 128.224 136.505 128.298C136.474 128.371 136.466 128.452 136.482 128.531C136.497 128.609 136.536 128.681 136.592 128.738C136.649 128.794 136.721 128.833 136.799 128.848C136.878 128.864 136.959 128.856 137.033 128.825C137.107 128.794 137.17 128.743 137.215 128.676C137.259 128.61 137.283 128.532 137.283 128.452C137.283 128.399 137.272 128.346 137.252 128.298C137.232 128.249 137.202 128.204 137.164 128.166C137.127 128.129 137.082 128.099 137.033 128.079C136.984 128.059 136.931 128.048 136.878 128.048Z" opacity=".2"/><path fill="#274B5B" d="M136.394 129.018C136.282 129.018 136.172 128.985 136.079 128.923C135.986 128.861 135.913 128.773 135.871 128.669C135.828 128.566 135.816 128.452 135.838 128.342C135.86 128.232 135.914 128.132 135.994 128.052C136.073 127.973 136.174 127.919 136.284 127.898C136.394 127.876 136.507 127.887 136.611 127.93C136.715 127.973 136.803 128.045 136.865 128.138C136.928 128.231 136.961 128.341 136.961 128.452C136.961 128.603 136.901 128.747 136.795 128.853C136.689 128.959 136.545 129.018 136.394 129.018ZM136.394 128.211C136.346 128.211 136.299 128.225 136.26 128.252C136.22 128.278 136.189 128.316 136.17 128.36C136.152 128.404 136.147 128.453 136.157 128.5C136.166 128.547 136.189 128.59 136.223 128.624C136.257 128.657 136.3 128.68 136.347 128.69C136.394 128.699 136.443 128.694 136.487 128.676C136.531 128.658 136.569 128.627 136.596 128.587C136.622 128.547 136.636 128.5 136.636 128.452C136.636 128.388 136.611 128.327 136.565 128.282C136.52 128.236 136.459 128.211 136.394 128.211Z"/><path fill="#274B5B" d="M136.394 129.502C136.186 129.502 135.983 129.44 135.81 129.325C135.637 129.209 135.503 129.045 135.423 128.854C135.344 128.662 135.323 128.451 135.363 128.247C135.404 128.044 135.504 127.857 135.651 127.71C135.798 127.563 135.985 127.463 136.189 127.423C136.393 127.382 136.604 127.403 136.796 127.482C136.988 127.562 137.153 127.696 137.268 127.869C137.383 128.042 137.445 128.245 137.445 128.452C137.445 128.73 137.334 128.997 137.137 129.194C136.94 129.391 136.673 129.502 136.394 129.502ZM136.394 128.048C136.314 128.048 136.236 128.072 136.17 128.116C136.103 128.161 136.051 128.224 136.02 128.298C135.99 128.371 135.982 128.452 135.998 128.531C136.013 128.609 136.052 128.681 136.108 128.738C136.165 128.794 136.237 128.833 136.315 128.848C136.394 128.864 136.475 128.856 136.549 128.825C136.623 128.794 136.686 128.743 136.731 128.676C136.775 128.61 136.799 128.532 136.799 128.452C136.799 128.399 136.788 128.346 136.768 128.298C136.748 128.249 136.718 128.204 136.68 128.166C136.643 128.129 136.598 128.099 136.549 128.079C136.5 128.059 136.447 128.048 136.394 128.048Z" opacity=".2"/><path fill="#274B5B" d="M60.8208 112.554H60.1742V165.497H60.8208V112.554Z"/><path fill="#274B5B" d="M61.4674 111.264H60.8208V165.497H61.4674V111.264Z" opacity=".2"/><path fill="#fff" d="M60.1742 112.554H59.5276V165.497H60.1742V112.554Z" opacity=".3"/><path fill="#274B5B" d="M64.5378 105.612H63.8912V153.39H64.5378V105.612Z"/><path fill="#274B5B" d="M65.1844 105.612H64.5378V153.39H65.1844V105.612Z" opacity=".2"/><path fill="#fff" d="M63.8912 105.612H63.2446V153.39H63.8912V105.612Z" opacity=".3"/><path fill="#A7594E" d="M130.481 193.261C127.01 193.256 123.682 191.875 121.229 189.422C118.777 186.968 117.399 183.644 117.399 180.177V167.433H120.956V180.174C120.956 181.775 121.36 183.349 122.13 184.753C122.899 186.157 124.011 187.344 125.361 188.206C126.711 189.068 128.257 189.577 129.856 189.686C131.456 189.794 133.056 189.499 134.511 188.827C135.966 188.155 137.228 187.129 138.18 185.842C139.133 184.555 139.746 183.049 139.963 181.463C140.18 179.878 139.993 178.263 139.42 176.769C138.847 175.274 137.907 173.947 136.686 172.911L138.989 170.205C140.963 171.881 142.395 174.104 143.104 176.593C143.813 179.082 143.768 181.725 142.972 184.188C142.177 186.651 140.669 188.822 138.637 190.429C136.606 192.036 134.143 193.005 131.56 193.215C131.201 193.246 130.841 193.261 130.481 193.261Z" opacity=".2"/><path fill="#F08778" d="M128.999 187.732C128.614 187.732 128.229 187.704 127.848 187.647L128.366 184.134C129.056 184.234 129.76 184.163 130.416 183.926C131.071 183.689 131.659 183.295 132.125 182.778C132.592 182.261 132.924 181.637 133.091 180.961C133.259 180.285 133.257 179.578 133.085 178.904C132.914 178.229 132.579 177.607 132.109 177.092C131.639 176.578 131.049 176.187 130.392 175.954C129.735 175.722 129.03 175.654 128.341 175.759C127.652 175.863 126.999 176.135 126.44 176.552L124.316 173.703C125.305 172.968 126.454 172.478 127.67 172.273C128.885 172.068 130.132 172.154 131.308 172.524C132.484 172.893 133.555 173.536 134.434 174.399C135.313 175.262 135.974 176.321 136.364 177.489C136.753 178.656 136.859 179.9 136.674 181.117C136.489 182.333 136.017 183.489 135.298 184.489C134.579 185.488 133.632 186.303 132.536 186.866C131.44 187.43 130.226 187.726 128.993 187.73L128.999 187.732Z" opacity=".2"/><path fill="#F08778" d="M130.171 165.497C131.599 165.497 132.757 164.341 132.757 162.915C132.757 161.489 131.599 160.333 130.171 160.333C128.742 160.333 127.584 161.489 127.584 162.915C127.584 164.341 128.742 165.497 130.171 165.497Z" opacity=".2"/><path fill="#fff" d="M135.258 177.263C135.19 177.479 135.052 177.666 134.864 177.793C134.994 177.88 135.143 177.936 135.298 177.955C135.453 177.975 135.611 177.959 135.759 177.908C135.907 177.856 136.041 177.771 136.15 177.659C136.259 177.547 136.341 177.411 136.389 177.263C140.914 163.508 150.525 123.741 120.546 99.4809L120.519 100.396C149.155 124.719 139.729 163.678 135.258 177.263Z"/><path fill="#26C8BC" d="M120.2 137.572C120.2 137.572 133.406 153.995 135.197 177.024C135.214 177.257 135.312 177.478 135.474 177.647C135.636 177.817 135.852 177.925 136.085 177.953C136.318 177.982 136.554 177.929 136.752 177.802C136.95 177.676 137.098 177.485 137.17 177.263C141.693 163.508 151.306 123.741 121.333 99.4809"/><path fill="#1B5A6E" d="M138.35 173.068C138.427 166.684 136.796 159.995 134.658 154.003C133.557 150.937 132.336 148.056 131.134 145.487C127.366 137.472 125.608 128.663 126.011 119.818C126.247 114.697 126.44 108.953 126.44 103.838C124.071 100.91 124.877 100.646 121.641 98.0279L120.508 136.119C120.508 136.119 133.714 152.542 135.505 175.571C135.513 175.712 135.552 175.85 135.618 175.976C135.685 176.101 135.778 176.21 135.891 176.296" opacity=".8"/><path fill="#274B5B" d="M138.334 149.992C138.222 149.992 138.112 149.959 138.019 149.897C137.926 149.834 137.853 149.746 137.81 149.643C137.767 149.539 137.756 149.426 137.778 149.316C137.8 149.206 137.854 149.105 137.933 149.026C138.012 148.947 138.113 148.893 138.223 148.871C138.333 148.849 138.447 148.86 138.551 148.903C138.654 148.946 138.743 149.019 138.805 149.112C138.867 149.205 138.901 149.314 138.901 149.426C138.901 149.576 138.841 149.72 138.735 149.826C138.628 149.932 138.484 149.992 138.334 149.992ZM138.334 149.184C138.286 149.184 138.239 149.199 138.199 149.225C138.159 149.252 138.129 149.289 138.11 149.334C138.092 149.378 138.087 149.426 138.096 149.473C138.106 149.52 138.129 149.563 138.163 149.597C138.197 149.631 138.24 149.654 138.287 149.663C138.334 149.673 138.382 149.668 138.427 149.649C138.471 149.631 138.509 149.6 138.535 149.56C138.562 149.521 138.576 149.474 138.576 149.426C138.574 149.363 138.547 149.304 138.502 149.26C138.457 149.217 138.397 149.193 138.334 149.193V149.184Z"/><path fill="#274B5B" d="M138.334 150.487C138.126 150.487 137.923 150.425 137.75 150.31C137.577 150.195 137.442 150.031 137.363 149.839C137.283 149.647 137.262 149.436 137.303 149.233C137.344 149.029 137.444 148.842 137.591 148.695C137.738 148.549 137.925 148.449 138.129 148.408C138.333 148.368 138.544 148.389 138.736 148.468C138.928 148.547 139.092 148.682 139.208 148.854C139.323 149.027 139.385 149.23 139.385 149.437C139.385 149.716 139.274 149.983 139.077 150.179C138.88 150.376 138.612 150.487 138.334 150.487ZM138.334 149.034C138.254 149.034 138.176 149.057 138.109 149.102C138.043 149.146 137.991 149.209 137.96 149.283C137.93 149.357 137.922 149.438 137.937 149.516C137.953 149.595 137.991 149.667 138.048 149.723C138.104 149.779 138.176 149.818 138.255 149.834C138.333 149.849 138.415 149.841 138.489 149.81C138.562 149.78 138.626 149.728 138.67 149.662C138.715 149.595 138.738 149.517 138.738 149.437C138.738 149.33 138.696 149.228 138.62 149.152C138.544 149.076 138.441 149.034 138.334 149.034Z" opacity=".2"/><path fill="#274B5B" d="M133.403 112.392H132.757V166.95H133.403V112.392Z"/><path fill="#274B5B" d="M132.757 112.23H132.11V162.428H132.757V112.23Z" opacity=".2"/><path fill="#fff" d="M134.05 114.008H133.403V166.951H134.05V114.008Z" opacity=".3"/><path fill="#274B5B" d="M129.686 107.065H129.04V154.843H129.686V107.065Z"/><path fill="#274B5B" d="M129.04 107.065H128.393V153.228H129.04V107.065Z" opacity=".2"/><path fill="#fff" d="M130.333 107.065H129.686V154.843H130.333V107.065Z" opacity=".3"/><path fill="#274B5B" d="M136.218 178.04C136.126 178.04 136.034 178.035 135.943 178.024C135.43 177.967 134.953 177.732 134.596 177.36C134.239 176.988 134.024 176.502 133.989 175.988C132.256 153.591 119.385 137.364 119.256 137.202L121.146 135.685C121.284 135.856 124.572 139.971 128.113 146.987C131.29 153.281 135.247 163.148 136.323 174.812C138.524 167.912 141.715 155.154 140.978 141.245C140.042 123.62 133.164 109.494 120.566 99.2916L122.093 97.4098C129.064 102.986 134.589 110.157 138.199 118.315C141.212 125.145 142.962 132.815 143.402 141.116C144.194 156.077 140.562 169.714 138.326 176.51C138.183 176.956 137.902 177.345 137.523 177.62C137.144 177.895 136.687 178.042 136.218 178.04Z"/><path fill="#F08778" d="M25.7386 213.759H14.2629C13.7911 213.759 13.3387 213.571 13.0051 213.238C12.6715 212.905 12.4841 212.454 12.4841 211.983C12.4841 211.512 12.6715 211.06 13.0051 210.727C13.3387 210.394 13.7911 210.206 14.2629 210.206H25.7386C26.2104 210.206 26.6628 210.394 26.9964 210.727C27.33 211.06 27.5174 211.512 27.5174 211.983C27.5174 212.454 27.33 212.905 26.9964 213.238C26.6628 213.571 26.2104 213.759 25.7386 213.759Z" opacity=".2"/><path fill="#A7594E" d="M76.3493 197.932C73.3016 197.941 70.325 197.014 67.8227 195.277C65.3206 193.54 63.4137 191.077 62.361 188.222C61.3084 185.366 61.1606 182.256 61.9379 179.314C62.7151 176.372 64.3797 173.739 66.7059 171.774L69.0088 174.48C67.5616 175.708 66.4473 177.28 65.7685 179.052C65.09 180.824 64.8691 182.737 65.1261 184.617C65.3831 186.496 66.1097 188.28 67.2391 189.805C68.3685 191.331 69.8642 192.547 71.5884 193.343C73.3127 194.139 75.2097 194.489 77.1051 194.361C79.0005 194.232 80.8326 193.63 82.4333 192.608C84.0337 191.586 85.3511 190.179 86.2634 188.515C87.176 186.852 87.6542 184.986 87.6545 183.089V155.165H91.2119V183.089C91.2119 187.023 89.6467 190.797 86.8604 193.579C84.0742 196.361 80.2952 197.923 76.3548 197.923L76.3493 197.932Z" opacity=".2"/><path fill="#F08778" d="M103.571 204.726C101.366 204.722 99.2529 203.846 97.6945 202.288C96.1364 200.731 95.2604 198.62 95.259 196.419V168.893H98.8165V196.419C98.817 197.218 99.019 198.004 99.4036 198.704C99.7883 199.405 100.343 199.998 101.018 200.428C101.692 200.858 102.464 201.112 103.262 201.165C104.061 201.22 104.86 201.072 105.586 200.737C106.312 200.401 106.943 199.889 107.418 199.246C107.894 198.604 108.2 197.852 108.309 197.06C108.417 196.269 108.324 195.463 108.038 194.716C107.753 193.97 107.284 193.307 106.674 192.79L108.977 190.084C110.232 191.149 111.142 192.561 111.593 194.142C112.044 195.724 112.015 197.403 111.51 198.968C111.005 200.533 110.047 201.913 108.756 202.934C107.465 203.955 105.9 204.571 104.259 204.704C104.027 204.719 103.798 204.726 103.571 204.726Z" opacity=".2"/><path fill="#F08778" d="M98.4864 155.328H94.929V163.882H98.4864V155.328Z" opacity=".2"/><path fill="#F08778" d="M77.2682 190.8C76.8833 190.8 76.4989 190.772 76.1181 190.715L76.6354 187.202C77.3254 187.302 78.0295 187.231 78.6854 186.994C79.341 186.757 79.9284 186.363 80.3951 185.846C80.8617 185.329 81.1935 184.705 81.3611 184.029C81.5283 183.353 81.5264 182.646 81.355 181.972C81.1836 181.297 80.8479 180.675 80.3783 180.16C79.9086 179.646 79.319 179.255 78.6617 179.022C78.0047 178.79 77.3001 178.722 76.6106 178.827C75.9214 178.931 75.2683 179.203 74.7095 179.62L72.5854 176.771C73.5745 176.036 74.724 175.546 75.9396 175.341C77.1551 175.136 78.402 175.222 79.5777 175.592C80.7536 175.961 81.8249 176.604 82.7037 177.467C83.5825 178.33 84.2439 179.389 84.6332 180.557C85.0225 181.724 85.129 182.968 84.9438 184.185C84.7587 185.401 84.2868 186.557 83.5676 187.557C82.8482 188.556 81.9017 189.371 80.8056 189.934C79.7097 190.498 78.4956 190.794 77.2627 190.798L77.2682 190.8Z" opacity=".2"/><path fill="#F08778" d="M107.216 185.996C106.098 185.996 105.004 185.665 104.074 185.044C103.143 184.424 102.419 183.542 101.99 182.51C101.562 181.478 101.45 180.342 101.668 179.246C101.887 178.151 102.425 177.144 103.216 176.354C104.008 175.565 105.015 175.027 106.113 174.809C107.21 174.591 108.348 174.703 109.381 175.13C110.415 175.558 111.298 176.282 111.92 177.21C112.541 178.139 112.873 179.231 112.873 180.348C112.871 181.846 112.274 183.281 111.214 184.34C110.154 185.398 108.716 185.994 107.216 185.996ZM107.216 178.249C106.801 178.249 106.394 178.372 106.049 178.603C105.703 178.834 105.433 179.162 105.274 179.545C105.115 179.929 105.074 180.351 105.155 180.758C105.236 181.165 105.436 181.539 105.73 181.832C106.024 182.126 106.399 182.326 106.806 182.407C107.214 182.488 107.637 182.446 108.021 182.287C108.405 182.129 108.733 181.859 108.964 181.514C109.195 181.169 109.318 180.763 109.318 180.348C109.318 179.792 109.096 179.258 108.702 178.865C108.308 178.472 107.774 178.25 107.216 178.249Z" opacity=".2"/><path fill="#F08778" d="M79.2382 171.631C78.12 171.629 77.0275 171.296 76.0986 170.674C75.1701 170.052 74.4467 169.169 74.0203 168.137C73.5936 167.105 73.483 165.97 73.7022 164.875C73.9215 163.78 74.4611 162.775 75.2521 161.986C76.0433 161.197 77.0511 160.66 78.1478 160.443C79.2448 160.226 80.3816 160.338 81.4145 160.765C82.4476 161.192 83.3305 161.916 83.952 162.844C84.5733 163.772 84.9053 164.864 84.9059 165.98C84.9045 167.48 84.3067 168.917 83.2438 169.977C82.181 171.037 80.7401 171.632 79.2382 171.631ZM79.2382 163.884C78.8224 163.884 78.4161 164.007 78.0702 164.238C77.7247 164.468 77.4553 164.796 77.2963 165.18C77.137 165.563 77.0954 165.985 77.1766 166.392C77.2578 166.799 77.4578 167.173 77.7519 167.467C78.0457 167.76 78.4202 167.96 78.8282 168.041C79.236 168.122 79.6586 168.081 80.0427 167.922C80.4267 167.763 80.755 167.494 80.9858 167.149C81.2169 166.804 81.3402 166.398 81.3402 165.983C81.3402 165.426 81.1187 164.892 80.7247 164.498C80.3305 164.104 79.7959 163.882 79.2382 163.881V163.884Z" opacity=".2"/><path fill="#F08778" d="M156.036 171.631C154.917 171.631 153.823 171.3 152.893 170.679C151.963 170.058 151.238 169.176 150.81 168.144C150.382 167.112 150.27 165.977 150.488 164.881C150.706 163.785 151.245 162.779 152.036 161.989C152.827 161.199 153.835 160.661 154.932 160.443C156.03 160.225 157.167 160.337 158.201 160.765C159.234 161.192 160.118 161.916 160.739 162.845C161.361 163.774 161.693 164.866 161.693 165.983C161.69 167.48 161.094 168.916 160.033 169.974C158.973 171.033 157.536 171.629 156.036 171.631ZM156.036 163.884C155.62 163.884 155.214 164.007 154.868 164.238C154.522 164.468 154.253 164.796 154.094 165.18C153.935 165.563 153.893 165.985 153.974 166.392C154.055 166.799 154.256 167.173 154.55 167.467C154.844 167.76 155.218 167.96 155.626 168.041C156.034 168.122 156.456 168.081 156.84 167.922C157.224 167.763 157.553 167.494 157.784 167.149C158.015 166.804 158.138 166.398 158.138 165.983C158.138 165.426 157.917 164.892 157.522 164.498C157.128 164.104 156.594 163.882 156.036 163.881V163.884Z" opacity=".2"/><path fill="#F08778" d="M45.3006 179.054C46.0148 179.054 46.5937 178.476 46.5937 177.763C46.5937 177.05 46.0148 176.472 45.3006 176.472C44.5863 176.472 44.0074 177.05 44.0074 177.763C44.0074 178.476 44.5863 179.054 45.3006 179.054Z" opacity=".2"/><path fill="#F08778" d="M117.399 201.169C118.113 201.169 118.692 200.59 118.692 199.877C118.692 199.164 118.113 198.586 117.399 198.586C116.685 198.586 116.106 199.164 116.106 199.877C116.106 200.59 116.685 201.169 117.399 201.169Z" opacity=".2"/><path fill="#A7594E" d="M160.886 206.011H157.329C157.326 203.486 156.32 201.065 154.532 199.28C152.744 197.495 150.319 196.49 147.79 196.487H145.366V192.935H147.79C151.262 192.939 154.591 194.318 157.047 196.769C159.502 199.221 160.883 202.545 160.886 206.011Z" opacity=".2"/><path fill="#F08778" d="M31.3982 206.696H27.8407C27.849 199.882 30.5634 193.349 35.3892 188.531C40.2148 183.712 46.7577 181.002 53.5821 180.994H58.716V184.546H53.5848C47.703 184.552 42.0642 186.888 37.9048 191.04C33.7456 195.193 31.4056 200.823 31.3982 206.696Z" opacity=".2"/><path fill="#F08778" d="M186.54 206.012H182.996C182.99 198.735 180.093 191.758 174.94 186.612C169.788 181.465 162.801 178.571 155.513 178.563H149.246V175.019H155.513C163.74 175.031 171.627 178.301 177.444 184.111C183.26 189.921 186.531 197.797 186.54 206.012Z" opacity=".2"/><path fill="#A7594E" d="M48.858 206.011H45.3005C45.3049 202.545 46.6858 199.222 49.1406 196.771C51.595 194.321 54.923 192.942 58.3941 192.937H60.818V196.489H58.3941C55.8662 196.493 53.4428 197.497 51.6553 199.282C49.8677 201.067 48.8619 203.487 48.858 206.011Z" opacity=".2"/><path fill="#F08778" d="M167.027 213.759H31.72C31.2484 213.759 30.7958 213.571 30.4624 213.238C30.1287 212.905 29.9413 212.454 29.9413 211.983C29.9413 211.512 30.1287 211.06 30.4624 210.727C30.7958 210.394 31.2484 210.206 31.72 210.206H167.027C167.499 210.206 167.951 210.394 168.285 210.727C168.619 211.06 168.806 211.512 168.806 211.983C168.806 212.454 168.619 212.905 168.285 213.238C167.951 213.571 167.499 213.759 167.027 213.759Z" opacity=".2"/><path fill="#F08778" d="M7.95682 213.758C7.84033 213.758 7.72414 213.746 7.61015 213.722C7.49633 213.7 7.3849 213.667 7.27724 213.624C7.16997 213.579 7.06688 213.524 6.96909 213.461C6.8706 213.396 6.77848 213.321 6.69396 213.239C6.52844 213.074 6.39748 212.878 6.30878 212.662C6.26558 212.554 6.2324 212.443 6.20973 212.329C6.16219 212.1 6.16219 211.864 6.20973 211.635C6.2324 211.521 6.26558 211.41 6.30878 211.302C6.35382 211.195 6.40813 211.092 6.47111 210.994C6.60124 210.8 6.76861 210.633 6.96359 210.503C7.06137 210.44 7.16447 210.386 7.27174 210.341C7.3794 210.297 7.49083 210.264 7.60465 210.242C7.8343 210.195 8.07108 210.195 8.30073 210.242C8.41453 210.264 8.52599 210.297 8.63364 210.341C8.74089 210.386 8.84401 210.44 8.94179 210.503C9.13678 210.633 9.30414 210.8 9.43428 210.994C9.49729 211.092 9.5516 211.195 9.59661 211.302C9.63997 211.41 9.67403 211.521 9.69841 211.635C9.74378 211.864 9.74378 212.1 9.69841 212.329C9.67403 212.443 9.63997 212.554 9.59661 212.662C9.5516 212.769 9.49729 212.872 9.43428 212.97C9.3694 213.068 9.29476 213.16 9.21142 213.245C9.12693 213.327 9.03481 213.402 8.93629 213.467C8.83851 213.53 8.73539 213.584 8.62814 213.629C8.52048 213.672 8.40903 213.705 8.29523 213.728C8.18375 213.749 8.07037 213.76 7.95682 213.758Z" opacity=".2"/><path fill="#F08778" d="M185.131 213.759H173.655C173.183 213.759 172.731 213.571 172.398 213.238C172.064 212.905 171.877 212.454 171.877 211.983C171.877 211.512 172.064 211.06 172.398 210.727C172.731 210.394 173.183 210.206 173.655 210.206H185.131C185.603 210.206 186.055 210.394 186.389 210.727C186.722 211.06 186.91 211.512 186.91 211.983C186.91 212.454 186.722 212.905 186.389 213.238C186.055 213.571 185.603 213.759 185.131 213.759Z" opacity=".2"/><path fill="#F08778" d="M191.437 213.758C191.321 213.759 191.204 213.746 191.09 213.723C190.977 213.7 190.865 213.667 190.758 213.624C190.65 213.579 190.547 213.524 190.449 213.462C190.351 213.396 190.259 213.322 190.174 213.239C190.091 213.155 190.016 213.063 189.951 212.964C189.888 212.867 189.834 212.764 189.789 212.657C189.746 212.549 189.712 212.438 189.687 212.324C189.642 212.095 189.642 211.859 189.687 211.629C189.712 211.516 189.746 211.405 189.789 211.297C189.834 211.19 189.888 211.087 189.951 210.989C190.082 210.794 190.249 210.627 190.444 210.497C190.542 210.435 190.645 210.38 190.752 210.335C190.86 210.292 190.971 210.259 191.085 210.236C191.315 210.189 191.551 210.189 191.781 210.236C191.895 210.259 192.006 210.292 192.114 210.335C192.221 210.38 192.324 210.435 192.422 210.497C192.617 210.627 192.784 210.794 192.915 210.989C192.978 211.087 193.032 211.19 193.077 211.297C193.12 211.404 193.153 211.516 193.176 211.629C193.224 211.858 193.224 212.095 193.176 212.324C193.153 212.438 193.12 212.549 193.077 212.657C193.032 212.764 192.978 212.867 192.915 212.964C192.85 213.063 192.775 213.155 192.692 213.239C192.607 213.322 192.515 213.396 192.417 213.462C192.319 213.524 192.216 213.579 192.108 213.624C192.001 213.667 191.889 213.7 191.776 213.723C191.664 213.746 191.551 213.758 191.437 213.758Z" opacity=".2"/><path fill="#274B5B" d="M57.255 177.878C56.7873 177.879 56.3314 177.732 55.9534 177.456C55.5756 177.181 55.2952 176.793 55.153 176.348C52.9134 169.552 49.2817 155.918 50.074 140.954C50.5143 132.653 52.2751 124.983 55.2768 118.153C58.8871 109.995 64.4115 102.824 71.383 97.2477L72.91 99.1295C60.3007 109.335 53.4307 123.45 52.4952 141.083C51.7579 154.992 54.9714 167.75 57.1505 174.65C58.2262 162.989 62.1826 153.118 65.3604 146.825C68.9041 139.809 72.1892 135.694 72.3267 135.523L74.2169 137.04C74.1674 137.103 70.9153 141.188 67.4927 147.979C64.3369 154.242 60.386 164.156 59.4836 175.826C59.4486 176.34 59.234 176.826 58.8769 177.198C58.5198 177.57 58.0433 177.805 57.5301 177.862C57.4388 177.873 57.3469 177.878 57.255 177.878Z"/><path fill="#26C8BC" d="M99.6722 2.60994C99.3349 2.22903 98.9203 1.92403 98.4559 1.71514C97.9914 1.50625 97.4879 1.39822 96.9787 1.39822C96.4694 1.39822 95.9659 1.50625 95.5015 1.71514C95.0371 1.92403 94.6224 2.22903 94.2851 2.60994C86.5236 11.3815 64.6561 39.5916 64.6561 79.0209C64.6561 117.615 73.0394 134.947 76.308 140.235C77.0068 141.364 78.5283 142.092 80.1873 142.092H113.773C115.44 142.092 116.959 141.369 117.652 140.235C120.921 134.947 129.312 117.615 129.312 79.0209C129.312 39.5916 107.436 11.3815 99.6722 2.60994Z"/><path fill="#274B5B" d="M97.1933 35.2402H96.5468V141.77H97.1933V35.2402Z"/><path fill="#274B5B" d="M96.5467 35.2402H95.9001V141.77H96.5467V35.2402Z" opacity=".2"/><path fill="#fff" d="M97.8398 35.2402H97.1932V141.77H97.8398V35.2402Z" opacity=".3"/><path fill="#ECF2FA" d="M118.37 34.2702H74.8993C77.5499 27.9024 80.6606 21.7353 84.207 15.8179C84.5171 15.3014 84.8241 14.7968 85.1287 14.3042C91.3247 5.0437 96.0707 0 96.0707 0C96.0707 0 102.674 7.01338 110.457 19.6913L110.57 19.8781C113.126 24.0977 115.787 28.9106 118.37 34.2702Z"/><path fill="#8BBACC" d="M118.045 33.8038L115.668 33.4631C111.742 27.7299 100.883 16.0299 85.9155 14.4173C86.1907 13.9008 87.2912 12.846 87.5663 12.3542C89.7151 8.82693 91.6713 6.45617 93.2698 4.19805C93.6954 3.59322 94.2586 3.09788 94.9135 2.75282C95.5683 2.40773 96.2954 2.22276 97.0358 2.21311C97.7762 2.20345 98.5081 2.36939 99.1717 2.69727C99.835 3.02514 100.411 3.50561 100.852 4.09915C104.23 8.60304 107.304 13.3266 110.053 18.2385C110.086 18.299 110.444 18.3622 110.479 18.4253C112.804 22.6449 117.077 25.2492 118.045 33.8038Z"/><path fill="#fff" d="M81.4392 30.1435C81.2992 30.1432 81.1616 30.1067 81.04 30.0375C80.9184 29.9683 80.8169 29.8688 80.7453 29.7488C80.6738 29.6284 80.6347 29.4919 80.632 29.3521C80.6292 29.2122 80.6628 29.0743 80.7294 28.9513C81.5163 27.5063 82.3802 26.0531 83.2413 24.6494C84.0667 23.2758 84.9142 21.8775 85.6735 20.493C85.7805 20.3137 85.9531 20.1828 86.1547 20.1277C86.3564 20.0726 86.5715 20.0975 86.7551 20.1974C86.9389 20.2972 87.0764 20.4641 87.1394 20.6632C87.2027 20.8622 87.1859 21.0779 87.0932 21.2649C86.3201 22.6824 85.4589 24.1054 84.617 25.4818C83.7751 26.8581 82.9112 28.3057 82.1408 29.7205C82.0723 29.8471 81.9711 29.9529 81.8478 30.0273C81.7243 30.1018 81.5834 30.1419 81.4392 30.1435Z"/><g opacity=".4"><path fill="#426270" d="M105.049 63.4748C106.089 61.7935 106.826 60.3678 106.939 60.4172C107.051 60.4667 106.454 61.9831 105.398 63.689C104.341 65.395 103.255 66.6092 103.169 66.5405C103.084 66.4719 104.017 65.1615 105.049 63.4748Z" opacity=".4"/><path fill="#426270" d="M106.915 64.9923C107.589 63.8583 108.055 62.8918 107.957 62.8339C107.859 62.7756 107.234 63.6481 106.56 64.7821C105.887 65.9161 105.42 66.8823 105.518 66.9405C105.616 66.9985 106.242 66.1263 106.915 64.9923Z" opacity=".4"/><path fill="#426270" d="M105.458 64.5931C106.977 65.2057 108.245 65.6288 108.209 65.7414C108.174 65.854 106.834 65.6013 105.299 64.975C103.763 64.3486 102.611 63.6014 102.666 63.5135C102.721 63.4256 103.937 63.986 105.458 64.5931Z" opacity=".4"/><path fill="#426270" d="M106.894 64.1802C108.27 64.8258 109.434 65.2324 109.401 65.345C109.368 65.4576 108.13 65.2104 106.721 64.5538C105.312 63.8973 104.325 63.1006 104.388 63.0182C104.451 62.9358 105.519 63.5456 106.894 64.1802Z" opacity=".4"/></g><path fill="#F6DF9E" d="M86.5621 142.899H80.666C78.9987 142.899 77.48 142.174 76.7867 141.039C73.5209 135.737 65.1376 118.365 65.1376 79.6769C65.1376 41.7915 85.2222 14.2379 93.7513 4.27411C86.1109 13.3121 69.5672 37.2396 69.5672 74.9437L79.2656 61.3565C79.0648 61.8839 59.4781 118.771 86.5621 142.899Z"/><path fill="#fff" d="M82.6057 142.171H80.9879C79.3206 142.171 77.8019 141.446 77.1086 140.312C73.8428 135.01 65.4595 117.637 65.4595 78.9493C65.4595 41.0638 85.5441 13.5102 94.0567 3.55194C89.7179 8.68629 82.4792 18.6611 77.0535 33.2208C71.4876 45.69 67.0717 61.1782 67.0717 78.9328C67.0717 117.623 75.455 134.996 78.7208 140.295C79.4224 141.446 80.9412 142.171 82.6057 142.171Z"/><path fill="#1B5A6E" d="M106.413 142.092H112.309C113.976 142.092 115.495 141.369 116.188 140.237C119.454 134.952 127.838 117.629 127.838 79.0509C127.838 41.2808 107.753 13.8016 99.2238 3.86526C106.864 12.8758 125.188 36.7289 125.188 74.3313L116.794 60.7826C116.984 61.31 133.5 118.032 106.413 142.092Z" opacity=".8"/><g opacity=".9"><path fill="#fff" d="M76.3795 47.0278C76.6555 45.9493 76.987 44.8856 77.3728 43.8411C77.6914 42.9865 78.059 42.1511 78.4733 41.3385C79.1859 39.965 79.8022 39.1821 80.0581 39.2892C80.3139 39.3963 80.1901 40.3633 79.8407 41.8385C79.6674 42.5775 79.4473 43.4538 79.1941 44.4071L78.377 47.525L77.5874 50.665C77.3508 51.6347 77.1279 52.4973 76.9298 53.2308C76.5309 54.695 76.1897 55.6043 75.9036 55.5768C75.6174 55.5493 75.4496 54.5796 75.4854 53.022C75.5123 52.1124 75.5913 51.2053 75.722 50.3051C75.8846 49.2021 76.1041 48.1082 76.3795 47.0278Z" opacity=".9"/></g><g opacity=".9"><path fill="#fff" d="M75.668 59.5719C75.9057 58.2566 75.6438 57.1083 75.083 57.0075C74.5223 56.9064 73.8749 57.8907 73.6372 59.206C73.3995 60.5216 73.6612 61.6699 74.2222 61.7707C74.7829 61.8718 75.43 60.8875 75.668 59.5719Z" opacity=".9"/></g><g opacity=".2"><path fill="#426270" d="M91.9904 10.0876C93.3303 9.11791 94.5767 8.27455 95.4901 7.69491C96.4035 7.11527 96.9923 6.78012 97.0253 6.83232C97.0584 6.88451 96.5274 7.29108 95.6497 7.93116L92.227 10.4036L88.8126 12.9117C87.9322 13.5435 87.3765 13.9226 87.3407 13.8814C87.3049 13.8402 87.7974 13.3787 88.6338 12.6864C89.4702 11.9941 90.6505 11.0629 91.9904 10.0876Z" opacity=".2"/><path fill="#426270" d="M92.4857 11.6594C95.4324 10.5303 97.8068 9.58257 97.8535 9.68971C97.8755 9.7419 97.3033 10.0468 96.3706 10.4809C95.4379 10.9149 94.1062 11.4781 92.6343 12.044C91.1623 12.6099 89.7976 13.0741 88.8072 13.3736C87.8167 13.673 87.1894 13.8269 87.1729 13.7747C87.1316 13.6648 89.5418 12.7884 92.4857 11.6594Z" opacity=".2"/></g><path fill="#274B5B" d="M94.0402 53.7198C93.9283 53.7198 93.8188 53.6865 93.7255 53.6244C93.6322 53.5621 93.5596 53.4736 93.5167 53.3703C93.4738 53.267 93.4625 53.153 93.4845 53.0434C93.5062 52.9335 93.5601 52.8327 93.6397 52.7536C93.7189 52.6745 93.8199 52.6206 93.9297 52.5987C94.0397 52.577 94.1536 52.5882 94.2573 52.6308C94.3608 52.6737 94.4494 52.7462 94.5116 52.8393C94.5737 52.9324 94.607 53.0418 94.607 53.1539C94.607 53.3039 94.5473 53.4478 94.4411 53.5538C94.3349 53.6602 94.1907 53.7198 94.0402 53.7198ZM94.0402 52.9121C93.9924 52.9121 93.9456 52.9261 93.9057 52.9528C93.8661 52.9794 93.835 53.0171 93.8166 53.0613C93.7984 53.1055 93.7935 53.1541 93.8028 53.2008C93.8122 53.2478 93.8353 53.2909 93.8691 53.3247C93.903 53.3585 93.9462 53.3816 93.9932 53.3909C94.04 53.4003 94.0887 53.3953 94.133 53.3772C94.1773 53.3588 94.215 53.3278 94.2417 53.2882C94.2683 53.2484 94.2824 53.2017 94.2824 53.1539C94.2824 53.0896 94.2571 53.028 94.2114 52.9827C94.166 52.9374 94.1046 52.9121 94.0402 52.9121Z"/><path fill="#274B5B" d="M94.0403 54.2038C93.8323 54.2038 93.6292 54.1423 93.4564 54.0269C93.2837 53.9115 93.1488 53.7478 93.0693 53.556C92.9898 53.3643 92.9689 53.1533 93.0094 52.9498C93.0501 52.7462 93.1502 52.5591 93.2971 52.4124C93.4441 52.2655 93.6314 52.1657 93.8353 52.1251C94.0392 52.0847 94.2505 52.1056 94.4425 52.185C94.6346 52.2644 94.7985 52.3987 94.9141 52.5715C95.0297 52.744 95.0913 52.9467 95.0913 53.1544C95.0913 53.4327 94.9807 53.6997 94.7834 53.8964C94.5864 54.0931 94.319 54.2038 94.0403 54.2038ZM94.0403 52.7506C93.9602 52.7506 93.8821 52.7742 93.8155 52.8187C93.7492 52.863 93.6972 52.9261 93.6666 52.9998C93.6361 53.0737 93.6281 53.155 93.6435 53.2333C93.6592 53.3116 93.6977 53.3835 93.7544 53.4398C93.8108 53.4964 93.8829 53.5349 93.9613 53.5506C94.0397 53.5659 94.1212 53.558 94.1952 53.5275C94.2689 53.497 94.3322 53.4451 94.3765 53.3789C94.4211 53.3124 94.4447 53.2344 94.4447 53.1544C94.4455 53.1009 94.4356 53.0478 94.4156 52.9981C94.3955 52.9487 94.3657 52.9033 94.3283 52.8651C94.2906 52.8272 94.2458 52.797 94.1963 52.7764C94.147 52.7558 94.0939 52.7451 94.0403 52.7451V52.7506Z" opacity=".2"/><path fill="#274B5B" d="M94.0402 42.6626C93.9283 42.6626 93.8188 42.6294 93.7255 42.5673C93.6322 42.505 93.5596 42.4165 93.5167 42.3132C93.4738 42.2099 93.4625 42.0959 93.4845 41.9863C93.5062 41.8764 93.5601 41.7756 93.6397 41.6965C93.7189 41.6174 93.8199 41.5635 93.9297 41.5415C94.0397 41.5198 94.1536 41.5311 94.2573 41.5737C94.3608 41.6165 94.4494 41.6891 94.5116 41.7822C94.5737 41.8753 94.607 41.9846 94.607 42.0967C94.607 42.2467 94.5473 42.3907 94.4411 42.4967C94.3349 42.603 94.1907 42.6626 94.0402 42.6626ZM94.0402 41.855C93.9924 41.855 93.9456 41.869 93.9057 41.8956C93.8661 41.9223 93.835 41.9599 93.8166 42.0042C93.7984 42.0484 93.7935 42.097 93.8028 42.1437C93.8122 42.1907 93.8353 42.2338 93.8691 42.2676C93.903 42.3014 93.9462 42.3245 93.9932 42.3338C94.04 42.3431 94.0887 42.3382 94.133 42.3201C94.1773 42.3017 94.215 42.2706 94.2417 42.2311C94.2683 42.1912 94.2824 42.1445 94.2824 42.0967C94.2818 42.033 94.256 41.9723 94.2106 41.9275C94.1652 41.8827 94.1041 41.8577 94.0402 41.8577V41.855Z"/><path fill="#274B5B" d="M94.0403 43.1489C93.8323 43.1489 93.6292 43.0874 93.4564 42.972C93.2837 42.8566 93.1488 42.6929 93.0693 42.5011C92.9898 42.3094 92.9689 42.0981 93.0094 41.8946C93.0501 41.691 93.1502 41.5042 93.2971 41.3575C93.4441 41.2105 93.6314 41.1105 93.8353 41.0702C94.0392 41.0298 94.2505 41.0504 94.4425 41.1298C94.6346 41.2094 94.7985 41.3438 94.9141 41.5163C95.0297 41.6891 95.0913 41.8918 95.0913 42.0995C95.0913 42.3778 94.9807 42.6445 94.7834 42.8415C94.5864 43.0382 94.319 43.1489 94.0403 43.1489ZM94.0403 41.6957C93.9602 41.6957 93.8821 41.7193 93.8155 41.7635C93.7492 41.808 93.6972 41.8712 93.6666 41.9448C93.6361 42.0187 93.6281 42.0998 93.6435 42.1781C93.6592 42.2566 93.6977 42.3286 93.7544 42.3849C93.8108 42.4415 93.8829 42.48 93.9613 42.4954C94.0397 42.511 94.1212 42.503 94.1952 42.4726C94.2689 42.4421 94.3322 42.3901 94.3765 42.3237C94.4211 42.2575 94.4447 42.1792 94.4447 42.0995C94.4447 41.9924 94.4021 41.8896 94.3261 41.8138C94.2505 41.7383 94.1476 41.6957 94.0403 41.6957Z" opacity=".2"/><path fill="#274B5B" d="M99.697 46.2144C99.585 46.2144 99.4755 46.1814 99.3822 46.1191C99.289 46.057 99.2163 45.9685 99.1734 45.8652C99.1305 45.7617 99.1192 45.6479 99.1412 45.5381C99.163 45.4284 99.2172 45.3276 99.2964 45.2485C99.3756 45.1694 99.4766 45.1153 99.5864 45.0936C99.6964 45.0716 99.8103 45.0829 99.9141 45.1257C100.018 45.1686 100.106 45.2411 100.168 45.3342C100.23 45.4273 100.264 45.5367 100.264 45.6485C100.264 45.7229 100.249 45.7966 100.221 45.8652C100.192 45.9339 100.15 45.9963 100.098 46.0487C100.045 46.1012 99.9829 46.143 99.9141 46.1715C99.8453 46.1998 99.7715 46.2144 99.697 46.2144ZM99.697 45.4067C99.6491 45.4067 99.6023 45.421 99.5625 45.4477C99.5228 45.474 99.4917 45.512 99.4733 45.5562C99.4551 45.6001 99.4502 45.6488 99.4596 45.6957C99.4689 45.7427 99.492 45.7858 99.5259 45.8196C99.5597 45.8534 99.6029 45.8765 99.6499 45.8856C99.6967 45.8949 99.7454 45.8902 99.7897 45.8718C99.834 45.8537 99.8717 45.8227 99.8984 45.7828C99.9251 45.7433 99.9391 45.6963 99.9391 45.6485C99.9391 45.5845 99.9138 45.5229 99.8684 45.4776C99.823 45.4323 99.7614 45.4067 99.697 45.4067Z"/><path fill="#274B5B" d="M99.697 46.7006C99.489 46.7006 99.286 46.6391 99.1132 46.524C98.9404 46.4086 98.8056 46.2446 98.7261 46.0529C98.6466 45.8611 98.6256 45.6501 98.6661 45.4466C98.7068 45.243 98.807 45.0559 98.9539 44.9092C99.1008 44.7625 99.2882 44.6625 99.492 44.6222C99.6959 44.5815 99.9072 44.6024 100.099 44.6818C100.291 44.7612 100.456 44.8958 100.571 45.0683C100.686 45.2408 100.748 45.4438 100.748 45.6512C100.748 45.9295 100.637 46.1965 100.44 46.3935C100.243 46.5902 99.9757 46.7006 99.697 46.7006ZM99.697 45.2474C99.6169 45.2474 99.5388 45.2713 99.4722 45.3155C99.4059 45.36 99.3539 45.4229 99.3234 45.4968C99.2928 45.5705 99.2849 45.6518 99.3003 45.7301C99.316 45.8084 99.3545 45.8803 99.4112 45.9369C99.4676 45.9932 99.5396 46.0317 99.618 46.0474C99.6965 46.063 99.7779 46.0551 99.8519 46.0243C99.9256 45.9938 99.9889 45.9421 100.033 45.8757C100.078 45.8092 100.101 45.7312 100.101 45.6512C100.101 45.5444 100.059 45.4416 99.9829 45.3658C99.9072 45.29 99.8043 45.2474 99.697 45.2474Z" opacity=".2"/><path fill="#274B5B" d="M99.697 86.4049C99.585 86.4049 99.4755 86.3717 99.3822 86.3096C99.289 86.2475 99.2163 86.159 99.1734 86.0555C99.1305 85.9522 99.1192 85.8385 99.1412 85.7286C99.163 85.619 99.2172 85.5181 99.2964 85.439C99.3756 85.3596 99.4766 85.3058 99.5864 85.2841C99.6964 85.2621 99.8103 85.2734 99.9141 85.3162C100.018 85.3591 100.106 85.4316 100.168 85.5247C100.23 85.6176 100.264 85.7272 100.264 85.839C100.264 85.9893 100.204 86.1329 100.098 86.2393C99.9917 86.3453 99.8475 86.4049 99.697 86.4049ZM99.697 85.5973C99.6491 85.5973 99.6023 85.6115 99.5625 85.6379C99.5228 85.6646 99.4917 85.7025 99.4733 85.7464C99.4551 85.7907 99.4502 85.8393 99.4596 85.8863C99.4689 85.9332 99.492 85.9761 99.5259 86.0099C99.5597 86.0437 99.6029 86.0667 99.6499 86.0761C99.6967 86.0854 99.7454 86.0807 99.7897 86.0623C99.834 86.0442 99.8717 86.0132 99.8984 85.9733C99.9251 85.9335 99.9391 85.8868 99.9391 85.839C99.9386 85.7755 99.9127 85.7146 99.8673 85.6698C99.8219 85.625 99.7608 85.6 99.697 85.6V85.5973Z"/><path fill="#274B5B" d="M99.697 86.8911C99.489 86.8911 99.286 86.8296 99.1132 86.7142C98.9404 86.5991 98.8056 86.4351 98.7261 86.2434C98.6466 86.0516 98.6256 85.8406 98.6661 85.6371C98.7068 85.4335 98.807 85.2464 98.9539 85.0997C99.1008 84.9531 99.2882 84.8531 99.492 84.8127C99.6959 84.772 99.9072 84.7929 100.099 84.8723C100.291 84.9517 100.456 85.0863 100.571 85.2588C100.686 85.4313 100.748 85.6343 100.748 85.8417C100.748 86.12 100.637 86.387 100.44 86.5837C100.243 86.7807 99.9757 86.8911 99.697 86.8911ZM99.697 85.4379C99.6169 85.4379 99.5388 85.4615 99.4722 85.506C99.4059 85.5503 99.3539 85.6135 99.3234 85.6874C99.2928 85.761 99.2849 85.8423 99.3003 85.9206C99.316 85.9989 99.3545 86.0709 99.4112 86.1274C99.4676 86.1838 99.5396 86.2222 99.618 86.2379C99.6965 86.2535 99.7779 86.2456 99.8519 86.2148C99.9256 86.1843 99.9889 86.1327 100.033 86.0662C100.078 85.9997 100.101 85.9217 100.101 85.8417C100.102 85.7885 100.092 85.7357 100.071 85.6865C100.051 85.6371 100.022 85.5923 99.984 85.5544C99.9463 85.5168 99.9017 85.4868 99.8525 85.4662C99.8032 85.4459 99.7504 85.4352 99.697 85.4352V85.4379Z" opacity=".2"/><path fill="#274B5B" d="M99.873 94.6377C99.761 94.6377 99.6515 94.6045 99.5583 94.5424C99.465 94.48 99.3924 94.3919 99.3494 94.2883C99.3065 94.185 99.2955 94.0713 99.3173 93.9614C99.3393 93.8515 99.3932 93.7507 99.4724 93.6716C99.5517 93.5924 99.6526 93.5386 99.7627 93.5166C99.8725 93.4949 99.9864 93.5062 100.09 93.549C100.194 93.5919 100.282 93.6644 100.344 93.7573C100.407 93.8504 100.44 93.9597 100.44 94.0718C100.44 94.2218 100.38 94.3658 100.274 94.4721C100.168 94.5781 100.024 94.6377 99.873 94.6377ZM99.873 93.8301C99.8251 93.8301 99.7784 93.8444 99.7387 93.8707C99.6989 93.8974 99.6678 93.935 99.6493 93.9792C99.6312 94.0235 99.6262 94.0721 99.6356 94.1191C99.6449 94.1658 99.668 94.2089 99.7019 94.2427C99.7357 94.2765 99.7789 94.2996 99.826 94.3089C99.8727 94.3182 99.9214 94.3136 99.9657 94.2952C100.01 94.2768 100.048 94.246 100.074 94.2062C100.101 94.1663 100.115 94.1196 100.115 94.0718C100.115 94.0078 100.09 93.9463 100.044 93.9009C99.999 93.8556 99.9374 93.8301 99.873 93.8301Z"/><path fill="#274B5B" d="M99.8731 95.1218C99.6654 95.1218 99.462 95.0602 99.2892 94.9449C99.1165 94.8298 98.9817 94.6658 98.9021 94.474C98.8226 94.2823 98.8017 94.0713 98.8424 93.8677C98.8829 93.6642 98.983 93.4771 99.1299 93.3304C99.2769 93.1837 99.4642 93.0837 99.6681 93.043C99.872 93.0026 100.083 93.0235 100.275 93.1029C100.467 93.1823 100.632 93.3169 100.747 93.4894C100.862 93.662 100.924 93.865 100.924 94.0724C100.924 94.3507 100.813 94.6177 100.616 94.8144C100.419 95.0113 100.152 95.1218 99.8731 95.1218ZM99.8731 93.6685C99.793 93.6685 99.7149 93.6922 99.6486 93.7367C99.582 93.7809 99.53 93.8441 99.4994 93.918C99.4689 93.9916 99.4609 94.0729 99.4763 94.1512C99.492 94.2295 99.5305 94.3015 99.5872 94.3581C99.6436 94.4144 99.7157 94.4528 99.7941 94.4685C99.8728 94.4842 99.954 94.4759 100.028 94.4454C100.102 94.4149 100.165 94.3633 100.209 94.2968C100.254 94.2303 100.278 94.1523 100.278 94.0724C100.275 93.9666 100.232 93.8661 100.156 93.7922C100.081 93.7183 99.979 93.6768 99.8731 93.6768V93.6685Z" opacity=".2"/><path fill="#274B5B" d="M93.545 84.1471C93.433 84.1471 93.3235 84.1141 93.2303 84.0517C93.137 83.9896 93.0644 83.9012 93.0214 83.7979C92.9785 83.6943 92.9675 83.5806 92.9892 83.471C93.0113 83.3611 93.0652 83.2603 93.1444 83.1812C93.2237 83.1021 93.3246 83.0479 93.4347 83.0262C93.5445 83.0045 93.6584 83.0155 93.7621 83.0584C93.8655 83.1012 93.9541 83.1738 94.0163 83.2669C94.0788 83.36 94.1118 83.4693 94.1118 83.5812C94.1118 83.7314 94.0521 83.8754 93.9459 83.9814C93.8397 84.0874 93.6955 84.1471 93.545 84.1471ZM93.545 83.3394C93.4971 83.3394 93.4504 83.3537 93.4107 83.3803C93.3709 83.4067 93.3398 83.4446 93.3213 83.4889C93.3032 83.5328 93.2982 83.5814 93.3076 83.6284C93.3169 83.6754 93.34 83.7185 93.3739 83.7523C93.4077 83.7861 93.4509 83.8092 93.498 83.8185C93.5447 83.8276 93.5934 83.8229 93.6377 83.8045C93.682 83.7864 93.7197 83.7553 93.7464 83.7155C93.7731 83.6759 93.7871 83.629 93.7871 83.5812C93.7871 83.5171 93.7618 83.4556 93.7164 83.4103C93.671 83.365 93.6094 83.3394 93.545 83.3394Z"/><path fill="#274B5B" d="M93.545 84.6303C93.3372 84.6303 93.1339 84.5687 92.9611 84.4533C92.7883 84.338 92.6535 84.1742 92.574 83.9825C92.4945 83.7907 92.4736 83.5795 92.5143 83.3759C92.5548 83.1724 92.6549 82.9856 92.8018 82.8389C92.9487 82.6919 93.1361 82.5919 93.34 82.5515C93.5439 82.5111 93.7552 82.5317 93.9472 82.6111C94.1392 82.6908 94.3035 82.8251 94.4188 82.9977C94.5343 83.1705 94.596 83.3732 94.596 83.5809C94.596 83.8591 94.4854 84.1259 94.2881 84.3229C94.0911 84.5196 93.8237 84.6303 93.545 84.6303ZM93.545 83.177C93.4649 83.177 93.3867 83.2007 93.3204 83.2449C93.2539 83.2894 93.2019 83.3526 93.1713 83.4262C93.1408 83.5001 93.1328 83.5811 93.1482 83.6594C93.1639 83.738 93.2024 83.81 93.2591 83.8663C93.3155 83.9229 93.3876 83.9613 93.466 83.9767C93.5447 83.9924 93.6258 83.9844 93.6998 83.9539C93.7736 83.9234 93.8369 83.8715 93.8812 83.805C93.9257 83.7388 93.9494 83.6605 93.9494 83.5809C93.9494 83.4737 93.9068 83.371 93.8311 83.2952C93.7552 83.2196 93.6523 83.177 93.545 83.177Z" opacity=".2"/><path fill="#274B5B" d="M93.545 92.3766C93.433 92.3766 93.3235 92.3436 93.2303 92.2813C93.137 92.2192 93.0644 92.1307 93.0214 92.0274C92.9785 91.9239 92.9675 91.8101 92.9892 91.7005C93.0113 91.5906 93.0652 91.4898 93.1444 91.4107C93.2237 91.3316 93.3246 91.2777 93.4347 91.2558C93.5445 91.2341 93.6584 91.245 93.7621 91.2879C93.8655 91.3308 93.9541 91.4033 94.0163 91.4964C94.0788 91.5895 94.1118 91.6989 94.1118 91.8107C94.1118 91.9609 94.0521 92.1049 93.9459 92.2109C93.8397 92.317 93.6955 92.3766 93.545 92.3766ZM93.545 91.5689C93.4971 91.5689 93.4504 91.5832 93.4107 91.6099C93.3709 91.6362 93.3398 91.6741 93.3213 91.7184C93.3032 91.7623 93.2982 91.811 93.3076 91.8579C93.3169 91.9049 93.34 91.948 93.3739 91.9818C93.4077 92.0156 93.4509 92.0387 93.498 92.048C93.5447 92.0571 93.5934 92.0524 93.6377 92.034C93.682 92.0159 93.7197 91.9848 93.7464 91.945C93.7731 91.9054 93.7871 91.8585 93.7871 91.8107C93.7866 91.7472 93.7607 91.6865 93.7153 91.6417C93.6699 91.5969 93.6088 91.5717 93.545 91.5717V91.5689Z"/><path fill="#274B5B" d="M93.545 92.8521C93.3372 92.8521 93.1339 92.7906 92.9611 92.6755C92.7883 92.5601 92.6535 92.3961 92.574 92.2043C92.4945 92.0126 92.4736 91.8016 92.5143 91.598C92.5548 91.3945 92.6549 91.2074 92.8018 91.0607C92.9487 90.914 93.1361 90.814 93.34 90.7736C93.5439 90.733 93.7552 90.7539 93.9472 90.8333C94.1392 90.9126 94.3035 91.0473 94.4188 91.2198C94.5343 91.3923 94.596 91.5953 94.596 91.8027C94.596 92.081 94.4854 92.348 94.2881 92.545C94.0911 92.7417 93.8237 92.8521 93.545 92.8521ZM93.545 91.3989C93.4649 91.3989 93.3867 91.4228 93.3204 91.467C93.2539 91.5115 93.2019 91.5744 93.1713 91.6483C93.1408 91.7219 93.1328 91.8033 93.1482 91.8816C93.1639 91.9598 93.2024 92.0318 93.2591 92.0884C93.3155 92.1447 93.3876 92.1832 93.466 92.1988C93.5447 92.2145 93.6258 92.2065 93.6998 92.1758C93.7736 92.1453 93.8369 92.0936 93.8812 92.0272C93.9257 91.9607 93.9494 91.8826 93.9494 91.8027C93.9466 91.6975 93.9026 91.5978 93.8272 91.5244C93.7516 91.4511 93.6503 91.4099 93.545 91.4099V91.3989Z" opacity=".2"/><path fill="#274B5B" d="M94.0402 64.7769C93.9283 64.7769 93.8188 64.7437 93.7255 64.6816C93.6322 64.6192 93.5596 64.5308 93.5167 64.4275C93.4738 64.3242 93.4625 64.2102 93.4845 64.1006C93.5062 63.9907 93.5601 63.8899 93.6397 63.8107C93.7189 63.7316 93.8199 63.6778 93.9297 63.6558C94.0397 63.6341 94.1536 63.6454 94.2573 63.6879C94.3608 63.7308 94.4494 63.8033 94.5116 63.8964C94.5737 63.9896 94.607 64.0989 94.607 64.211C94.607 64.361 94.5473 64.5049 94.4411 64.611C94.3349 64.7173 94.1907 64.7769 94.0402 64.7769ZM94.0402 63.9692C93.9924 63.9692 93.9456 63.9833 93.9057 64.0099C93.8661 64.0365 93.835 64.0742 93.8166 64.1184C93.7984 64.1626 93.7935 64.2113 93.8028 64.258C93.8122 64.3049 93.8353 64.3481 93.8691 64.3819C93.903 64.4156 93.9462 64.4387 93.9932 64.4481C94.04 64.4574 94.0887 64.4525 94.133 64.4343C94.1773 64.4159 94.215 64.3849 94.2417 64.3453C94.2683 64.3055 94.2824 64.2588 94.2824 64.211C94.2824 64.1467 94.2571 64.0852 94.2114 64.0398C94.166 63.9945 94.1046 63.9692 94.0402 63.9692Z"/><path fill="#274B5B" d="M94.0403 65.2609C93.8323 65.2609 93.6292 65.1994 93.4564 65.084C93.2837 64.9687 93.1488 64.8049 93.0693 64.6132C92.9898 64.4214 92.9689 64.2104 93.0094 64.0069C93.0501 63.8033 93.1502 63.6162 93.2971 63.4696C93.4441 63.3226 93.6314 63.2229 93.8353 63.1822C94.0392 63.1418 94.2505 63.1627 94.4425 63.2421C94.6346 63.3215 94.7985 63.4558 94.9141 63.6286C95.0297 63.8011 95.0913 64.0039 95.0913 64.2115C95.0913 64.4898 94.9807 64.7568 94.7834 64.9535C94.5864 65.1502 94.319 65.2609 94.0403 65.2609ZM94.0403 63.8077C93.9602 63.8077 93.8821 63.8313 93.8155 63.8759C93.7492 63.9201 93.6972 63.9833 93.6666 64.0569C93.6361 64.1308 93.6281 64.2121 93.6435 64.2904C93.6592 64.3687 93.6977 64.4407 93.7544 64.497C93.8108 64.5536 93.8829 64.592 93.9613 64.6077C94.0397 64.6231 94.1212 64.6151 94.1952 64.5846C94.2689 64.5541 94.3322 64.5022 94.3765 64.436C94.4211 64.3695 94.4447 64.2915 94.4447 64.2115C94.4447 64.1044 94.4021 64.0017 94.3261 63.9258C94.2505 63.8503 94.1476 63.8077 94.0403 63.8077Z" opacity=".2"/><path fill="#274B5B" d="M106.971 31.0421C106.859 31.0421 106.75 31.0088 106.657 30.9468C106.563 30.8844 106.491 30.7962 106.448 30.6926C106.405 30.5894 106.394 30.4756 106.416 30.3657C106.437 30.2559 106.491 30.155 106.571 30.0759C106.65 29.9968 106.751 29.943 106.861 29.921C106.971 29.8993 107.085 29.9105 107.188 29.9534C107.292 29.9963 107.381 30.0688 107.443 30.1616C107.505 30.2548 107.538 30.3641 107.538 30.4762C107.538 30.5503 107.524 30.624 107.495 30.6926C107.467 30.7613 107.425 30.8237 107.372 30.8764C107.32 30.9289 107.257 30.9707 107.188 30.9989C107.12 31.0275 107.046 31.0421 106.971 31.0421ZM106.971 30.2344C106.924 30.2344 106.877 30.2487 106.837 30.2751C106.797 30.3017 106.766 30.3394 106.748 30.3836C106.73 30.4278 106.725 30.4764 106.734 30.5234C106.743 30.5701 106.766 30.6133 106.8 30.647C106.834 30.6808 106.877 30.7039 106.924 30.7132C106.971 30.7226 107.02 30.7179 107.064 30.6995C107.108 30.6811 107.146 30.6503 107.173 30.6105C107.199 30.5707 107.214 30.524 107.214 30.4762C107.214 30.4122 107.188 30.3506 107.143 30.3053C107.097 30.26 107.036 30.2344 106.971 30.2344Z"/><path fill="#274B5B" d="M106.971 31.5261C106.763 31.5261 106.56 31.4646 106.388 31.3492C106.215 31.2341 106.08 31.0701 106 30.8784C105.921 30.6866 105.9 30.4756 105.941 30.2721C105.981 30.0685 106.081 29.8814 106.228 29.7347C106.375 29.5881 106.563 29.4881 106.766 29.4474C106.97 29.407 107.182 29.4279 107.374 29.5073C107.566 29.5867 107.73 29.7213 107.845 29.8938C107.961 30.0663 108.022 30.2693 108.022 30.4767C108.022 30.755 107.912 31.022 107.715 31.2187C107.518 31.4157 107.25 31.5261 106.971 31.5261ZM106.971 30.0729C106.891 30.0729 106.813 30.0965 106.747 30.141C106.68 30.1853 106.628 30.2485 106.598 30.3224C106.567 30.396 106.559 30.4773 106.575 30.5556C106.59 30.6339 106.629 30.7059 106.686 30.7624C106.742 30.8188 106.814 30.8572 106.892 30.8729C106.971 30.8885 107.052 30.8803 107.126 30.8498C107.2 30.8193 107.263 30.7677 107.308 30.7012C107.352 30.6347 107.376 30.5567 107.376 30.4767C107.376 30.3696 107.333 30.2669 107.257 30.1913C107.182 30.1155 107.079 30.0729 106.971 30.0729Z" opacity=".2"/><path fill="#274B5B" d="M86.6034 31.0421C86.4914 31.0421 86.3816 31.0088 86.2883 30.9468C86.1953 30.8844 86.1227 30.7962 86.0798 30.6926C86.0369 30.5894 86.0256 30.4756 86.0476 30.3657C86.0693 30.2559 86.1233 30.155 86.2025 30.0759C86.2817 29.9968 86.3827 29.943 86.4928 29.921C86.6028 29.8993 86.7167 29.9105 86.8202 29.9534C86.9239 29.9963 87.0122 30.0688 87.0747 30.1616C87.1368 30.2548 87.1701 30.3641 87.1701 30.4762C87.1701 30.5503 87.1556 30.624 87.1269 30.6926C87.0986 30.7613 87.0568 30.8237 87.0042 30.8764C86.9514 30.9289 86.889 30.9707 86.8202 30.9989C86.7514 31.0275 86.6776 31.0421 86.6034 31.0421ZM86.6034 30.2344C86.5555 30.2344 86.5087 30.2487 86.4688 30.2751C86.4289 30.3017 86.3981 30.3394 86.3797 30.3836C86.3612 30.4278 86.3566 30.4764 86.3659 30.5234C86.3753 30.5701 86.3984 30.6133 86.4322 30.647C86.4661 30.6808 86.5093 30.7039 86.556 30.7132C86.6031 30.7226 86.6518 30.7179 86.6961 30.6995C86.7404 30.6811 86.7781 30.6503 86.8048 30.6105C86.8312 30.5707 86.8455 30.524 86.8455 30.4762C86.8455 30.4122 86.8199 30.3506 86.7745 30.3053C86.7291 30.26 86.6675 30.2344 86.6034 30.2344Z"/><path fill="#274B5B" d="M86.6034 31.5261C86.3957 31.5261 86.1924 31.4646 86.0196 31.3492C85.8468 31.2341 85.712 31.0701 85.6325 30.8784C85.553 30.6866 85.5321 30.4756 85.5728 30.2721C85.6132 30.0685 85.7134 29.8814 85.8603 29.7347C86.0072 29.5881 86.1946 29.4881 86.3985 29.4474C86.6023 29.407 86.8136 29.4279 87.0057 29.5073C87.1977 29.5867 87.362 29.7213 87.4773 29.8938C87.5928 30.0663 87.6544 30.2693 87.6544 30.4767C87.6544 30.755 87.5438 31.022 87.3466 31.2187C87.1496 31.4157 86.8821 31.5261 86.6034 31.5261ZM86.6034 30.0729C86.5234 30.0729 86.4452 30.0965 86.3786 30.141C86.3123 30.1853 86.2603 30.2485 86.2298 30.3224C86.1993 30.396 86.1913 30.4773 86.2067 30.5556C86.2224 30.6339 86.2609 30.7059 86.3176 30.7624C86.374 30.8188 86.4461 30.8572 86.5245 30.8729C86.6032 30.8885 86.6843 30.8803 86.7583 30.8498C86.8321 30.8193 86.8953 30.7677 86.9396 30.7012C86.9842 30.6347 87.0079 30.5567 87.0079 30.4767C87.0079 30.3696 86.9652 30.2669 86.8896 30.1913C86.8136 30.1155 86.7107 30.0729 86.6034 30.0729Z" opacity=".2"/><path fill="#274B5B" d="M96.7888 31.0421C96.6768 31.0421 96.567 31.0088 96.474 30.9468C96.3808 30.8844 96.3081 30.7962 96.2652 30.6926C96.2223 30.5894 96.211 30.4756 96.233 30.3657C96.2548 30.2559 96.3087 30.155 96.3879 30.0759C96.4672 29.9968 96.5681 29.943 96.6782 29.921C96.7882 29.8993 96.9021 29.9105 97.0056 29.9534C97.1093 29.9963 97.1976 30.0688 97.2601 30.1616C97.3223 30.2548 97.3556 30.3641 97.3556 30.4762C97.3556 30.5503 97.341 30.624 97.3124 30.6926C97.284 30.7613 97.2422 30.8237 97.1897 30.8764C97.1368 30.9289 97.0744 30.9707 97.0056 30.9989C96.9368 31.0275 96.8634 31.0421 96.7888 31.0421ZM96.7888 30.2344C96.7409 30.2344 96.6941 30.2487 96.6542 30.2751C96.6144 30.3017 96.5835 30.3394 96.5651 30.3836C96.5467 30.4278 96.542 30.4764 96.5514 30.5234C96.5607 30.5701 96.5838 30.6133 96.6177 30.647C96.6515 30.6808 96.6947 30.7039 96.7415 30.7132C96.7885 30.7226 96.8372 30.7179 96.8815 30.6995C96.9258 30.6811 96.9635 30.6503 96.9902 30.6105C97.0166 30.5707 97.0309 30.524 97.0309 30.4762C97.0309 30.4122 97.0053 30.3506 96.9599 30.3053C96.9145 30.26 96.8529 30.2344 96.7888 30.2344Z"/><path fill="#274B5B" d="M96.7889 31.5261C96.5811 31.5261 96.3778 31.4646 96.205 31.3492C96.0322 31.2341 95.8974 31.0701 95.8179 30.8784C95.7384 30.6866 95.7175 30.4756 95.7582 30.2721C95.7986 30.0685 95.8988 29.8814 96.0457 29.7347C96.1926 29.5881 96.38 29.4881 96.5839 29.4474C96.7878 29.407 96.9991 29.4279 97.1911 29.5073C97.3831 29.5867 97.5474 29.7213 97.6627 29.8938C97.7782 30.0663 97.8398 30.2693 97.8398 30.4767C97.8398 30.755 97.7293 31.022 97.532 31.2187C97.335 31.4157 97.0676 31.5261 96.7889 31.5261ZM96.7889 30.0729C96.7088 30.0729 96.6306 30.0965 96.5643 30.141C96.4978 30.1853 96.4458 30.2485 96.4152 30.3224C96.3847 30.396 96.3767 30.4773 96.3921 30.5556C96.4078 30.6339 96.4463 30.7059 96.503 30.7624C96.5594 30.8188 96.6315 30.8572 96.7099 30.8729C96.7886 30.8885 96.8697 30.8803 96.9437 30.8498C97.0175 30.8193 97.0808 30.7677 97.1251 30.7012C97.1696 30.6347 97.1933 30.5567 97.1933 30.4767C97.1933 30.3696 97.1506 30.2669 97.075 30.1913C96.999 30.1155 96.8962 30.0729 96.7889 30.0729Z" opacity=".2"/><path fill="#274B5B" d="M94.0402 104.645C93.9283 104.645 93.8188 104.612 93.7255 104.55C93.6322 104.488 93.5596 104.399 93.5167 104.296C93.4738 104.193 93.4625 104.079 93.4845 103.969C93.5062 103.859 93.5601 103.758 93.6397 103.679C93.7189 103.6 93.8199 103.546 93.9297 103.524C94.0397 103.503 94.1536 103.514 94.2573 103.556C94.3608 103.599 94.4494 103.672 94.5116 103.765C94.5737 103.858 94.607 103.967 94.607 104.08C94.607 104.23 94.5473 104.373 94.4411 104.48C94.3349 104.586 94.1907 104.645 94.0402 104.645ZM94.0402 103.838C93.9924 103.838 93.9456 103.852 93.9057 103.878C93.8661 103.905 93.835 103.943 93.8166 103.987C93.7984 104.031 93.7935 104.08 93.8028 104.127C93.8122 104.174 93.8353 104.217 93.8691 104.25C93.903 104.284 93.9462 104.307 93.9932 104.317C94.04 104.326 94.0887 104.321 94.133 104.303C94.1773 104.284 94.215 104.253 94.2417 104.214C94.2683 104.174 94.2824 104.127 94.2824 104.08C94.2818 104.016 94.256 103.955 94.2106 103.91C94.1652 103.866 94.1041 103.841 94.0402 103.841V103.838Z"/><path fill="#274B5B" d="M94.0403 105.129C93.8323 105.129 93.6292 105.068 93.4564 104.953C93.2837 104.837 93.1488 104.673 93.0693 104.482C92.9898 104.29 92.9689 104.079 93.0094 103.875C93.0501 103.672 93.1502 103.485 93.2971 103.338C93.4441 103.191 93.6314 103.091 93.8353 103.051C94.0392 103.01 94.2505 103.031 94.4425 103.111C94.6346 103.19 94.7985 103.324 94.9141 103.497C95.0297 103.67 95.0913 103.872 95.0913 104.08C95.0913 104.358 94.9807 104.625 94.7834 104.822C94.5864 105.019 94.319 105.129 94.0403 105.129ZM94.0403 103.676C93.9602 103.676 93.8821 103.7 93.8155 103.744C93.7492 103.789 93.6972 103.852 93.6666 103.925C93.6361 103.999 93.6281 104.08 93.6435 104.159C93.6592 104.237 93.6977 104.309 93.7544 104.366C93.8108 104.422 93.8829 104.461 93.9613 104.476C94.0397 104.492 94.1212 104.484 94.1952 104.453C94.2689 104.423 94.3322 104.371 94.3765 104.304C94.4211 104.238 94.4447 104.16 94.4447 104.08C94.4447 103.973 94.4021 103.87 94.3261 103.794C94.2505 103.719 94.1476 103.676 94.0403 103.676Z" opacity=".2"/><path fill="#274B5B" d="M94.0402 116.477C93.9283 116.477 93.8188 116.444 93.7255 116.382C93.6322 116.32 93.5596 116.231 93.5167 116.128C93.4738 116.025 93.4625 115.911 93.4845 115.801C93.5062 115.691 93.5601 115.59 93.6397 115.511C93.7189 115.432 93.8199 115.378 93.9297 115.356C94.0397 115.334 94.1536 115.346 94.2573 115.389C94.3608 115.431 94.4494 115.504 94.5116 115.597C94.5737 115.69 94.607 115.799 94.607 115.911C94.607 116.061 94.5473 116.205 94.4411 116.312C94.3349 116.418 94.1907 116.477 94.0402 116.477ZM94.0402 115.67C93.9924 115.67 93.9456 115.684 93.9057 115.71C93.8661 115.737 93.835 115.775 93.8166 115.819C93.7984 115.863 93.7935 115.912 93.8028 115.959C93.8122 116.005 93.8353 116.048 93.8691 116.082C93.903 116.116 93.9462 116.139 93.9932 116.148C94.04 116.158 94.0887 116.153 94.133 116.135C94.1773 116.116 94.215 116.086 94.2417 116.046C94.2683 116.006 94.2824 115.959 94.2824 115.911C94.281 115.848 94.2549 115.788 94.2097 115.744C94.1643 115.7 94.1035 115.675 94.0402 115.675V115.67Z"/><path fill="#274B5B" d="M94.0403 116.967C93.8323 116.967 93.6292 116.905 93.4564 116.79C93.2837 116.675 93.1488 116.511 93.0693 116.319C92.9898 116.127 92.9689 115.916 93.0094 115.712C93.0501 115.509 93.1502 115.322 93.2971 115.175C93.4441 115.028 93.6314 114.928 93.8353 114.888C94.0392 114.848 94.2505 114.868 94.4425 114.948C94.6346 115.027 94.7985 115.162 94.9141 115.334C95.0297 115.507 95.0913 115.71 95.0913 115.917C95.0913 116.196 94.9807 116.462 94.7834 116.659C94.5864 116.856 94.319 116.967 94.0403 116.967ZM94.0403 115.514C93.9602 115.514 93.8821 115.537 93.8155 115.581C93.7492 115.626 93.6972 115.689 93.6666 115.763C93.6361 115.837 93.6281 115.918 93.6435 115.996C93.6592 116.075 93.6977 116.146 93.7544 116.203C93.8108 116.259 93.8829 116.298 93.9613 116.313C94.0397 116.329 94.1212 116.321 94.1952 116.29C94.2689 116.26 94.3322 116.208 94.3765 116.142C94.4211 116.075 94.4447 115.997 94.4447 115.917C94.4447 115.81 94.4021 115.708 94.3261 115.632C94.2505 115.556 94.1476 115.514 94.0403 115.514Z" opacity=".2"/><path fill="#274B5B" d="M94.0402 128.32C93.9283 128.32 93.8188 128.287 93.7255 128.224C93.6322 128.162 93.5596 128.074 93.5167 127.971C93.4738 127.867 93.4625 127.753 93.4845 127.643C93.5062 127.534 93.5601 127.433 93.6397 127.354C93.7189 127.275 93.8199 127.221 93.9297 127.199C94.0397 127.177 94.1536 127.188 94.2573 127.231C94.3608 127.274 94.4494 127.346 94.5116 127.44C94.5737 127.533 94.607 127.642 94.607 127.754C94.607 127.904 94.5473 128.048 94.4411 128.154C94.3349 128.26 94.1907 128.32 94.0402 128.32ZM94.0402 127.512C93.9924 127.512 93.9456 127.526 93.9057 127.553C93.8661 127.579 93.835 127.617 93.8166 127.662C93.7984 127.706 93.7935 127.754 93.8028 127.801C93.8122 127.848 93.8353 127.891 93.8691 127.925C93.903 127.959 93.9462 127.982 93.9932 127.991C94.04 128 94.0887 127.996 94.133 127.977C94.1773 127.959 94.215 127.928 94.2417 127.888C94.2683 127.848 94.2824 127.802 94.2824 127.754C94.2824 127.69 94.2571 127.628 94.2114 127.583C94.166 127.538 94.1046 127.512 94.0402 127.512Z"/><path fill="#274B5B" d="M94.0403 128.804C93.8323 128.804 93.6292 128.742 93.4564 128.627C93.2837 128.512 93.1488 128.348 93.0693 128.156C92.9898 127.964 92.9689 127.753 93.0094 127.55C93.0501 127.346 93.1502 127.159 93.2971 127.012C93.4441 126.866 93.6314 126.766 93.8353 126.725C94.0392 126.685 94.2505 126.706 94.4425 126.785C94.6346 126.864 94.7985 126.999 94.9141 127.172C95.0297 127.344 95.0913 127.547 95.0913 127.754C95.0913 128.033 94.9807 128.3 94.7834 128.497C94.5864 128.693 94.319 128.804 94.0403 128.804ZM94.0403 127.351C93.9602 127.351 93.8821 127.375 93.8155 127.419C93.7492 127.463 93.6972 127.526 93.6666 127.6C93.6361 127.674 93.6281 127.755 93.6435 127.833C93.6592 127.912 93.6977 127.984 93.7544 128.04C93.8108 128.096 93.8829 128.135 93.9613 128.151C94.0397 128.166 94.1212 128.158 94.1952 128.128C94.2689 128.097 94.3322 128.045 94.3765 127.979C94.4211 127.912 94.4447 127.834 94.4447 127.754C94.4447 127.648 94.4021 127.545 94.3261 127.469C94.2505 127.393 94.1476 127.351 94.0403 127.351Z" opacity=".2"/><path fill="#274B5B" d="M94.0402 140.155C93.9283 140.155 93.8188 140.122 93.7255 140.06C93.6322 139.997 93.5596 139.909 93.5167 139.806C93.4738 139.702 93.4625 139.588 93.4845 139.479C93.5062 139.369 93.5601 139.268 93.6397 139.189C93.7189 139.11 93.8199 139.056 93.9297 139.034C94.0397 139.012 94.1536 139.023 94.2573 139.066C94.3608 139.109 94.4494 139.182 94.5116 139.275C94.5737 139.368 94.607 139.477 94.607 139.589C94.607 139.739 94.5473 139.883 94.4411 139.989C94.3349 140.095 94.1907 140.155 94.0402 140.155ZM94.0402 139.347C93.9924 139.347 93.9456 139.362 93.9057 139.388C93.8661 139.415 93.835 139.452 93.8166 139.497C93.7984 139.541 93.7935 139.589 93.8028 139.636C93.8122 139.683 93.8353 139.726 93.8691 139.76C93.903 139.794 93.9462 139.817 93.9932 139.826C94.04 139.835 94.0887 139.831 94.133 139.812C94.1773 139.794 94.215 139.763 94.2417 139.723C94.2683 139.683 94.2824 139.637 94.2824 139.589C94.2824 139.525 94.2571 139.463 94.2114 139.418C94.166 139.373 94.1046 139.347 94.0402 139.347Z"/><path fill="#274B5B" d="M94.0403 140.652C93.8323 140.652 93.6292 140.59 93.4564 140.475C93.2837 140.36 93.1488 140.196 93.0693 140.004C92.9898 139.812 92.9689 139.601 93.0094 139.398C93.0501 139.194 93.1502 139.007 93.2971 138.86C93.4441 138.714 93.6314 138.614 93.8353 138.573C94.0392 138.533 94.2505 138.554 94.4425 138.633C94.6346 138.712 94.7985 138.847 94.9141 139.02C95.0297 139.192 95.0913 139.395 95.0913 139.602C95.0913 139.881 94.9807 140.148 94.7834 140.345C94.5864 140.541 94.319 140.652 94.0403 140.652ZM94.0403 139.199C93.9602 139.199 93.8821 139.223 93.8155 139.267C93.7492 139.311 93.6972 139.374 93.6666 139.448C93.6361 139.522 93.6281 139.603 93.6435 139.681C93.6592 139.76 93.6977 139.832 93.7544 139.888C93.8108 139.944 93.8829 139.983 93.9613 139.999C94.0397 140.014 94.1212 140.006 94.1952 139.975C94.2689 139.945 94.3322 139.893 94.3765 139.827C94.4211 139.76 94.4447 139.682 94.4447 139.602C94.4461 139.549 94.4367 139.495 94.4172 139.445C94.3974 139.394 94.368 139.349 94.3303 139.31C94.2926 139.271 94.2474 139.24 94.1977 139.219C94.1479 139.199 94.0942 139.188 94.0403 139.188V139.199Z" opacity=".2"/><path fill="#5C7869" d="M97.7572 81.0783C105.302 81.0783 111.418 74.9717 111.418 67.4389C111.418 59.906 105.302 53.7994 97.7572 53.7994C90.2128 53.7994 84.0969 59.906 84.0969 67.4389C84.0969 74.9717 90.2128 81.0783 97.7572 81.0783Z" opacity=".6"/><path fill="#94E0F7" d="M97.9196 76.0755C105.464 76.0755 111.58 69.9689 111.58 62.4361C111.58 54.9032 105.464 48.7967 97.9196 48.7967C90.3752 48.7967 84.2593 54.9032 84.2593 62.4361C84.2593 69.9689 90.3752 76.0755 97.9196 76.0755Z"/><path fill="#274B5B" d="M97.7573 75.2711C95.4071 75.2711 93.1097 74.5753 91.1555 73.2715C89.2012 71.9677 87.6783 70.1148 86.7789 67.9468C85.8795 65.7788 85.6443 63.3932 86.1026 61.0916C86.5613 58.7901 87.6929 56.6759 89.3547 55.0167C91.0165 53.3574 93.1339 52.2273 95.439 51.7696C97.744 51.3119 100.133 51.5468 102.305 52.4448C104.476 53.3429 106.332 54.8634 107.638 56.8147C108.943 58.7659 109.64 61.0598 109.64 63.4064C109.637 66.5524 108.385 69.5684 106.156 71.7927C103.929 74.0174 100.908 75.2684 97.7573 75.2711ZM97.7573 52.352C95.5669 52.352 93.4261 53.0006 91.6047 54.2154C89.7836 55.4304 88.3642 57.1572 87.5262 59.1777C86.6881 61.1982 86.4686 63.4215 86.8961 65.5661C87.3234 67.7111 88.378 69.6813 89.9267 71.2277C91.4754 72.774 93.4487 73.8273 95.5969 74.2539C97.7449 74.6805 99.9715 74.4616 101.995 73.6245C104.019 72.7877 105.748 71.3705 106.965 69.5522C108.182 67.7339 108.831 65.5961 108.831 63.4091C108.829 60.4771 107.662 57.6654 105.586 55.5919C103.509 53.5184 100.694 52.3523 97.7573 52.3492V52.352Z" opacity=".2"/><path fill="#fff" d="M102.49 50.2721L94.6951 76.4109C92.7056 75.8774 90.8636 74.8997 89.308 73.5512L96.4202 49.7227C98.4589 49.4488 100.533 49.6365 102.49 50.2721Z"/><path fill="#fff" d="M106.828 52.6379L99.6172 76.8125C99.1602 76.859 98.701 76.882 98.2415 76.8812C97.6899 76.8815 97.1385 76.8485 96.5907 76.7823L104.275 51.0062C105.184 51.4539 106.041 52.0012 106.828 52.6379Z"/><path fill="#fff" d="M88.1386 66.2826C88.0616 66.2823 87.987 66.2543 87.9284 66.204C87.8701 66.1537 87.8313 66.0842 87.8195 66.0079C87.3529 63.0531 87.9152 60.0277 89.4125 57.4369C90.2599 55.9864 91.2559 55.1156 92.3757 54.8546C92.4183 54.8411 92.4634 54.8365 92.508 54.8409C92.5526 54.8455 92.5955 54.8593 92.6346 54.8812C92.6736 54.9032 92.7075 54.9332 92.7344 54.9689C92.7611 55.0046 92.7804 55.0455 92.7908 55.0889C92.801 55.1326 92.8021 55.1777 92.7941 55.2216C92.7862 55.2656 92.7691 55.3073 92.7441 55.3444C92.719 55.3815 92.6866 55.4131 92.6489 55.437C92.6109 55.4609 92.5685 55.4768 92.5242 55.4837C91.586 55.7035 90.7276 56.4727 89.9738 57.7638C88.5513 60.2263 88.0173 63.1012 88.4605 65.909C88.4671 65.9513 88.4652 65.9944 88.455 66.0359C88.4449 66.0774 88.4262 66.1167 88.4006 66.1507C88.375 66.1851 88.3428 66.2139 88.3059 66.2356C88.2688 66.2573 88.2281 66.2713 88.1854 66.2771L88.1386 66.2826Z" opacity=".8"/><path fill="#274B5B" d="M107.134 64.2821C107.022 64.2821 106.912 64.2489 106.819 64.1868C106.726 64.1244 106.653 64.0363 106.61 63.9327C106.567 63.8294 106.556 63.7157 106.578 63.6058C106.6 63.4959 106.654 63.3951 106.733 63.316C106.812 63.2369 106.913 63.183 107.023 63.161C107.133 63.1393 107.247 63.1506 107.351 63.1934C107.454 63.2363 107.543 63.3088 107.605 63.4017C107.667 63.4948 107.701 63.6041 107.701 63.7162C107.701 63.8662 107.641 64.0102 107.535 64.1165C107.428 64.2225 107.284 64.2821 107.134 64.2821ZM107.134 63.4745C107.086 63.4745 107.039 63.4888 106.999 63.5151C106.959 63.5418 106.929 63.5794 106.91 63.6236C106.892 63.6679 106.887 63.7165 106.896 63.7635C106.906 63.8102 106.929 63.8533 106.963 63.8871C106.996 63.9209 107.04 63.944 107.086 63.9533C107.133 63.9626 107.182 63.958 107.226 63.9396C107.271 63.9212 107.308 63.8904 107.335 63.8506C107.362 63.8107 107.376 63.764 107.376 63.7162C107.373 63.6541 107.346 63.5954 107.301 63.5522C107.256 63.5094 107.196 63.4855 107.134 63.4855V63.4745Z"/><path fill="#274B5B" d="M107.134 64.7769C106.926 64.7769 106.723 64.7154 106.55 64.6C106.377 64.4849 106.242 64.3209 106.163 64.1291C106.083 63.9374 106.062 63.7264 106.103 63.5228C106.144 63.3193 106.244 63.1322 106.391 62.9855C106.538 62.8388 106.725 62.7388 106.929 62.6984C107.133 62.6578 107.344 62.6786 107.536 62.758C107.728 62.8374 107.892 62.972 108.008 63.1446C108.123 63.3171 108.185 63.5201 108.185 63.7275C108.185 64.0058 108.074 64.2728 107.877 64.4695C107.68 64.6665 107.413 64.7769 107.134 64.7769ZM107.134 63.3237C107.054 63.3237 106.976 63.3473 106.909 63.3918C106.843 63.436 106.791 63.4992 106.76 63.5731C106.73 63.6467 106.722 63.728 106.737 63.8063C106.753 63.8846 106.791 63.9566 106.848 64.0132C106.904 64.0695 106.976 64.108 107.055 64.1236C107.134 64.1393 107.215 64.1313 107.289 64.1005C107.362 64.0701 107.426 64.0184 107.47 63.9519C107.515 63.8854 107.538 63.8074 107.538 63.7275C107.538 63.6745 107.528 63.622 107.507 63.5731C107.487 63.5239 107.457 63.4794 107.42 63.4421C107.382 63.4044 107.338 63.3748 107.289 63.3544C107.24 63.3341 107.187 63.3237 107.134 63.3237Z" opacity=".2"/><path fill="#274B5B" d="M97.7572 78.7377C94.7198 78.7377 91.7506 77.8386 89.2248 76.1535C86.6994 74.4687 84.7308 72.0738 83.5684 69.2717C82.406 66.4697 82.1019 63.3866 82.6946 60.412C83.2872 57.4374 84.7498 54.7049 86.8978 52.5605C89.0455 50.4158 91.7819 48.9555 94.7611 48.3637C97.7402 47.772 100.828 48.0758 103.635 49.2365C106.441 50.3969 108.839 52.3624 110.527 54.8843C112.214 57.4059 113.115 60.3705 113.115 63.4033C113.111 67.4691 111.491 71.3669 108.612 74.2418C105.733 77.1167 101.829 78.7336 97.7572 78.7377ZM97.7572 51.4589C95.3914 51.4589 93.0783 52.1597 91.1112 53.472C89.144 54.7846 87.6106 56.6498 86.7052 58.8324C85.7997 61.015 85.5628 63.4168 86.0245 65.7337C86.4859 68.0506 87.6252 70.1791 89.2983 71.8496C90.9714 73.5199 93.1028 74.6574 95.4236 75.1184C97.744 75.5794 100.149 75.3428 102.335 74.4388C104.521 73.5347 106.39 72.0037 107.704 70.0395C109.018 68.0751 109.72 65.7659 109.72 63.4033C109.716 60.2373 108.454 57.202 106.211 54.9634C103.969 52.7248 100.928 51.4655 97.7572 51.4617V51.4589Z"/><path fill="#ECF2FA" d="M89.0906 141.446V117.892C89.0807 109.926 92.0871 102.25 97.5069 96.4044C102.828 102.234 105.772 109.84 105.761 117.727V141.416"/><path fill="#fff" d="M98.6488 99.5556C93.8532 105.133 91.2177 112.242 91.2202 119.593V142.74H89.2805V119.593C89.2805 111.738 92.2918 104.181 97.6968 98.4732C98.0215 98.8284 98.3387 99.1894 98.6488 99.5556Z"/><path fill="#8BBACC" d="M104.143 119.136V142.415L97.4519 142.429C103.678 129.935 101.703 113.101 100.44 104.519C102.871 109.009 104.143 114.033 104.143 119.136Z"/><g opacity=".4"><path fill="#426270" d="M82.5783 99.6325C83.6183 97.9513 84.3557 96.5255 84.4685 96.575C84.5813 96.6244 83.9842 98.1408 82.9277 99.8468C81.8712 101.553 80.7844 102.767 80.6992 102.698C80.6139 102.63 81.5466 101.316 82.5783 99.6325Z" opacity=".4"/><path fill="#426270" d="M84.2274 100.698C84.8965 99.5616 85.3593 98.5933 85.2608 98.5359C85.1625 98.4782 84.5407 99.3529 83.8716 100.49C83.2028 101.626 82.74 102.594 82.8382 102.652C82.9364 102.71 83.5585 101.835 84.2274 100.698Z" opacity=".4"/><path fill="#426270" d="M82.9882 100.748C84.5069 101.36 85.7753 101.784 85.7395 101.896C85.7038 102.009 84.3639 101.756 82.8286 101.13C81.2934 100.503 80.1406 99.7561 80.1956 99.6682C80.2506 99.5803 81.4667 100.141 82.9882 100.748Z" opacity=".4"/><path fill="#426270" d="M84.4244 100.338C85.8 100.984 86.9638 101.39 86.9308 101.503C86.8978 101.616 85.6597 101.368 84.251 100.712C82.8424 100.055 81.8546 99.2586 81.9179 99.1762C81.9812 99.0938 83.0487 99.7037 84.4244 100.338Z" opacity=".4"/></g><path fill="#274B5B" d="M94.2026 112.231C94.0906 112.231 93.9809 112.198 93.8879 112.136C93.7946 112.073 93.722 111.985 93.679 111.882C93.6361 111.778 93.6248 111.665 93.6468 111.555C93.6686 111.445 93.7225 111.344 93.8017 111.265C93.8813 111.186 93.9822 111.132 94.092 111.11C94.2021 111.088 94.316 111.1 94.4194 111.142C94.5231 111.185 94.6117 111.258 94.6739 111.351C94.7361 111.444 94.7694 111.553 94.7694 111.665C94.7694 111.815 94.7097 111.959 94.6035 112.065C94.497 112.171 94.3528 112.231 94.2026 112.231ZM94.2026 111.423C94.1547 111.423 94.108 111.437 94.0681 111.464C94.0282 111.491 93.9974 111.528 93.9789 111.573C93.9605 111.617 93.9558 111.665 93.9652 111.712C93.9745 111.759 93.9976 111.802 94.0315 111.836C94.0653 111.87 94.1085 111.893 94.1553 111.902C94.2023 111.912 94.251 111.907 94.2953 111.888C94.3396 111.87 94.3773 111.839 94.404 111.799C94.4304 111.76 94.4447 111.713 94.4447 111.665C94.4439 111.601 94.4183 111.541 94.3729 111.496C94.3275 111.451 94.2664 111.426 94.2026 111.426V111.423Z"/><path fill="#274B5B" d="M94.2025 112.717C93.9948 112.717 93.7915 112.656 93.6187 112.54C93.4459 112.425 93.3111 112.261 93.2316 112.07C93.1521 111.878 93.1312 111.667 93.1719 111.463C93.2123 111.26 93.3125 111.073 93.4594 110.926C93.6063 110.779 93.7937 110.679 93.9976 110.639C94.2014 110.598 94.4127 110.619 94.6048 110.698C94.7968 110.778 94.9611 110.912 95.0766 111.085C95.1919 111.257 95.2535 111.46 95.2535 111.668C95.2535 111.946 95.1429 112.213 94.9457 112.41C94.7487 112.607 94.4813 112.717 94.2025 112.717ZM94.2025 111.264C94.1228 111.264 94.0443 111.288 93.978 111.332C93.9115 111.376 93.8595 111.44 93.8289 111.513C93.7984 111.587 93.7904 111.668 93.8061 111.747C93.8215 111.825 93.86 111.897 93.9167 111.953C93.9731 112.01 94.0452 112.048 94.1239 112.064C94.2023 112.079 94.2834 112.071 94.3574 112.041C94.4312 112.01 94.4945 111.959 94.539 111.892C94.5833 111.826 94.607 111.748 94.607 111.668C94.6078 111.614 94.5979 111.561 94.5778 111.512C94.558 111.462 94.5283 111.417 94.4906 111.379C94.4529 111.341 94.4081 111.311 94.3588 111.29C94.3093 111.269 94.2562 111.259 94.2025 111.259V111.264Z" opacity=".2"/><path fill="#274B5B" d="M94.2026 135.798C94.0906 135.798 93.9809 135.765 93.8879 135.703C93.7946 135.641 93.722 135.552 93.679 135.449C93.6361 135.346 93.6248 135.232 93.6468 135.122C93.6686 135.012 93.7225 134.911 93.8017 134.832C93.8813 134.753 93.9822 134.699 94.092 134.677C94.2021 134.655 94.316 134.667 94.4194 134.71C94.5231 134.752 94.6117 134.825 94.6739 134.918C94.7361 135.011 94.7694 135.121 94.7694 135.232C94.7694 135.382 94.7097 135.526 94.6035 135.633C94.497 135.739 94.3528 135.798 94.2026 135.798ZM94.2026 134.991C94.1547 134.991 94.108 135.005 94.0681 135.031C94.0282 135.058 93.9974 135.096 93.9789 135.14C93.9605 135.184 93.9558 135.233 93.9652 135.28C93.9745 135.326 93.9976 135.369 94.0315 135.403C94.0653 135.437 94.1085 135.46 94.1553 135.469C94.2023 135.479 94.251 135.474 94.2953 135.456C94.3396 135.437 94.3773 135.407 94.404 135.367C94.4304 135.327 94.4447 135.28 94.4447 135.232C94.4447 135.168 94.4191 135.107 94.3737 135.061C94.3283 135.016 94.2667 134.991 94.2026 134.991Z"/><path fill="#274B5B" d="M94.2025 136.281C93.9948 136.281 93.7915 136.22 93.6187 136.104C93.4459 135.989 93.3111 135.825 93.2316 135.633C93.1521 135.442 93.1312 135.231 93.1719 135.027C93.2123 134.824 93.3125 134.636 93.4594 134.49C93.6063 134.343 93.7937 134.243 93.9976 134.203C94.2014 134.162 94.4127 134.183 94.6048 134.262C94.7968 134.342 94.9611 134.476 95.0766 134.649C95.1919 134.821 95.2535 135.024 95.2535 135.232C95.2535 135.51 95.1429 135.777 94.9457 135.974C94.7487 136.171 94.4813 136.281 94.2025 136.281ZM94.2025 134.828C94.1228 134.828 94.0443 134.852 93.978 134.896C93.9115 134.94 93.8595 135.004 93.8289 135.077C93.7984 135.151 93.7904 135.232 93.8061 135.311C93.8215 135.389 93.86 135.461 93.9167 135.517C93.9731 135.574 94.0452 135.612 94.1239 135.628C94.2023 135.644 94.2834 135.636 94.3574 135.605C94.4312 135.574 94.4945 135.523 94.539 135.456C94.5833 135.39 94.607 135.312 94.607 135.232C94.607 135.125 94.5643 135.022 94.4887 134.946C94.4127 134.871 94.3098 134.828 94.2025 134.828Z" opacity=".2"/><path fill="#274B5B" d="M94.2026 124.016C94.0906 124.016 93.9809 123.982 93.8879 123.92C93.7946 123.858 93.722 123.77 93.679 123.666C93.6361 123.563 93.6248 123.449 93.6468 123.339C93.6686 123.23 93.7225 123.129 93.8017 123.05C93.8813 122.971 93.9822 122.916 94.092 122.895C94.2021 122.873 94.316 122.884 94.4194 122.927C94.5231 122.97 94.6117 123.042 94.6739 123.135C94.7361 123.229 94.7694 123.338 94.7694 123.45C94.7694 123.6 94.7097 123.744 94.6035 123.85C94.497 123.956 94.3528 124.016 94.2026 124.016ZM94.2026 123.208C94.1547 123.208 94.108 123.222 94.0681 123.249C94.0282 123.275 93.9974 123.313 93.9789 123.357C93.9605 123.401 93.9558 123.45 93.9652 123.497C93.9745 123.544 93.9976 123.587 94.0315 123.621C94.0653 123.655 94.1085 123.677 94.1553 123.687C94.2023 123.696 94.251 123.691 94.2953 123.673C94.3396 123.655 94.3773 123.624 94.404 123.584C94.4304 123.544 94.4447 123.498 94.4447 123.45C94.4447 123.386 94.4191 123.324 94.3737 123.279C94.3283 123.234 94.2667 123.208 94.2026 123.208Z"/><path fill="#274B5B" d="M94.2025 124.499C93.9948 124.499 93.7915 124.437 93.6187 124.322C93.4459 124.207 93.3111 124.043 93.2316 123.851C93.1521 123.659 93.1312 123.448 93.1719 123.244C93.2123 123.041 93.3125 122.854 93.4594 122.707C93.6063 122.56 93.7937 122.46 93.9976 122.42C94.2014 122.38 94.4127 122.4 94.6048 122.48C94.7968 122.559 94.9611 122.694 95.0766 122.866C95.1919 123.039 95.2535 123.242 95.2535 123.449C95.2535 123.728 95.1429 123.994 94.9457 124.191C94.7487 124.388 94.4813 124.499 94.2025 124.499ZM94.2025 123.046C94.1228 123.046 94.0443 123.069 93.978 123.113C93.9115 123.158 93.8595 123.221 93.8289 123.295C93.7984 123.369 93.7904 123.45 93.8061 123.528C93.8215 123.607 93.86 123.678 93.9167 123.735C93.9731 123.791 94.0452 123.83 94.1239 123.845C94.2023 123.861 94.2834 123.853 94.3574 123.822C94.4312 123.792 94.4945 123.74 94.539 123.674C94.5833 123.607 94.607 123.529 94.607 123.449C94.607 123.342 94.5643 123.24 94.4887 123.164C94.4127 123.088 94.3098 123.046 94.2025 123.046Z" opacity=".2"/><path fill="#274B5B" d="M99.3751 112.231C99.2631 112.231 99.1536 112.198 99.0603 112.136C98.9671 112.073 98.8944 111.985 98.8515 111.882C98.8086 111.778 98.7973 111.665 98.8193 111.555C98.8411 111.445 98.8953 111.344 98.9745 111.265C99.0537 111.186 99.1547 111.132 99.2645 111.11C99.3745 111.088 99.4884 111.1 99.5922 111.142C99.6956 111.185 99.7842 111.258 99.8464 111.351C99.9089 111.444 99.9419 111.553 99.9419 111.665C99.9419 111.815 99.8822 111.959 99.776 112.065C99.6698 112.171 99.5256 112.231 99.3751 112.231ZM99.3751 111.423C99.3272 111.423 99.2804 111.437 99.2405 111.464C99.2009 111.491 99.1698 111.528 99.1514 111.573C99.1333 111.617 99.1283 111.665 99.1376 111.712C99.147 111.759 99.1701 111.802 99.204 111.836C99.2378 111.87 99.281 111.893 99.328 111.902C99.3748 111.912 99.4235 111.907 99.4678 111.888C99.5121 111.87 99.5498 111.839 99.5765 111.799C99.6032 111.76 99.6172 111.713 99.6172 111.665C99.6167 111.601 99.5908 111.541 99.5454 111.496C99.5 111.451 99.4389 111.426 99.3751 111.426V111.423Z"/><path fill="#274B5B" d="M99.375 112.717C99.1673 112.717 98.964 112.656 98.7912 112.54C98.6184 112.425 98.4836 112.261 98.4041 112.07C98.3246 111.878 98.3037 111.667 98.3444 111.463C98.3848 111.26 98.485 111.073 98.6319 110.926C98.7788 110.779 98.9662 110.679 99.1701 110.639C99.3739 110.598 99.5852 110.619 99.7773 110.698C99.9693 110.778 100.134 110.912 100.249 111.085C100.364 111.257 100.426 111.46 100.426 111.668C100.426 111.946 100.315 112.213 100.118 112.41C99.9212 112.607 99.6537 112.717 99.375 112.717ZM99.375 111.264C99.295 111.264 99.2168 111.288 99.1502 111.332C99.0839 111.376 99.0319 111.44 99.0014 111.513C98.9709 111.587 98.9629 111.668 98.9783 111.747C98.994 111.825 99.0325 111.897 99.0892 111.953C99.1456 112.01 99.2177 112.048 99.2961 112.064C99.3748 112.079 99.4559 112.071 99.5299 112.041C99.6037 112.01 99.6669 111.959 99.7112 111.892C99.7558 111.826 99.7795 111.748 99.7795 111.668C99.7803 111.614 99.7704 111.561 99.7503 111.512C99.7302 111.462 99.7005 111.417 99.6631 111.379C99.6254 111.341 99.5806 111.311 99.531 111.29C99.4818 111.269 99.4287 111.259 99.375 111.259V111.264Z" opacity=".2"/><path fill="#274B5B" d="M99.3751 135.798C99.2631 135.798 99.1536 135.765 99.0603 135.703C98.9671 135.641 98.8944 135.552 98.8515 135.449C98.8086 135.346 98.7973 135.232 98.8193 135.122C98.8411 135.012 98.8953 134.911 98.9745 134.832C99.0537 134.753 99.1547 134.699 99.2645 134.677C99.3745 134.655 99.4884 134.667 99.5922 134.71C99.6956 134.752 99.7842 134.825 99.8464 134.918C99.9089 135.011 99.9419 135.121 99.9419 135.232C99.9419 135.382 99.8822 135.526 99.776 135.633C99.6698 135.739 99.5256 135.798 99.3751 135.798ZM99.3751 134.991C99.3272 134.991 99.2804 135.005 99.2405 135.031C99.2009 135.058 99.1698 135.096 99.1514 135.14C99.1333 135.184 99.1283 135.233 99.1376 135.28C99.147 135.326 99.1701 135.369 99.204 135.403C99.2378 135.437 99.281 135.46 99.328 135.469C99.3748 135.479 99.4235 135.474 99.4678 135.456C99.5121 135.437 99.5498 135.407 99.5765 135.367C99.6032 135.327 99.6172 135.28 99.6172 135.232C99.6172 135.168 99.5919 135.107 99.5465 135.061C99.5011 135.016 99.4395 134.991 99.3751 134.991Z"/><path fill="#274B5B" d="M99.375 136.281C99.1673 136.281 98.964 136.22 98.7912 136.104C98.6184 135.989 98.4836 135.825 98.4041 135.633C98.3246 135.442 98.3037 135.231 98.3444 135.027C98.3848 134.824 98.485 134.636 98.6319 134.49C98.7788 134.343 98.9662 134.243 99.1701 134.203C99.3739 134.162 99.5852 134.183 99.7773 134.262C99.9693 134.342 100.134 134.476 100.249 134.649C100.364 134.821 100.426 135.024 100.426 135.232C100.426 135.51 100.315 135.777 100.118 135.974C99.9212 136.171 99.6537 136.281 99.375 136.281ZM99.375 134.828C99.295 134.828 99.2168 134.852 99.1502 134.896C99.0839 134.94 99.0319 135.004 99.0014 135.077C98.9709 135.151 98.9629 135.232 98.9783 135.311C98.994 135.389 99.0325 135.461 99.0892 135.517C99.1456 135.574 99.2177 135.612 99.2961 135.628C99.3748 135.644 99.4559 135.636 99.5299 135.605C99.6037 135.574 99.6669 135.523 99.7112 135.456C99.7558 135.39 99.7795 135.312 99.7795 135.232C99.7795 135.179 99.769 135.126 99.7487 135.077C99.7283 135.028 99.6986 134.984 99.6612 134.946C99.6235 134.909 99.5789 134.879 99.5299 134.859C99.4807 134.838 99.4281 134.828 99.375 134.828Z" opacity=".2"/><path fill="#274B5B" d="M99.3751 124.016C99.2631 124.016 99.1536 123.982 99.0603 123.92C98.9671 123.858 98.8944 123.77 98.8515 123.666C98.8086 123.563 98.7973 123.449 98.8193 123.339C98.8411 123.23 98.8953 123.129 98.9745 123.05C99.0537 122.971 99.1547 122.916 99.2645 122.895C99.3745 122.873 99.4884 122.884 99.5922 122.927C99.6956 122.97 99.7842 123.042 99.8464 123.135C99.9089 123.229 99.9419 123.338 99.9419 123.45C99.9419 123.6 99.8822 123.744 99.776 123.85C99.6698 123.956 99.5256 124.016 99.3751 124.016ZM99.3751 123.208C99.3272 123.208 99.2804 123.222 99.2405 123.249C99.2009 123.275 99.1698 123.313 99.1514 123.357C99.1333 123.401 99.1283 123.45 99.1376 123.497C99.147 123.544 99.1701 123.587 99.204 123.621C99.2378 123.655 99.281 123.677 99.328 123.687C99.3748 123.696 99.4235 123.691 99.4678 123.673C99.5121 123.655 99.5498 123.624 99.5765 123.584C99.6032 123.544 99.6172 123.498 99.6172 123.45C99.6172 123.386 99.5919 123.324 99.5465 123.279C99.5011 123.234 99.4395 123.208 99.3751 123.208Z"/><path fill="#274B5B" d="M99.375 124.499C99.1673 124.499 98.964 124.437 98.7912 124.322C98.6184 124.207 98.4836 124.043 98.4041 123.851C98.3246 123.659 98.3037 123.448 98.3444 123.244C98.3848 123.041 98.485 122.854 98.6319 122.707C98.7788 122.56 98.9662 122.46 99.1701 122.42C99.3739 122.38 99.5852 122.4 99.7773 122.48C99.9693 122.559 100.134 122.694 100.249 122.866C100.364 123.039 100.426 123.242 100.426 123.449C100.426 123.728 100.315 123.994 100.118 124.191C99.9212 124.388 99.6537 124.499 99.375 124.499ZM99.375 123.046C99.295 123.046 99.2168 123.069 99.1502 123.113C99.0839 123.158 99.0319 123.221 99.0014 123.295C98.9709 123.369 98.9629 123.45 98.9783 123.528C98.994 123.607 99.0325 123.678 99.0892 123.735C99.1456 123.791 99.2177 123.83 99.2961 123.845C99.3748 123.861 99.4559 123.853 99.5299 123.822C99.6037 123.792 99.6669 123.74 99.7112 123.674C99.7558 123.607 99.7795 123.529 99.7795 123.449C99.7795 123.396 99.769 123.344 99.7487 123.295C99.7283 123.246 99.6986 123.201 99.6612 123.164C99.6235 123.126 99.5789 123.096 99.5299 123.076C99.4807 123.056 99.4281 123.046 99.375 123.046Z" opacity=".2"/><path fill="#274B5B" d="M97.1933 98.0279H96.5468V141.77H97.1933V98.0279Z"/><path fill="#274B5B" d="M96.7062 99.6408H96.0597V141.284H96.7062V99.6408Z" opacity=".2"/><path fill="#fff" d="M97.9993 99.6408H97.3528V141.122H97.9993V99.6408Z" opacity=".8"/><path fill="#274B5B" d="M107.054 151.534H86.5236C84.2733 151.532 82.1157 150.638 80.5243 149.049C78.933 147.46 78.038 145.306 78.0358 143.059V141.848H115.542V143.059C115.54 145.306 114.645 147.46 113.054 149.049C111.462 150.638 109.305 151.532 107.054 151.534ZM80.5835 144.271C80.8647 145.637 81.6089 146.865 82.691 147.747C83.7731 148.629 85.1268 149.112 86.5236 149.114H107.054C108.451 149.112 109.805 148.629 110.887 147.747C111.969 146.865 112.713 145.637 112.994 144.271H80.5835Z"/><path fill="#fff" d="M114.034 43.6568C115.162 43.3854 116.352 43.5725 117.342 44.1768C118.332 44.7809 119.041 45.7531 119.314 46.8792L120.354 51.1811C120.626 52.3075 120.438 53.4953 119.833 54.484C119.228 55.4724 118.255 56.1806 117.127 56.4529C115.999 56.724 114.809 56.5372 113.819 55.9328C112.829 55.3285 112.119 54.3565 111.847 53.2305L110.807 48.9285C110.535 47.8022 110.723 46.6141 111.328 45.6257C111.933 44.6373 112.906 43.929 114.034 43.6568Z" opacity=".15"/><path fill="#fff" d="M110.149 41.7564C111.111 41.1067 112.291 40.8647 113.43 41.0836C114.57 41.3026 115.576 41.9646 116.227 42.9239C116.878 43.8835 117.12 45.0617 116.901 46.1998C116.681 47.3377 116.019 48.342 115.058 48.9923C114.097 49.642 112.917 49.8837 111.777 49.6648C110.637 49.4458 109.631 48.784 108.98 47.8247C108.329 46.8652 108.087 45.6867 108.306 44.5488C108.526 43.4107 109.188 42.4063 110.149 41.7564Z" opacity=".15"/><g opacity=".4"><path fill="#426270" d="M113.778 74.9354C114.818 73.2542 115.556 71.8284 115.668 71.8779C115.781 71.9273 115.184 73.4438 114.128 75.1497C113.071 76.8557 111.984 78.0699 111.899 78.0012C111.814 77.9325 112.747 76.6222 113.778 74.9354Z" opacity=".4"/><path fill="#426270" d="M115.427 76.0032C116.096 74.8665 116.559 73.8984 116.461 73.8407C116.362 73.783 115.74 74.6577 115.071 75.7945C114.402 76.9312 113.939 77.8996 114.038 77.957C114.136 78.0147 114.758 77.14 115.427 76.0032Z" opacity=".4"/><path fill="#426270" d="M114.18 76.0538C115.699 76.6664 116.967 77.0894 116.931 77.2021C116.896 77.3147 115.556 77.062 114.02 76.4356C112.485 75.8093 111.332 75.0621 111.387 74.9742C111.442 74.8863 112.667 75.4439 114.18 76.0538Z" opacity=".4"/><path fill="#426270" d="M115.624 75.6412C117 76.2867 118.164 76.6933 118.131 76.806C118.098 76.9186 116.86 76.6713 115.451 76.0148C114.042 75.3582 113.055 74.5616 113.118 74.4792C113.181 74.3967 114.249 74.9956 115.624 75.6412Z" opacity=".4"/></g><g opacity=".4"><path fill="#426270" d="M100.685 25.2213C101.725 23.5401 102.462 22.1143 102.575 22.1638C102.688 22.2132 102.091 23.7296 101.034 25.4356C99.9776 27.1416 98.8908 28.3557 98.8055 28.287C98.7202 28.2183 99.6502 26.908 100.685 25.2213Z" opacity=".4"/><path fill="#426270" d="M102.332 26.2913C103 25.1546 103.463 24.1864 103.365 24.1287C103.267 24.0711 102.645 24.9458 101.976 26.0825C101.307 27.2192 100.844 28.1876 100.942 28.245C101.04 28.3027 101.663 27.428 102.332 26.2913Z" opacity=".4"/><path fill="#426270" d="M101.092 26.3397C102.611 26.9523 103.879 27.3754 103.843 27.4879C103.807 27.6005 102.468 27.3479 100.932 26.7216C99.397 26.0952 98.2442 25.348 98.2993 25.2601C98.3543 25.1722 99.5731 25.7298 101.092 26.3397Z" opacity=".4"/><path fill="#426270" d="M102.531 25.9268C103.907 26.5724 105.07 26.9789 105.037 27.0916C105.004 27.2042 103.766 26.957 102.357 26.3004C100.949 25.6438 99.9611 24.8472 100.024 24.7648C100.088 24.6824 101.155 25.2922 102.531 25.9268Z" opacity=".4"/></g><path fill="#8BBACC" d="M115.864 32.9H75.4496V33.7076H115.864V32.9Z"/><path fill="#274B5B" d="M119.454 35.8556H74.3051L74.8553 33.4354H119.179L119.454 35.8556Z"/><path fill="#274B5B" d="M113.451 143.303H79.8545C77.7552 143.303 75.8733 142.372 74.9434 140.872C71.3859 135.103 63.1127 117.549 63.1127 78.9795C63.1127 41.1792 83.057 13.502 91.6329 3.35689C92.25 2.62664 93.0193 2.03971 93.887 1.63709C94.7545 1.23447 95.6999 1.02588 96.6568 1.02588C97.6137 1.02588 98.5591 1.23447 99.4268 1.63709C100.295 2.03971 101.064 2.62664 101.681 3.35689C110.254 13.502 130.201 41.1792 130.193 78.9795C130.193 117.541 121.919 135.108 118.362 140.872C117.446 142.369 115.556 143.303 113.451 143.303ZM96.6485 3.44755C95.6713 3.44689 94.7256 3.79247 93.9798 4.42277C93.8012 4.5734 93.6353 4.7388 93.4845 4.91725C85.082 14.859 65.5366 41.9759 65.5366 78.9795C65.5366 95.5198 67.0718 109.928 70.0983 121.807C72.5937 131.598 75.4964 137.158 77.0069 139.6C77.4801 140.366 78.6274 140.88 79.8545 140.88H113.451C114.686 140.88 115.828 140.366 116.296 139.603C117.806 137.155 120.698 131.592 123.207 121.804C126.234 109.926 127.769 95.5171 127.769 78.9767C127.769 41.9759 108.234 14.859 99.8263 4.91725C99.4758 4.50068 99.046 4.15756 98.5621 3.90766C98.0781 3.65778 97.5493 3.50606 97.0062 3.46128C96.8871 3.45213 96.7677 3.44755 96.6485 3.44755Z"/><path fill="#274B5B" d="M89.6547 141.8H87.2308V118.653C87.2165 110.485 90.348 102.625 95.9772 96.6983L96.8659 95.7616L97.7463 96.7038C103.275 102.612 106.346 110.4 106.336 118.486V141.765H103.912V118.491C103.92 111.471 101.414 104.68 96.8466 99.3438C92.1933 104.702 89.6371 111.559 89.6492 118.651L89.6547 141.8Z"/><path fill="#274B5B" d="M136.878 128.694C136.766 128.694 136.657 128.661 136.564 128.599C136.47 128.537 136.398 128.448 136.355 128.345C136.312 128.241 136.301 128.128 136.323 128.018C136.345 127.908 136.399 127.807 136.478 127.728C136.557 127.649 136.658 127.595 136.768 127.573C136.878 127.552 136.992 127.563 137.095 127.606C137.199 127.648 137.288 127.721 137.35 127.814C137.412 127.907 137.445 128.017 137.445 128.129C137.445 128.279 137.385 128.423 137.279 128.529C137.173 128.635 137.029 128.694 136.878 128.694ZM136.878 127.887C136.831 127.887 136.784 127.901 136.744 127.927C136.704 127.954 136.673 127.992 136.655 128.036C136.637 128.08 136.632 128.129 136.641 128.176C136.65 128.223 136.673 128.266 136.707 128.299C136.741 128.333 136.784 128.356 136.831 128.366C136.878 128.375 136.927 128.37 136.971 128.352C137.015 128.334 137.053 128.302 137.08 128.263C137.106 128.223 137.121 128.176 137.121 128.129C137.12 128.065 137.094 128.004 137.049 127.959C137.003 127.915 136.942 127.89 136.878 127.89V127.887Z"/><path fill="#274B5B" d="M136.878 129.181C136.671 129.181 136.467 129.119 136.294 129.004C136.122 128.888 135.987 128.724 135.907 128.533C135.828 128.341 135.807 128.13 135.848 127.926C135.888 127.723 135.988 127.536 136.135 127.389C136.282 127.242 136.469 127.142 136.673 127.102C136.877 127.062 137.089 127.082 137.281 127.162C137.473 127.241 137.637 127.376 137.752 127.548C137.868 127.721 137.929 127.924 137.929 128.131C137.929 128.41 137.819 128.676 137.621 128.873C137.424 129.07 137.157 129.181 136.878 129.181ZM136.878 127.728C136.798 127.728 136.72 127.751 136.654 127.795C136.587 127.84 136.535 127.903 136.505 127.977C136.474 128.051 136.466 128.132 136.482 128.21C136.497 128.288 136.536 128.36 136.592 128.417C136.649 128.473 136.721 128.512 136.799 128.527C136.878 128.543 136.959 128.535 137.033 128.504C137.107 128.474 137.17 128.422 137.215 128.355C137.259 128.289 137.283 128.211 137.283 128.131C137.283 128.024 137.24 127.921 137.164 127.846C137.089 127.77 136.986 127.728 136.878 127.728Z" opacity=".2"/></g></g><defs><linearGradient id="paint0_linear_5_462" x1="0" x2="207.97" y1="75.353" y2="75.353" gradientUnits="userSpaceOnUse"><stop stop-color="#C3F6EE"/><stop offset=".38" stop-color="#C6EBFD"/></linearGradient><clipPath id="clip0_5_462"><rect width="208" height="214" fill="#fff"/></clipPath></defs></svg>